{
.appVersion = "1350";
DisplayStrings = (
"nnnnnn*,*nnnnn"
);
classes = (
{
automatic = 1;

glyphs = (
{
glyphname = A;
layers = (
{
anchors = (
{
name = bottom;
position = "{343, 0}";
},
{
name = ogonek;
position = "{675, 0}";
},
{
name = top;
position = "{347, 705}";
}
);
background = {
paths = (
{
closed = 1;
nodes = (
"34 -5 OFFCURVE",
"144 0 OFFCURVE",
"169 0 CURVE",
"255 0 LINE",
"260 54 LINE",
"154 69 LINE",
"187 41 LINE",
"189 68 OFFCURVE",
"191 99 OFFCURVE",
"200 127 CURVE SMOOTH",
"349 592 LINE",
"326 591 LINE",
"473 172 LINE SMOOTH",
"488 129 OFFCURVE",
"497 87 OFFCURVE",
"505 41 CURVE",
"535 74 LINE",
"427 44 LINE",
"431 -5 LINE",
"431 -5 OFFCURVE",
"543 0 OFFCURVE",
"574 0 CURVE",
"675 0 LINE",
"680 54 LINE",
"582 70 LINE",
"627 43 LINE",
"611 76 OFFCURVE",
"592 112 OFFCURVE",
"579 149 CURVE SMOOTH",
"373 715 LINE",
"315 705 LINE",
"136 160 LINE SMOOTH",
"122 118 OFFCURVE",
"100 76 OFFCURVE",
"84 44 CURVE",
"128 70 LINE",
"30 44 LINE",
"34 -5 LINE"
);
},
{
closed = 1;
nodes = (
"487 232 LINE",
"487 285 LINE",
"207 285 LINE",
"207 232 LINE"
);
}
);
};
layerId = UUID0;
paths = (
{
closed = 1;
nodes = (
"79 -3 OFFCURVE",
"144 0 OFFCURVE",
"169 0 CURVE SMOOTH",
"255 0 LINE",
"260 54 LINE",
"154 69 LINE",
"187 41 LINE",
"189 68 OFFCURVE",
"191 99 OFFCURVE",
"200 127 CURVE SMOOTH",
"349 592 LINE",
"326 591 LINE",
"473 172 LINE SMOOTH",
"488 129 OFFCURVE",
"497 87 OFFCURVE",
"505 41 CURVE",
"535 74 LINE",
"427 44 LINE",
"431 -5 LINE",
"479 -3 OFFCURVE",
"549 0 OFFCURVE",
"574 0 CURVE SMOOTH",
"675 0 LINE",
"680 54 LINE",
"582 70 LINE",
"627 43 LINE",
"611 76 OFFCURVE",
"592 112 OFFCURVE",
"579 149 CURVE SMOOTH",
"373 715 LINE",
"315 705 LINE",
"136 160 LINE SMOOTH",
"122 118 OFFCURVE",
"100 76 OFFCURVE",
"84 44 CURVE",
"128 70 LINE",
"30 44 LINE",
"34 -5 LINE"
);
},
{
closed = 1;
nodes = (
"487 232 LINE",
"487 285 LINE",
"207 285 LINE",
"207 232 LINE"
);
}
);
width = 711;
},
{
anchors = (
{
name = bottom;
position = "{336, 0}";
},
{
name = ogonek;
position = "{676, 0}";
},
{
name = top;
position = "{352, 705}";
}
);
background = {
paths = (
{
closed = 1;
nodes = (
"23 -5 OFFCURVE",
"133 0 OFFCURVE",
"162 0 CURVE SMOOTH",
"262 0 LINE",
"267 67 LINE",
"150 80 LINE",
"200 31 LINE",
"203 66 OFFCURVE",
"205 93 OFFCURVE",
"213 118 CURVE SMOOTH",
"351 567 LINE",
"319 567 LINE",
"446 140 LINE SMOOTH",
"454 112 OFFCURVE",
"460 79 OFFCURVE",
"465 36 CURVE",
"512 85 LINE",
"394 60 LINE",
"399 -5 LINE",
"399 -5 OFFCURVE",
"543 0 OFFCURVE",
"588 0 CURVE SMOOTH",
"676 0 LINE",
"681 67 LINE",
"566 85 LINE",
"641 39 LINE",
"624 68 OFFCURVE",
"607 100 OFFCURVE",
"596 133 CURVE SMOOTH",
"395 716 LINE",
"296 705 LINE",
"110 161 LINE SMOOTH",
"95 118 OFFCURVE",
"74 80 OFFCURVE",
"50 38 CURVE",
"122 81 LINE",
"18 60 LINE",
"23 -5 LINE"
);
},
{
closed = 1;
nodes = (
"463 192 LINE",
"463 269 LINE",
"205 269 LINE",
"205 192 LINE"
);
}
);
};
guideLines = (
{
position = "{316, 65}";
}
);
layerId = "16643525-C5DD-48EC-8E99-463BF28F5E85";
paths = (
{
closed = 1;
nodes = (
"65 -3 OFFCURVE",
"137 0 OFFCURVE",
"162 0 CURVE SMOOTH",
"262 0 LINE",
"267 67 LINE",
"150 80 LINE",
"200 31 LINE",
"203 66 OFFCURVE",
"205 93 OFFCURVE",
"213 118 CURVE SMOOTH",
"351 567 LINE",
"319 567 LINE",
"446 140 LINE SMOOTH",
"454 112 OFFCURVE",
"460 79 OFFCURVE",
"465 36 CURVE",
"512 85 LINE",
"394 60 LINE",
"399 -5 LINE",
"459 -3 OFFCURVE",
"563 0 OFFCURVE",
"588 0 CURVE SMOOTH",
"676 0 LINE",
"681 67 LINE",
"566 85 LINE",
"641 39 LINE",
"624 68 OFFCURVE",
"607 100 OFFCURVE",
"596 133 CURVE SMOOTH",
"395 716 LINE",
"296 705 LINE",
"110 161 LINE SMOOTH",
"95 118 OFFCURVE",
"74 80 OFFCURVE",
"50 38 CURVE",
"122 81 LINE",
"18 60 LINE",
"23 -5 LINE"
);
},
{
closed = 1;
nodes = (
"463 192 LINE",
"463 269 LINE",
"205 269 LINE",
"205 192 LINE"
);
}
);
width = 699;
}
);
leftKerningGroup = A;
rightKerningGroup = A;
unicode = 0041;
},
{
glyphname = AE;
layers = (
{
anchors = (
{
name = bottom;
position = "{603, 0}";
},
{
name = top;
position = "{662, 720}";
}
);
background = {
paths = (
{
closed = 1;
nodes = (
"70 -3 OFFCURVE",
"124 0 OFFCURVE",
"169 0 CURVE",
"255 0 LINE",
"260 54 LINE",
"152 69 LINE",
"181 33 LINE",
"186 54 OFFCURVE",
"199 116 OFFCURVE",
"204 127 CURVE SMOOTH",
"419 617 LINE",
"397 620 LINE",
"490 130 LINE SMOOTH",
"495 103 OFFCURVE",
"499 78 OFFCURVE",
"498 33 CURVE",
"532 74 LINE",
"427 44 LINE",
"431 -5 LINE",
"431 -5 OFFCURVE",
"543 0 OFFCURVE",
"574 0 CURVE",
"759 0 LINE SMOOTH",
"779 0 OFFCURVE",
"873 -4 OFFCURVE",
"873 -4 CURVE",
"892 14 LINE",
"907 165 LINE",
"852 170 LINE",
"850 154 OFFCURVE",
"841 118 OFFCURVE",
"837 103 CURVE SMOOTH",
"834 92 OFFCURVE",
"813 59 OFFCURVE",
"799 46 CURVE",
"831 69 LINE",
"814 65 OFFCURVE",
"767 57 OFFCURVE",
"729 57 CURVE SMOOTH",
"569 57 LINE",
"609 21 LINE",
"579 168 LINE SMOOTH",
"502 538 LINE SMOOTH",
"498 581 OFFCURVE",
"490 666 OFFCURVE",
"489 683 CURVE",
"455 649 LINE",
"672 649 LINE SMOOTH",
"708 649 OFFCURVE",
"751 644 OFFCURVE",
"771 643 CURVE",
"735 665 LINE",
"749 651 OFFCURVE",
"772 621 OFFCURVE",
"775 610 CURVE",
"779 595 OFFCURVE",
"785 572 OFFCURVE",
"788 556 CURVE",
"845 561 LINE",
"834 697 LINE",
"814 715 LINE",
"814 715 OFFCURVE",
"720 705 OFFCURVE",
"700 705 CURVE SMOOTH",
"389 705 LINE",
"148 160 LINE SMOOTH",
"140 141 OFFCURVE",
"99 69 OFFCURVE",
"78 44 CURVE",
"126 70 LINE",
"30 44 LINE",
"34 -5 LINE"
);
},
{
closed = 1;
nodes = (
"527 232 LINE",
"525 285 LINE",
"215 285 LINE",
"217 232 LINE"
);
},
{
closed = 1;
nodes = (
"781 259 LINE",
"781 259 OFFCURVE",
"776 318 OFFCURVE",
"774 368 CURVE SMOOTH",
"773 388 OFFCURVE",
"772 452 OFFCURVE",
"772 452 CURVE",
"726 457 LINE",
"716 352 LINE",
"740 387 LINE",
"731 386 OFFCURVE",
"688 382 OFFCURVE",
"660 382 CURVE SMOOTH",
"494 382 LINE",
"496 326 LINE",
"642 326 LINE SMOOTH",
"668 326 OFFCURVE",
"735 321 OFFCURVE",
"754 319 CURVE",
"716 356 LINE",
"733 253 LINE"
);
}
);
};
layerId = UUID0;
paths = (
{
closed = 1;
nodes = (
"70 -3 OFFCURVE",
"124 0 OFFCURVE",
"169 0 CURVE",
"255 0 LINE",
"260 54 LINE",
"152 69 LINE",
"181 33 LINE",
"186 54 OFFCURVE",
"199 116 OFFCURVE",
"204 127 CURVE SMOOTH",
"419 617 LINE",
"397 620 LINE",
"490 130 LINE SMOOTH",
"495 103 OFFCURVE",
"499 78 OFFCURVE",
"498 33 CURVE",
"532 74 LINE",
"427 44 LINE",
"431 -5 LINE",
"431 -5 OFFCURVE",
"543 0 OFFCURVE",
"574 0 CURVE",
"609 21 LINE",
"579 168 LINE SMOOTH",
"502 538 LINE SMOOTH",
"498 581 OFFCURVE",
"490 666 OFFCURVE",
"489 683 CURVE",
"489 705 LINE",
"389 705 LINE",
"148 160 LINE SMOOTH",
"140 141 OFFCURVE",
"99 69 OFFCURVE",
"78 44 CURVE",
"126 70 LINE",
"30 44 LINE",
"34 -5 LINE"
);
},
{
closed = 1;
nodes = (
"527 232 LINE",
"525 285 LINE",
"215 285 LINE",
"217 232 LINE"
);
},
{
closed = 1;
nodes = (
"893 14 LINE",
"908 165 LINE",
"853 170 LINE",
"838 103 LINE SMOOTH",
"835 88 OFFCURVE",
"815 62 OFFCURVE",
"800 43 CURVE",
"832 69 LINE",
"814 65 OFFCURVE",
"770 57 OFFCURVE",
"730 57 CURVE SMOOTH",
"522 57 LINE",
"522 0 LINE",
"760 0 LINE SMOOTH",
"778 0 OFFCURVE",
"836 -2 OFFCURVE",
"874 -4 CURVE"
);
},
{
closed = 1;
nodes = (
"812 271 LINE",
"810 307 OFFCURVE",
"809 344 OFFCURVE",
"809 380 CURVE SMOOTH",
"809 464 LINE",
"764 469 LINE",
"750 364 LINE",
"781 404 LINE",
"767 402 OFFCURVE",
"723 394 OFFCURVE",
"695 394 CURVE SMOOTH",
"522 394 LINE",
"522 338 LINE",
"675 338 LINE SMOOTH",
"701 338 OFFCURVE",
"764 331 OFFCURVE",
"787 328 CURVE",
"750 368 LINE",
"764 265 LINE"
);
},
{
closed = 1;
nodes = (
"887 561 LINE",
"880 692 LINE",
"861 710 LINE",
"823 707 OFFCURVE",
"765 705 OFFCURVE",
"747 705 CURVE SMOOTH",
"442 705 LINE",
"442 649 LINE",
"717 649 LINE SMOOTH",
"753 649 OFFCURVE",
"795 646 OFFCURVE",
"815 643 CURVE",
"780 665 LINE",
"795 651 OFFCURVE",
"816 620 OFFCURVE",
"818 610 CURVE SMOOTH",
"829 556 LINE"
);
}
);
width = 959;
},
{
anchors = (
{
name = bottom;
position = "{603, 0}";
},
{
name = top;
position = "{637, 720}";
}
);
background = {
paths = (
{
closed = 1;
nodes = (
"61 -3 OFFCURVE",
"114 0 OFFCURVE",
"158 0 CURVE",
"257 0 LINE",
"262 67 LINE",
"136 80 LINE",
"188 41 LINE",
"191 65 OFFCURVE",
"199 100 OFFCURVE",
"207 118 CURVE SMOOTH",
"424 550 LINE",
"387 556 LINE",
"467 129 LINE SMOOTH",
"474 96 OFFCURVE",
"478 67 OFFCURVE",
"479 37 CURVE",
"530 85 LINE",
"415 60 LINE",
"420 -5 LINE",
"420 -5 OFFCURVE",
"564 0 OFFCURVE",
"609 0 CURVE SMOOTH",
"758 0 LINE SMOOTH",
"777 0 OFFCURVE",
"872 -4 OFFCURVE",
"872 -4 CURVE",
"891 14 LINE",
"906 184 LINE",
"839 189 LINE",
"837 173 OFFCURVE",
"830 142 OFFCURVE",
"827 129 CURVE",
"824 118 OFFCURVE",
"803 73 OFFCURVE",
"789 49 CURVE",
"829 93 LINE",
"814 89 OFFCURVE",
"770 80 OFFCURVE",
"728 80 CURVE SMOOTH",
"562 80 LINE",
"631 24 LINE",
"593 187 LINE",
"526 542 LINE SMOOTH",
"521 570 OFFCURVE",
"517 643 OFFCURVE",
"515 676 CURVE",
"460 630 LINE",
"687 630 LINE SMOOTH",
"730 630 OFFCURVE",
"774 623 OFFCURVE",
"788 623 CURVE",
"751 657 LINE",
"755 649 OFFCURVE",
"777 607 OFFCURVE",
"780 594 CURVE SMOOTH",
"784 580 OFFCURVE",
"790 556 OFFCURVE",
"791 542 CURVE",
"860 547 LINE",
"848 697 LINE",
"828 715 LINE",
"828 715 OFFCURVE",
"733 705 OFFCURVE",
"714 705 CURVE SMOOTH",
"396 705 LINE",
"118 161 LINE SMOOTH",
"105 135 OFFCURVE",
"56 62 OFFCURVE",
"46 46 CURVE",
"115 82 LINE",
"18 60 LINE",
"23 -5 LINE"
);
},
{
closed = 1;
nodes = (
"485 192 LINE",
"483 269 LINE",
"218 269 LINE",
"220 192 LINE"
);
},
{
closed = 1;
nodes = (
"786 257 LINE",
"786 257 OFFCURVE",
"780 330 OFFCURVE",
"779 379 CURVE SMOOTH",
"778 399 OFFCURVE",
"777 463 OFFCURVE",
"777 463 CURVE",
"719 468 LINE",
"708 367 LINE",
"739 401 LINE",
"720 397 OFFCURVE",
"685 394 OFFCURVE",
"664 394 CURVE SMOOTH",
"479 394 LINE",
"482 319 LINE",
"647 319 LINE SMOOTH",
"679 319 OFFCURVE",
"734 313 OFFCURVE",
"753 312 CURVE",
"708 350 LINE",
"726 251 LINE"
);
}
);
};
layerId = "16643525-C5DD-48EC-8E99-463BF28F5E85";
paths = (
{
closed = 1;
nodes = (
"61 -3 OFFCURVE",
"114 0 OFFCURVE",
"158 0 CURVE",
"257 0 LINE",
"262 67 LINE",
"136 80 LINE",
"188 41 LINE",
"191 65 OFFCURVE",
"199 100 OFFCURVE",
"207 118 CURVE SMOOTH",
"424 550 LINE",
"387 556 LINE",
"467 129 LINE SMOOTH",
"474 96 OFFCURVE",
"478 67 OFFCURVE",
"479 37 CURVE",
"530 85 LINE",
"415 60 LINE",
"420 -5 LINE",
"420 -5 OFFCURVE",
"564 0 OFFCURVE",
"609 0 CURVE",
"631 24 LINE",
"593 187 LINE",
"526 542 LINE SMOOTH",
"521 570 OFFCURVE",
"517 643 OFFCURVE",
"515 676 CURVE",
"515 705 LINE",
"396 705 LINE",
"118 161 LINE SMOOTH",
"105 135 OFFCURVE",
"56 62 OFFCURVE",
"46 46 CURVE",
"115 82 LINE",
"18 60 LINE",
"23 -5 LINE"
);
},
{
closed = 1;
nodes = (
"485 192 LINE",
"483 269 LINE",
"218 269 LINE",
"220 192 LINE"
);
},
{
closed = 1;
nodes = (
"894 14 LINE",
"909 184 LINE",
"843 189 LINE",
"830 129 LINE SMOOTH",
"826 112 OFFCURVE",
"805 73 OFFCURVE",
"779 42 CURVE",
"832 93 LINE",
"817 89 OFFCURVE",
"775 80 OFFCURVE",
"731 80 CURVE SMOOTH",
"505 80 LINE",
"505 0 LINE",
"761 0 LINE SMOOTH",
"789 0 OFFCURVE",
"837 -2 OFFCURVE",
"875 -4 CURVE"
);
},
{
closed = 1;
nodes = (
"805 260 LINE",
"803 301 OFFCURVE",
"802 341 OFFCURVE",
"802 382 CURVE SMOOTH",
"802 466 LINE",
"745 471 LINE",
"731 367 LINE",
"764 409 LINE",
"745 403 OFFCURVE",
"711 397 OFFCURVE",
"688 397 CURVE SMOOTH",
"505 397 LINE",
"505 322 LINE",
"668 322 LINE SMOOTH",
"698 322 OFFCURVE",
"750 317 OFFCURVE",
"780 315 CURVE",
"731 352 LINE",
"745 254 LINE"
);
},
{
closed = 1;
nodes = (
"887 547 LINE",
"880 692 LINE",
"861 710 LINE",
"823 707 OFFCURVE",
"765 705 OFFCURVE",
"747 705 CURVE SMOOTH",
"505 705 LINE",
"505 630 LINE",
"720 630 LINE SMOOTH",
"760 630 OFFCURVE",
"807 625 OFFCURVE",
"832 623 CURVE",
"777 675 LINE",
"791 647 OFFCURVE",
"810 603 OFFCURVE",
"812 590 CURVE SMOOTH",
"819 542 LINE"
);
}
);
width = 948;
}
);
leftKerningGroup = A;
rightKerningGroup = E;
unicode = 00C6;
},
{
glyphname = Aacute;
layers = (
{
anchors = (
{
name = top;
position = "{367, 980}";
}
);
components = (
{
name = A;
}
);
layerId = UUID0;
paths = (
{
closed = 1;
nodes = (
"503 830 LINE",
"473 893 LINE",
"250 779 LINE",
"268 738 LINE"
);
}
);
width = 711;
},
{
anchors = (
{
name = top;
position = "{362, 1000}";
}
);
components = (
{
name = A;
}
);
layerId = "16643525-C5DD-48EC-8E99-463BF28F5E85";
paths = (
{
closed = 1;
nodes = (
"507 816 LINE",
"473 892 LINE",
"237 789 LINE",
"262 737 LINE"
);
}
);
width = 699;
}
);
leftKerningGroup = A;
rightKerningGroup = A;
unicode = 00C1;
},
{
glyphname = Acircumflex;
layers = (
{
anchors = (
{
name = top;
position = "{347, 980}";
}
);
components = (
{
name = A;
}
);
layerId = UUID0;
paths = (
{
closed = 1;
nodes = (
"520 774 LINE",
"380 864 LINE",
"339 864 LINE",
"306 825 LINE",
"497 738 LINE"
);
},
{
closed = 1;
nodes = (
"388 825 LINE",
"355 864 LINE",
"314 864 LINE",
"174 774 LINE",
"197 738 LINE"
);
}
);
width = 711;
},
{
anchors = (
{
name = top;
position = "{352, 1000}";
}
);
components = (
{
name = A;
}
);
layerId = "16643525-C5DD-48EC-8E99-463BF28F5E85";
paths = (
{
closed = 1;
nodes = (
"537 781 LINE",
"401 877 LINE",
"338 877 LINE",
"304 836 LINE",
"503 736 LINE"
);
},
{
closed = 1;
nodes = (
"400 836 LINE",
"366 877 LINE",
"303 877 LINE",
"167 782 LINE",
"201 737 LINE"
);
}
);
width = 699;
}
);
leftKerningGroup = A;
rightKerningGroup = A;
unicode = 00C2;
},
{
glyphname = Atilde;
layers = (
{
anchors = (
{
name = top;
position = "{347, 980}";
}
);
components = (
{
name = A;
}
);
layerId = UUID0;
paths = (
{
closed = 1;
nodes = (
"215 733 OFFCURVE",
"241 787 OFFCURVE",
"268 787 CURVE SMOOTH",
"308 787 OFFCURVE",
"392 746 OFFCURVE",
"432 746 CURVE SMOOTH",
"472 746 OFFCURVE",
"515 844 OFFCURVE",
"515 844 CURVE",
"479 865 LINE",
"479 865 OFFCURVE",
"453 814 OFFCURVE",
"426 814 CURVE SMOOTH",
"386 814 OFFCURVE",
"301 855 OFFCURVE",
"261 855 CURVE SMOOTH",
"221 855 OFFCURVE",
"179 754 OFFCURVE",
"179 754 CURVE",
"215 733 LINE"
);
}
);
width = 711;
},
{
anchors = (
{
name = top;
position = "{352, 1000}";
}
);
components = (
{
name = A;
}
);
layerId = "16643525-C5DD-48EC-8E99-463BF28F5E85";
paths = (
{
closed = 1;
nodes = (
"216 731 OFFCURVE",
"242 776 OFFCURVE",
"266 776 CURVE SMOOTH",
"309 776 OFFCURVE",
"404 737 OFFCURVE",
"446 737 CURVE SMOOTH",
"488 737 OFFCURVE",
"532 837 OFFCURVE",
"532 837 CURVE",
"486 864 LINE",
"486 864 OFFCURVE",
"464 822 OFFCURVE",
"439 822 CURVE SMOOTH",
"398 822 OFFCURVE",
"301 861 OFFCURVE",
"259 861 CURVE SMOOTH",
"217 861 OFFCURVE",
"172 757 OFFCURVE",
"172 757 CURVE",
"216 731 LINE"
);
}
);
width = 699;
}
);
leftKerningGroup = A;
rightKerningGroup = A;
unicode = 00C3;
},
{
glyphname = B;
layers = (
{
anchors = (
{
name = bottom;
position = "{301, 0}";
},
{
name = top;
position = "{301, 705}";
}
);
background = {
paths = (
{
closed = 1;
nodes = (
"90 -3 OFFCURVE",
"155 0 OFFCURVE",
"180 0 CURVE SMOOTH",
"230 0 OFFCURVE",
"297 -4 OFFCURVE",
"347 -4 CURVE SMOOTH",
"461 -4 OFFCURVE",
"551 69 OFFCURVE",
"551 183 CURVE SMOOTH",
"551 296 OFFCURVE",
"467 359 OFFCURVE",
"354 366 CURVE",
"381 327 LINE",
"381 406 LINE",
"356 365 LINE",
"450 377 OFFCURVE",
"520 446 OFFCURVE",
"520 543 CURVE SMOOTH",
"520 648 OFFCURVE",
"433 710 OFFCURVE",
"330 710 CURVE SMOOTH",
"280 710 OFFCURVE",
"212 705 OFFCURVE",
"162 705 CURVE SMOOTH",
"142 705 OFFCURVE",
"67 709 OFFCURVE",
"47 710 CURVE",
"42 656 LINE",
"142 641 LINE",
"115 670 LINE",
"118 652 OFFCURVE",
"128 590 OFFCURVE",
"128 568 CURVE SMOOTH",
"128 137 LINE SMOOTH",
"128 115 OFFCURVE",
"119 50 OFFCURVE",
"115 25 CURVE",
"155 68 LINE",
"40 45 LINE",
"45 -5 LINE"
);
},
{
closed = 1;
nodes = (
"225 46 OFFCURVE",
"219 113 OFFCURVE",
"219 167 CURVE SMOOTH",
"219 538 LINE SMOOTH",
"219 591 OFFCURVE",
"227 664 OFFCURVE",
"229 679 CURVE",
"205 654 LINE",
"234 656 OFFCURVE",
"272 656 OFFCURVE",
"309 656 CURVE SMOOTH",
"379 656 OFFCURVE",
"427 606 OFFCURVE",
"427 531 CURVE SMOOTH",
"427 442 OFFCURVE",
"365 394 OFFCURVE",
"285 394 CURVE SMOOTH",
"278 394 LINE",
"271 337 LINE",
"282 337 LINE SMOOTH",
"371 337 OFFCURVE",
"450 292 OFFCURVE",
"450 191 CURVE SMOOTH",
"450 102 OFFCURVE",
"395 54 OFFCURVE",
"316 54 CURVE SMOOTH",
"274 54 OFFCURVE",
"232 58 OFFCURVE",
"207 60 CURVE",
"230 22 LINE"
);
}
);
};
layerId = UUID0;
paths = (
{
closed = 1;
nodes = (
"90 -3 OFFCURVE",
"155 0 OFFCURVE",
"180 0 CURVE SMOOTH",
"230 0 OFFCURVE",
"297 -4 OFFCURVE",
"347 -4 CURVE SMOOTH",
"461 -4 OFFCURVE",
"551 69 OFFCURVE",
"551 183 CURVE SMOOTH",
"551 296 OFFCURVE",
"467 359 OFFCURVE",
"354 366 CURVE",
"381 327 LINE",
"381 406 LINE",
"356 365 LINE",
"450 377 OFFCURVE",
"520 446 OFFCURVE",
"520 543 CURVE SMOOTH",
"520 648 OFFCURVE",
"433 710 OFFCURVE",
"330 710 CURVE SMOOTH",
"280 710 OFFCURVE",
"212 705 OFFCURVE",
"162 705 CURVE SMOOTH",
"142 705 OFFCURVE",
"84 708 OFFCURVE",
"47 710 CURVE",
"42 656 LINE",
"142 641 LINE",
"115 670 LINE",
"118 652 OFFCURVE",
"128 590 OFFCURVE",
"128 568 CURVE SMOOTH",
"128 137 LINE SMOOTH",
"128 115 OFFCURVE",
"119 50 OFFCURVE",
"115 25 CURVE",
"155 68 LINE",
"40 45 LINE",
"45 -5 LINE"
);
},
{
closed = 1;
nodes = (
"225 46 OFFCURVE",
"219 113 OFFCURVE",
"219 167 CURVE SMOOTH",
"219 538 LINE SMOOTH",
"219 591 OFFCURVE",
"227 664 OFFCURVE",
"229 679 CURVE",
"205 654 LINE",
"234 656 OFFCURVE",
"272 656 OFFCURVE",
"309 656 CURVE SMOOTH",
"379 656 OFFCURVE",
"427 606 OFFCURVE",
"427 531 CURVE SMOOTH",
"427 442 OFFCURVE",
"365 394 OFFCURVE",
"285 394 CURVE SMOOTH",
"278 394 LINE",
"271 337 LINE",
"282 337 LINE SMOOTH",
"371 337 OFFCURVE",
"450 292 OFFCURVE",
"450 191 CURVE SMOOTH",
"450 102 OFFCURVE",
"395 54 OFFCURVE",
"316 54 CURVE SMOOTH",
"274 54 OFFCURVE",
"232 58 OFFCURVE",
"207 60 CURVE",
"230 22 LINE"
);
}
);
width = 601;
},
{
anchors = (
{
name = bottom;
position = "{308, 0}";
},
{
name = top;
position = "{308, 705}";
}
);
background = {
paths = (
{
closed = 1;
nodes = (
"76 -3 OFFCURVE",
"153 0 OFFCURVE",
"181 0 CURVE SMOOTH",
"231 0 OFFCURVE",
"300 -5 OFFCURVE",
"350 -5 CURVE SMOOTH",
"475 -5 OFFCURVE",
"580 60 OFFCURVE",
"580 188 CURVE SMOOTH",
"580 304 OFFCURVE",
"490 363 OFFCURVE",
"367 368 CURVE",
"410 308 LINE",
"410 427 LINE",
"370 365 LINE",
"472 371 OFFCURVE",
"549 442 OFFCURVE",
"549 543 CURVE SMOOTH",
"549 648 OFFCURVE",
"448 710 OFFCURVE",
"333 710 CURVE SMOOTH",
"283 710 OFFCURVE",
"205 705 OFFCURVE",
"155 705 CURVE SMOOTH",
"128 705 OFFCURVE",
"72 708 OFFCURVE",
"36 710 CURVE",
"31 640 LINE",
"152 619 LINE",
"94 668 LINE",
"94 666 OFFCURVE",
"108 580 OFFCURVE",
"108 549 CURVE SMOOTH",
"108 157 LINE SMOOTH",
"108 131 OFFCURVE",
"98 61 OFFCURVE",
"94 36 CURVE",
"155 83 LINE",
"30 60 LINE",
"35 -5 LINE"
);
},
{
closed = 1;
nodes = (
"255 64 OFFCURVE",
"247 141 OFFCURVE",
"247 187 CURVE SMOOTH",
"247 519 LINE SMOOTH",
"247 569 OFFCURVE",
"254 643 OFFCURVE",
"255 658 CURVE",
"216 635 LINE",
"245 635 OFFCURVE",
"279 635 OFFCURVE",
"309 635 CURVE SMOOTH",
"379 635 OFFCURVE",
"417 591 OFFCURVE",
"417 524 CURVE SMOOTH",
"417 449 OFFCURVE",
"374 404 OFFCURVE",
"302 404 CURVE SMOOTH",
"296 404 LINE",
"289 324 LINE",
"299 324 LINE SMOOTH",
"378 324 OFFCURVE",
"440 292 OFFCURVE",
"440 200 CURVE SMOOTH",
"440 118 OFFCURVE",
"389 71 OFFCURVE",
"316 71 CURVE SMOOTH",
"278 71 OFFCURVE",
"248 75 OFFCURVE",
"218 80 CURVE",
"258 46 LINE"
);
}
);
};
layerId = "16643525-C5DD-48EC-8E99-463BF28F5E85";
paths = (
{
closed = 1;
nodes = (
"76 -3 OFFCURVE",
"153 0 OFFCURVE",
"181 0 CURVE SMOOTH",
"231 0 OFFCURVE",
"300 -5 OFFCURVE",
"350 -5 CURVE SMOOTH",
"475 -5 OFFCURVE",
"580 60 OFFCURVE",
"580 188 CURVE SMOOTH",
"580 304 OFFCURVE",
"490 363 OFFCURVE",
"367 368 CURVE",
"410 308 LINE",
"410 427 LINE",
"370 365 LINE",
"472 371 OFFCURVE",
"549 442 OFFCURVE",
"549 543 CURVE SMOOTH",
"549 648 OFFCURVE",
"448 710 OFFCURVE",
"333 710 CURVE SMOOTH",
"283 710 OFFCURVE",
"205 705 OFFCURVE",
"155 705 CURVE SMOOTH",
"128 705 OFFCURVE",
"72 708 OFFCURVE",
"36 710 CURVE",
"31 640 LINE",
"152 619 LINE",
"94 668 LINE",
"94 666 OFFCURVE",
"108 580 OFFCURVE",
"108 549 CURVE SMOOTH",
"108 157 LINE SMOOTH",
"108 131 OFFCURVE",
"98 61 OFFCURVE",
"94 36 CURVE",
"155 83 LINE",
"30 60 LINE",
"35 -5 LINE"
);
},
{
closed = 1;
nodes = (
"255 64 OFFCURVE",
"247 141 OFFCURVE",
"247 187 CURVE SMOOTH",
"247 519 LINE SMOOTH",
"247 569 OFFCURVE",
"254 643 OFFCURVE",
"255 658 CURVE",
"216 635 LINE",
"245 635 OFFCURVE",
"279 635 OFFCURVE",
"309 635 CURVE SMOOTH",
"379 635 OFFCURVE",
"417 591 OFFCURVE",
"417 524 CURVE SMOOTH",
"417 449 OFFCURVE",
"374 404 OFFCURVE",
"302 404 CURVE SMOOTH",
"296 404 LINE",
"289 324 LINE",
"299 324 LINE SMOOTH",
"378 324 OFFCURVE",
"440 292 OFFCURVE",
"440 200 CURVE SMOOTH",
"440 118 OFFCURVE",
"389 71 OFFCURVE",
"316 71 CURVE SMOOTH",
"278 71 OFFCURVE",
"248 75 OFFCURVE",
"218 80 CURVE",
"258 46 LINE"
);
}
);
width = 615;
}
);
leftKerningGroup = H;
rightKerningGroup = B;
unicode = 0042;
},
{
glyphname = C;
layers = (
{
anchors = (
{
name = bottom;
position = "{363, 0}";
},
{
name = top;
position = "{363, 720}";
}
);
background = {
anchors = (
{
name = bottom;
position = "{367, 0}";
},
{
name = top;
position = "{379, 715}";
}
);
paths = (
{
closed = 1;
nodes = (
"454 -15 OFFCURVE",
"526 3 OFFCURVE",
"589 19 CURVE",
"583 170 LINE",
"524 168 LINE",
"524 168 OFFCURVE",
"524 131 OFFCURVE",
"522 121 CURVE",
"522 107 OFFCURVE",
"509 66 OFFCURVE",
"498 37 CURVE",
"529 72 LINE",
"485 55 OFFCURVE",
"420 43 OFFCURVE",
"372 43 CURVE SMOOTH",
"229 43 OFFCURVE",
"159 180 OFFCURVE",
"159 353 CURVE SMOOTH",
"159 526 OFFCURVE",
"229 662 OFFCURVE",
"373 662 CURVE SMOOTH",
"418 662 OFFCURVE",
"479 648 OFFCURVE",
"520 631 CURVE",
"491 665 LINE",
"498 641 OFFCURVE",
"511 602 OFFCURVE",
"511 589 CURVE SMOOTH",
"511 542 LINE",
"570 538 LINE",
"580 686 LINE",
"517 702 OFFCURVE",
"455 720 OFFCURVE",
"373 720 CURVE SMOOTH",
"163 720 OFFCURVE",
"56 570 OFFCURVE",
"56 352 CURVE SMOOTH",
"56 134 OFFCURVE",
"163 -15 OFFCURVE",
"373 -15 CURVE SMOOTH"
);
}
);
};
layerId = UUID0;
paths = (
{
closed = 1;
nodes = (
"454 -15 OFFCURVE",
"526 3 OFFCURVE",
"589 19 CURVE",
"583 170 LINE",
"524 168 LINE",
"522 121 LINE SMOOTH",
"521 107 OFFCURVE",
"509 66 OFFCURVE",
"498 37 CURVE",
"529 72 LINE",
"485 55 OFFCURVE",
"420 43 OFFCURVE",
"372 43 CURVE SMOOTH",
"229 43 OFFCURVE",
"159 180 OFFCURVE",
"159 353 CURVE SMOOTH",
"159 526 OFFCURVE",
"229 662 OFFCURVE",
"373 662 CURVE SMOOTH",
"418 662 OFFCURVE",
"479 648 OFFCURVE",
"520 631 CURVE",
"491 665 LINE",
"498 641 OFFCURVE",
"511 602 OFFCURVE",
"511 589 CURVE SMOOTH",
"511 542 LINE",
"570 538 LINE",
"580 686 LINE",
"517 702 OFFCURVE",
"455 720 OFFCURVE",
"373 720 CURVE SMOOTH",
"163 720 OFFCURVE",
"56 570 OFFCURVE",
"56 352 CURVE SMOOTH",
"56 134 OFFCURVE",
"163 -15 OFFCURVE",
"373 -15 CURVE SMOOTH"
);
}
);
width = 646;
},
{
anchors = (
{
name = bottom;
position = "{374, 0}";
},
{
name = top;
position = "{374, 720}";
}
);
background = {
anchors = (
{
name = bottom;
position = "{364, 0}";
},
{
name = top;
position = "{388, 715}";
}
);
paths = (
{
closed = 1;
nodes = (
"604 191 LINE",
"529 189 LINE",
"529 189 OFFCURVE",
"527 153 OFFCURVE",
"526 142 CURVE",
"526 127 OFFCURVE",
"503 78 OFFCURVE",
"491 50 CURVE",
"559 105 LINE",
"488 87 OFFCURVE",
"443 78 OFFCURVE",
"386 78 CURVE SMOOTH",
"263 78 OFFCURVE",
"217 200 OFFCURVE",
"217 353 CURVE SMOOTH",
"217 506 OFFCURVE",
"264 627 OFFCURVE",
"387 627 CURVE SMOOTH",
"440 627 OFFCURVE",
"481 618 OFFCURVE",
"549 601 CURVE",
"484 654 LINE",
"494 626 OFFCURVE",
"511 584 OFFCURVE",
"511 572 CURVE SMOOTH",
"514 511 LINE",
"591 507 LINE",
"603 686 LINE",
"538 704 OFFCURVE",
"473 720 OFFCURVE",
"387 720 CURVE SMOOTH",
"155 720 OFFCURVE",
"37 570 OFFCURVE",
"37 352 CURVE SMOOTH",
"37 134 OFFCURVE",
"155 -15 OFFCURVE",
"387 -15 CURVE SMOOTH",
"472 -15 OFFCURVE",
"547 3 OFFCURVE",
"612 19 CURVE"
);
}
);
};
layerId = "16643525-C5DD-48EC-8E99-463BF28F5E85";
paths = (
{
closed = 1;
nodes = (
"466 -15 OFFCURVE",
"541 3 OFFCURVE",
"606 19 CURVE",
"598 186 LINE",
"527 184 LINE",
"524 137 LINE SMOOTH",
"523 123 OFFCURVE",
"504 75 OFFCURVE",
"492 47 CURVE",
"551 97 LINE",
"483 78 OFFCURVE",
"434 69 OFFCURVE",
"382 69 CURVE SMOOTH",
"254 69 OFFCURVE",
"202 195 OFFCURVE",
"202 353 CURVE SMOOTH",
"202 511 OFFCURVE",
"255 636 OFFCURVE",
"383 636 CURVE SMOOTH",
"434 636 OFFCURVE",
"482 625 OFFCURVE",
"541 609 CURVE",
"485 657 LINE",
"494 630 OFFCURVE",
"511 589 OFFCURVE",
"511 576 CURVE SMOOTH",
"513 519 LINE",
"585 515 LINE",
"597 686 LINE",
"530 704 OFFCURVE",
"467 720 OFFCURVE",
"383 720 CURVE SMOOTH",
"157 720 OFFCURVE",
"41 570 OFFCURVE",
"41 352 CURVE SMOOTH",
"41 134 OFFCURVE",
"157 -15 OFFCURVE",
"383 -15 CURVE SMOOTH"
);
}
);
width = 651;
}
);
leftKerningGroup = O;
rightKerningGroup = C;
unicode = 0043;
},
{
glyphname = Ccedilla;
layers = (
{
anchors = (
{
name = _bottom;
position = "{363, 0}";
},
{
name = bottom;
position = "{363, -247}";
}
);
components = (
{
name = C;
}
);
layerId = UUID0;
paths = (
{
closed = 1;
nodes = (
"340 -247 OFFCURVE",
"374 -238 OFFCURVE",
"398 -220 CURVE SMOOTH",
"426 -199 OFFCURVE",
"439 -169 OFFCURVE",
"439 -145 CURVE SMOOTH",
"439 -108 OFFCURVE",
"411 -69 OFFCURVE",
"332 -55 CURVE",
"347 -97 LINE",
"384 17 LINE",
"341 17 LINE",
"314 -111 LINE",
"323 -118 LINE",
"362 -119 OFFCURVE",
"383 -132 OFFCURVE",
"384 -151 CURVE SMOOTH",
"386 -182 OFFCURVE",
"341 -209 OFFCURVE",
"287 -211 CURVE",
"294 -247 LINE"
);
}
);
width = 646;
},
{
anchors = (
{
name = _bottom;
position = "{374.5, 0}";
},
{
name = bottom;
position = "{374.5, -247}";
}
);
components = (
{
name = C;
}
);
layerId = "16643525-C5DD-48EC-8E99-463BF28F5E85";
paths = (
{
closed = 1;
nodes = (
"342 -247 OFFCURVE",
"380 -240 OFFCURVE",
"408 -221 CURVE SMOOTH",
"438 -201 OFFCURVE",
"455 -168 OFFCURVE",
"455 -139 CURVE SMOOTH",
"455 -88 OFFCURVE",
"410 -57 OFFCURVE",
"340 -48 CURVE",
"361 -97 LINE",
"399 17 LINE",
"344 17 LINE",
"317 -104 LINE",
"330 -118 LINE",
"361 -119 OFFCURVE",
"383 -128 OFFCURVE",
"382 -153 CURVE SMOOTH",
"380 -187 OFFCURVE",
"341 -205 OFFCURVE",
"294 -206 CURVE",
"303 -247 LINE"
);
}
);
width = 651;
}
);
leftKerningGroup = O;
rightKerningGroup = C;
unicode = 00C7;
},
{
glyphname = D;
layers = (
{
anchors = (
{
name = bottom;
position = "{328, 0}";
},
{
name = center;
position = "{183, 353}";
},
{
name = top;
position = "{329, 720}";
}
);
background = {
paths = (
{
closed = 1;
nodes = (
"90 -3 OFFCURVE",
"155 0 OFFCURVE",
"180 0 CURVE SMOOTH",
"230 0 OFFCURVE",
"282 -4 OFFCURVE",
"332 -4 CURVE SMOOTH",
"548 -4 OFFCURVE",
"677 141 OFFCURVE",
"677 352 CURVE SMOOTH",
"677 570 OFFCURVE",
"555 710 OFFCURVE",
"332 710 CURVE SMOOTH",
"266 710 OFFCURVE",
"226 705 OFFCURVE",
"162 705 CURVE SMOOTH",
"142 705 OFFCURVE",
"80 708 OFFCURVE",
"47 710 CURVE",
"42 656 LINE",
"155 638 LINE",
"114 674 LINE",
"117 656 OFFCURVE",
"128 590 OFFCURVE",
"128 568 CURVE SMOOTH",
"128 137 LINE SMOOTH",
"128 115 OFFCURVE",
"117 47 OFFCURVE",
"113 23 CURVE",
"155 68 LINE",
"40 45 LINE",
"45 -5 LINE"
);
},
{
closed = 1;
nodes = (
"226 58 OFFCURVE",
"219 108 OFFCURVE",
"219 167 CURVE SMOOTH",
"219 538 LINE SMOOTH",
"219 587 OFFCURVE",
"226 660 OFFCURVE",
"230 677 CURVE",
"211 650 LINE",
"235 650 OFFCURVE",
"277 650 OFFCURVE",
"333 650 CURVE SMOOTH",
"500 650 OFFCURVE",
"578 514 OFFCURVE",
"578 352 CURVE SMOOTH",
"578 189 OFFCURVE",
"500 55 OFFCURVE",
"333 55 CURVE SMOOTH",
"279 55 OFFCURVE",
"236 58 OFFCURVE",
"210 58 CURVE",
"228 36 LINE"
);
}
);
};
guideLines = (
{
position = "{272, 55}";
}
);
layerId = UUID0;
paths = (
{
closed = 1;
nodes = (
"90 -3 OFFCURVE",
"155 0 OFFCURVE",
"180 0 CURVE SMOOTH",
"230 0 OFFCURVE",
"282 -4 OFFCURVE",
"332 -4 CURVE SMOOTH",
"548 -4 OFFCURVE",
"677 141 OFFCURVE",
"677 352 CURVE SMOOTH",
"677 570 OFFCURVE",
"555 710 OFFCURVE",
"332 710 CURVE SMOOTH",
"266 710 OFFCURVE",
"225 705 OFFCURVE",
"161 705 CURVE SMOOTH",
"141 705 OFFCURVE",
"84 708 OFFCURVE",
"47 710 CURVE",
"42 656 LINE",
"155 638 LINE",
"114 674 LINE",
"117 656 OFFCURVE",
"128 590 OFFCURVE",
"128 568 CURVE SMOOTH",
"128 137 LINE SMOOTH",
"128 115 OFFCURVE",
"117 47 OFFCURVE",
"113 23 CURVE",
"155 68 LINE",
"40 45 LINE",
"45 -5 LINE"
);
},
{
closed = 1;
nodes = (
"226 58 OFFCURVE",
"219 108 OFFCURVE",
"219 167 CURVE SMOOTH",
"219 538 LINE SMOOTH",
"219 587 OFFCURVE",
"226 660 OFFCURVE",
"230 677 CURVE",
"211 650 LINE",
"235 650 OFFCURVE",
"277 650 OFFCURVE",
"333 650 CURVE SMOOTH",
"500 650 OFFCURVE",
"578 514 OFFCURVE",
"578 352 CURVE SMOOTH",
"578 189 OFFCURVE",
"500 55 OFFCURVE",
"333 55 CURVE SMOOTH",
"279 55 OFFCURVE",
"236 58 OFFCURVE",
"210 58 CURVE",
"228 36 LINE"
);
}
);
width = 730;
},
{
anchors = (
{
name = bottom;
position = "{329, 0}";
},
{
name = center;
position = "{185, 353}";
},
{
name = top;
position = "{331, 720}";
}
);
background = {
paths = (
{
closed = 1;
nodes = (
"35 -5 OFFCURVE",
"153 0 OFFCURVE",
"181 0 CURVE SMOOTH",
"231 0 OFFCURVE",
"289 -5 OFFCURVE",
"339 -5 CURVE SMOOTH",
"567 -5 OFFCURVE",
"690 142 OFFCURVE",
"690 352 CURVE SMOOTH",
"690 564 OFFCURVE",
"569 710 OFFCURVE",
"339 710 CURVE SMOOTH",
"285 710 OFFCURVE",
"209 705 OFFCURVE",
"155 705 CURVE SMOOTH",
"128 705 OFFCURVE",
"45 710 OFFCURVE",
"36 710 CURVE",
"31 640 LINE",
"155 619 LINE",
"94 676 LINE",
"98 648 OFFCURVE",
"108 577 OFFCURVE",
"108 549 CURVE SMOOTH",
"108 157 LINE SMOOTH",
"108 130 OFFCURVE",
"99 70 OFFCURVE",
"93 31 CURVE",
"155 83 LINE",
"30 60 LINE",
"35 -5 LINE"
);
},
{
closed = 1;
nodes = (
"253 51 OFFCURVE",
"247 139 OFFCURVE",
"247 187 CURVE SMOOTH",
"247 519 LINE SMOOTH",
"247 568 OFFCURVE",
"254 663 OFFCURVE",
"255 671 CURVE",
"225 630 LINE",
"243 630 OFFCURVE",
"294 633 OFFCURVE",
"329 633 CURVE SMOOTH",
"481 633 OFFCURVE",
"540 504 OFFCURVE",
"540 354 CURVE SMOOTH",
"540 198 OFFCURVE",
"482 72 OFFCURVE",
"328 72 CURVE SMOOTH",
"289 72 OFFCURVE",
"246 75 OFFCURVE",
"222 75 CURVE",
"256 35 LINE"
);
}
);
};
layerId = "16643525-C5DD-48EC-8E99-463BF28F5E85";
paths = (
{
closed = 1;
nodes = (
"83 -3 OFFCURVE",
"152 0 OFFCURVE",
"181 0 CURVE SMOOTH",
"231 0 OFFCURVE",
"289 -5 OFFCURVE",
"339 -5 CURVE SMOOTH",
"567 -5 OFFCURVE",
"690 142 OFFCURVE",
"690 352 CURVE SMOOTH",
"690 564 OFFCURVE",
"569 710 OFFCURVE",
"339 710 CURVE SMOOTH",
"285 710 OFFCURVE",
"209 705 OFFCURVE",
"155 705 CURVE SMOOTH",
"128 705 OFFCURVE",
"72 708 OFFCURVE",
"36 710 CURVE",
"31 640 LINE",
"155 619 LINE",
"94 676 LINE",
"98 648 OFFCURVE",
"108 577 OFFCURVE",
"108 549 CURVE SMOOTH",
"108 157 LINE SMOOTH",
"108 130 OFFCURVE",
"99 70 OFFCURVE",
"93 31 CURVE",
"155 83 LINE",
"30 60 LINE",
"35 -5 LINE"
);
},
{
closed = 1;
nodes = (
"253 51 OFFCURVE",
"247 139 OFFCURVE",
"247 187 CURVE SMOOTH",
"247 519 LINE SMOOTH",
"247 568 OFFCURVE",
"254 663 OFFCURVE",
"255 671 CURVE",
"225 630 LINE",
"243 630 OFFCURVE",
"294 633 OFFCURVE",
"329 633 CURVE SMOOTH",
"481 633 OFFCURVE",
"540 504 OFFCURVE",
"540 354 CURVE SMOOTH",
"540 198 OFFCURVE",
"482 72 OFFCURVE",
"328 72 CURVE SMOOTH",
"289 72 OFFCURVE",
"246 75 OFFCURVE",
"222 75 CURVE",
"256 35 LINE"
);
}
);
width = 729;
}
);
leftKerningGroup = H;
rightKerningGroup = O;
unicode = 0044;
},
{
glyphname = E;
layers = (
{
anchors = (
{
name = bottom;
position = "{306, 0}";
},
{
name = ogonek;
position = "{514, -4}";
},
{
name = top;
position = "{292, 720}";
}
);
background = {
paths = (
{
closed = 1;
nodes = (
"45 -5 OFFCURVE",
"155 0 OFFCURVE",
"180 0 CURVE SMOOTH",
"400 0 LINE SMOOTH",
"420 0 OFFCURVE",
"514 -4 OFFCURVE",
"514 -4 CURVE",
"533 14 LINE",
"548 165 LINE",
"493 170 LINE",
"491 154 OFFCURVE",
"481 117 OFFCURVE",
"478 103 CURVE SMOOTH",
"475 89 OFFCURVE",
"455 62 OFFCURVE",
"440 43 CURVE",
"472 69 LINE",
"454 65 OFFCURVE",
"410 57 OFFCURVE",
"370 57 CURVE SMOOTH",
"190 57 LINE",
"231 16 LINE",
"226 45 OFFCURVE",
"219 118 OFFCURVE",
"219 167 CURVE",
"219 538 LINE",
"219 586 OFFCURVE",
"226 660 OFFCURVE",
"229 675 CURVE",
"190 649 LINE",
"357 649 LINE SMOOTH",
"393 649 OFFCURVE",
"435 644 OFFCURVE",
"455 643 CURVE",
"420 665 LINE",
"434 651 OFFCURVE",
"456 621 OFFCURVE",
"458 610 CURVE",
"462 595 OFFCURVE",
"467 572 OFFCURVE",
"469 556 CURVE",
"527 561 LINE",
"520 692 LINE",
"501 710 LINE",
"501 710 OFFCURVE",
"407 705 OFFCURVE",
"387 705 CURVE SMOOTH",
"162 705 LINE SMOOTH",
"142 705 OFFCURVE",
"47 710 OFFCURVE",
"47 710 CURVE",
"42 656 LINE",
"155 638 LINE",
"114 681 LINE",
"119 644 OFFCURVE",
"128 590 OFFCURVE",
"128 568 CURVE SMOOTH",
"128 137 LINE SMOOTH",
"128 115 OFFCURVE",
"117 45 OFFCURVE",
"113 24 CURVE",
"155 68 LINE",
"40 45 LINE",
"45 -5 LINE"
);
},
{
closed = 1;
nodes = (
"452 271 LINE",
"452 271 OFFCURVE",
"449 330 OFFCURVE",
"449 380 CURVE SMOOTH",
"449 400 OFFCURVE",
"450 464 OFFCURVE",
"450 464 CURVE",
"404 469 LINE",
"390 364 LINE",
"421 404 LINE",
"407 402 OFFCURVE",
"363 394 OFFCURVE",
"335 394 CURVE SMOOTH",
"189 394 LINE",
"189 338 LINE",
"315 338 LINE SMOOTH",
"341 338 OFFCURVE",
"404 331 OFFCURVE",
"427 328 CURVE",
"390 368 LINE",
"404 265 LINE"
);
}
);
};
guideLines = (
{
position = "{180, 338}";
}
);
layerId = UUID0;
paths = (
{
closed = 1;
nodes = (
"90 -2 OFFCURVE",
"155 0 OFFCURVE",
"180 0 CURVE SMOOTH",
"400 0 LINE SMOOTH",
"418 0 OFFCURVE",
"476 -2 OFFCURVE",
"514 -4 CURVE",
"533 14 LINE",
"548 165 LINE",
"493 170 LINE",
"478 103 LINE SMOOTH",
"475 88 OFFCURVE",
"455 62 OFFCURVE",
"440 43 CURVE",
"472 69 LINE",
"454 65 OFFCURVE",
"410 57 OFFCURVE",
"370 57 CURVE SMOOTH",
"190 57 LINE",
"231 16 LINE",
"226 45 OFFCURVE",
"219 118 OFFCURVE",
"219 167 CURVE SMOOTH",
"219 538 LINE SMOOTH",
"219 564 OFFCURVE",
"224 629 OFFCURVE",
"229 675 CURVE",
"190 649 LINE",
"357 649 LINE SMOOTH",
"393 649 OFFCURVE",
"435 646 OFFCURVE",
"455 643 CURVE",
"420 665 LINE",
"435 651 OFFCURVE",
"456 620 OFFCURVE",
"458 610 CURVE SMOOTH",
"469 556 LINE",
"527 561 LINE",
"520 692 LINE",
"501 710 LINE",
"463 707 OFFCURVE",
"405 705 OFFCURVE",
"387 705 CURVE SMOOTH",
"162 705 LINE SMOOTH",
"142 705 OFFCURVE",
"84 708 OFFCURVE",
"47 710 CURVE",
"42 656 LINE",
"155 638 LINE",
"114 681 LINE",
"120 643 OFFCURVE",
"128 586 OFFCURVE",
"128 568 CURVE SMOOTH",
"128 137 LINE SMOOTH",
"128 115 OFFCURVE",
"117 45 OFFCURVE",
"113 24 CURVE",
"155 68 LINE",
"40 45 LINE",
"45 -5 LINE"
);
},
{
closed = 1;
nodes = (
"452 271 LINE",
"450 307 OFFCURVE",
"449 344 OFFCURVE",
"449 380 CURVE SMOOTH",
"449 464 LINE",
"404 469 LINE",
"390 364 LINE",
"421 404 LINE",
"407 402 OFFCURVE",
"363 394 OFFCURVE",
"335 394 CURVE SMOOTH",
"189 394 LINE",
"189 338 LINE",
"315 338 LINE SMOOTH",
"341 338 OFFCURVE",
"404 331 OFFCURVE",
"427 328 CURVE",
"390 368 LINE",
"404 265 LINE"
);
}
);
width = 599;
},
{
anchors = (
{
name = bottom;
position = "{314, 0}";
},
{
name = ogonek;
position = "{525, -4}";
},
{
name = top;
position = "{288, 720}";
}
);
background = {
paths = (
{
closed = 1;
nodes = (
"35 -5 OFFCURVE",
"153 0 OFFCURVE",
"181 0 CURVE SMOOTH",
"411 0 LINE SMOOTH",
"431 0 OFFCURVE",
"525 -4 OFFCURVE",
"525 -4 CURVE",
"544 14 LINE",
"559 184 LINE",
"493 189 LINE",
"493 185 OFFCURVE",
"483 138 OFFCURVE",
"480 129 CURVE SMOOTH",
"476 113 OFFCURVE",
"455 73 OFFCURVE",
"429 42 CURVE",
"482 93 LINE",
"467 89 OFFCURVE",
"425 80 OFFCURVE",
"381 80 CURVE SMOOTH",
"216 80 LINE",
"257 47 LINE",
"254 72 OFFCURVE",
"247 148 OFFCURVE",
"247 187 CURVE SMOOTH",
"247 519 LINE SMOOTH",
"247 569 OFFCURVE",
"255 654 OFFCURVE",
"255 656 CURVE",
"197 630 LINE",
"370 630 LINE SMOOTH",
"410 630 OFFCURVE",
"457 625 OFFCURVE",
"482 623 CURVE",
"427 675 LINE",
"440 647 OFFCURVE",
"455 615 OFFCURVE",
"462 590 CURVE",
"464 574 OFFCURVE",
"467 557 OFFCURVE",
"469 542 CURVE",
"537 547 LINE",
"530 692 LINE",
"511 710 LINE",
"494 709 OFFCURVE",
"419 705 OFFCURVE",
"397 705 CURVE SMOOTH",
"155 705 LINE SMOOTH",
"128 705 OFFCURVE",
"36 710 OFFCURVE",
"36 710 CURVE",
"31 640 LINE",
"155 619 LINE",
"93 671 LINE",
"98 640 OFFCURVE",
"108 575 OFFCURVE",
"108 549 CURVE SMOOTH",
"108 157 LINE SMOOTH",
"108 129 OFFCURVE",
"97 60 OFFCURVE",
"93 37 CURVE",
"155 83 LINE",
"30 60 LINE",
"35 -5 LINE"
);
},
{
closed = 1;
nodes = (
"455 260 LINE",
"455 260 OFFCURVE",
"452 333 OFFCURVE",
"452 382 CURVE SMOOTH",
"452 402 OFFCURVE",
"453 466 OFFCURVE",
"453 466 CURVE",
"395 471 LINE",
"381 367 LINE",
"414 409 LINE",
"395 403 OFFCURVE",
"361 397 OFFCURVE",
"338 397 CURVE SMOOTH",
"201 397 LINE",
"201 322 LINE",
"318 322 LINE SMOOTH",
"348 322 OFFCURVE",
"400 317 OFFCURVE",
"430 315 CURVE",
"381 352 LINE",
"395 254 LINE"
);
}
);
};
layerId = "16643525-C5DD-48EC-8E99-463BF28F5E85";
paths = (
{
closed = 1;
nodes = (
"84 -2 OFFCURVE",
"152 0 OFFCURVE",
"181 0 CURVE SMOOTH",
"411 0 LINE SMOOTH",
"439 0 OFFCURVE",
"487 -2 OFFCURVE",
"525 -4 CURVE",
"544 14 LINE",
"559 184 LINE",
"493 189 LINE",
"480 129 LINE SMOOTH",
"476 112 OFFCURVE",
"455 73 OFFCURVE",
"429 42 CURVE",
"482 93 LINE",
"467 89 OFFCURVE",
"425 80 OFFCURVE",
"381 80 CURVE SMOOTH",
"216 80 LINE",
"257 47 LINE",
"254 72 OFFCURVE",
"247 148 OFFCURVE",
"247 187 CURVE SMOOTH",
"247 519 LINE SMOOTH",
"247 545 OFFCURVE",
"250 610 OFFCURVE",
"255 656 CURVE",
"197 630 LINE",
"370 630 LINE SMOOTH",
"410 630 OFFCURVE",
"457 625 OFFCURVE",
"482 623 CURVE",
"427 675 LINE",
"441 647 OFFCURVE",
"460 603 OFFCURVE",
"462 590 CURVE SMOOTH",
"469 542 LINE",
"537 547 LINE",
"530 692 LINE",
"511 710 LINE",
"473 707 OFFCURVE",
"415 705 OFFCURVE",
"397 705 CURVE SMOOTH",
"155 705 LINE SMOOTH",
"128 705 OFFCURVE",
"72 708 OFFCURVE",
"36 710 CURVE",
"31 640 LINE",
"155 619 LINE",
"93 671 LINE",
"100 630 OFFCURVE",
"108 570 OFFCURVE",
"108 549 CURVE SMOOTH",
"108 157 LINE SMOOTH",
"108 129 OFFCURVE",
"97 60 OFFCURVE",
"93 37 CURVE",
"155 83 LINE",
"30 60 LINE",
"35 -5 LINE"
);
},
{
closed = 1;
nodes = (
"455 260 LINE",
"453 301 OFFCURVE",
"452 341 OFFCURVE",
"452 382 CURVE SMOOTH",
"452 466 LINE",
"395 471 LINE",
"381 367 LINE",
"414 409 LINE",
"395 403 OFFCURVE",
"361 397 OFFCURVE",
"338 397 CURVE SMOOTH",
"201 397 LINE",
"201 322 LINE",
"318 322 LINE SMOOTH",
"348 322 OFFCURVE",
"400 317 OFFCURVE",
"430 315 CURVE",
"381 352 LINE",
"395 254 LINE"
);
}
);
width = 598;
}
);
leftKerningGroup = H;
rightKerningGroup = E;
unicode = 0045;
},
{
glyphname = Eacute;
layers = (
{
anchors = (
{
name = top;
position = "{312, 995}";
}
);
components = (
{
name = E;
}
);
layerId = UUID0;
paths = (
{
closed = 1;
nodes = (
"448 845 LINE",
"418 908 LINE",
"195 794 LINE",
"213 753 LINE"
);
}
);
width = 599;
},
{
anchors = (
{
name = top;
position = "{298, 1015}";
}
);
components = (
{
name = E;
}
);
layerId = "16643525-C5DD-48EC-8E99-463BF28F5E85";
paths = (
{
closed = 1;
nodes = (
"443 831 LINE",
"409 907 LINE",
"173 804 LINE",
"198 752 LINE"
);
}
);
width = 598;
}
);
leftKerningGroup = H;
rightKerningGroup = E;
unicode = 00C9;
},
{
glyphname = Ecircumflex;
layers = (
{
anchors = (
{
name = top;
position = "{292, 995}";
}
);
components = (
{
name = E;
}
);
layerId = UUID0;
paths = (
{
closed = 1;
nodes = (
"465 789 LINE",
"325 879 LINE",
"284 879 LINE",
"251 840 LINE",
"442 753 LINE"
);
},
{
closed = 1;
nodes = (
"333 840 LINE",
"300 879 LINE",
"259 879 LINE",
"119 789 LINE",
"142 753 LINE"
);
}
);
width = 599;
},
{
anchors = (
{
name = top;
position = "{288, 1015}";
}
);
components = (
{
name = E;
}
);
layerId = "16643525-C5DD-48EC-8E99-463BF28F5E85";
paths = (
{
closed = 1;
nodes = (
"473 796 LINE",
"337 892 LINE",
"274 892 LINE",
"240 851 LINE",
"439 751 LINE"
);
},
{
closed = 1;
nodes = (
"336 851 LINE",
"302 892 LINE",
"239 892 LINE",
"103 797 LINE",
"137 752 LINE"
);
}
);
width = 598;
}
);
leftKerningGroup = H;
rightKerningGroup = E;
unicode = 00CA;
},
{
glyphname = Eth;
layers = (
{
anchors = (
{
name = _center;
position = "{183, 353}";
}
);
components = (
{
name = D;
}
);
layerId = UUID0;
paths = (
{
closed = 1;
nodes = (
"345 331 LINE",
"350 375 LINE",
"26 375 LINE",
"26 331 LINE"
);
}
);
width = 730;
},
{
anchors = (
{
name = _center;
position = "{185, 353}";
}
);
components = (
{
name = D;
}
);
layerId = "16643525-C5DD-48EC-8E99-463BF28F5E85";
paths = (
{
closed = 1;
nodes = (
"381 321 LINE",
"391 385 LINE",
"-21 385 LINE",
"-21 321 LINE"
);
}
);
width = 729;
}
);
leftKerningGroup = Eth;
rightKerningGroup = O;
unicode = 00D0;
},
{
glyphname = F;
layers = (
{
anchors = (
{
name = bottom;
position = "{284, 0}";
},
{
name = top;
position = "{284, 720}";
}
);
background = {
anchors = (
{
name = bottom;
position = "{284, 0}";
},
{
name = top;
position = "{284, 705}";
}
);
paths = (
{
closed = 1;
nodes = (
"45 -5 OFFCURVE",
"155 0 OFFCURVE",
"180 0 CURVE",
"319 0 LINE",
"326 54 LINE",
"190 64 LINE",
"231 24 LINE",
"227 45 OFFCURVE",
"219 115 OFFCURVE",
"219 167 CURVE",
"219 538 LINE",
"219 586 OFFCURVE",
"228 671 OFFCURVE",
"229 678 CURVE",
"190 649 LINE",
"357 649 LINE SMOOTH",
"393 649 OFFCURVE",
"435 644 OFFCURVE",
"455 643 CURVE",
"420 665 LINE",
"434 651 OFFCURVE",
"456 621 OFFCURVE",
"458 610 CURVE",
"462 595 OFFCURVE",
"467 572 OFFCURVE",
"469 556 CURVE",
"527 561 LINE",
"520 692 LINE",
"501 710 LINE",
"501 710 OFFCURVE",
"407 705 OFFCURVE",
"387 705 CURVE SMOOTH",
"162 705 LINE SMOOTH",
"142 705 OFFCURVE",
"47 710 OFFCURVE",
"47 710 CURVE",
"42 656 LINE",
"155 638 LINE",
"113 676 LINE",
"118 652 OFFCURVE",
"128 590 OFFCURVE",
"128 568 CURVE SMOOTH",
"128 137 LINE SMOOTH",
"128 115 OFFCURVE",
"118 52 OFFCURVE",
"112 20 CURVE",
"155 68 LINE",
"40 45 LINE",
"45 -5 LINE"
);
},
{
closed = 1;
nodes = (
"452 263 LINE",
"452 263 OFFCURVE",
"449 322 OFFCURVE",
"449 372 CURVE SMOOTH",
"449 392 OFFCURVE",
"450 456 OFFCURVE",
"450 456 CURVE",
"404 461 LINE",
"391 365 LINE",
"423 402 LINE",
"405 397 OFFCURVE",
"363 386 OFFCURVE",
"335 386 CURVE SMOOTH",
"185 386 LINE",
"185 330 LINE",
"315 330 LINE SMOOTH",
"341 330 OFFCURVE",
"410 323 OFFCURVE",
"428 320 CURVE",
"391 353 LINE",
"404 257 LINE"
);
}
);
};
layerId = UUID0;
paths = (
{
closed = 1;
nodes = (
"90 -3 OFFCURVE",
"155 0 OFFCURVE",
"180 0 CURVE SMOOTH",
"319 0 LINE",
"326 54 LINE",
"190 64 LINE",
"231 24 LINE",
"227 45 OFFCURVE",
"219 115 OFFCURVE",
"219 167 CURVE",
"219 538 LINE",
"219 586 OFFCURVE",
"228 671 OFFCURVE",
"229 678 CURVE",
"190 649 LINE",
"357 649 LINE SMOOTH",
"393 649 OFFCURVE",
"435 644 OFFCURVE",
"455 643 CURVE",
"420 665 LINE",
"434 651 OFFCURVE",
"456 621 OFFCURVE",
"458 610 CURVE",
"462 595 OFFCURVE",
"467 572 OFFCURVE",
"469 556 CURVE",
"527 561 LINE",
"520 692 LINE",
"501 710 LINE",
"482 709 OFFCURVE",
"407 705 OFFCURVE",
"387 705 CURVE SMOOTH",
"162 705 LINE SMOOTH",
"142 705 OFFCURVE",
"84 708 OFFCURVE",
"47 710 CURVE",
"42 656 LINE",
"155 638 LINE",
"113 676 LINE",
"118 652 OFFCURVE",
"128 590 OFFCURVE",
"128 568 CURVE SMOOTH",
"128 137 LINE SMOOTH",
"128 115 OFFCURVE",
"118 52 OFFCURVE",
"112 20 CURVE",
"155 68 LINE",
"40 45 LINE",
"45 -5 LINE"
);
},
{
closed = 1;
nodes = (
"452 263 LINE",
"452 263 OFFCURVE",
"449 322 OFFCURVE",
"449 372 CURVE SMOOTH",
"449 456 LINE",
"404 461 LINE",
"391 365 LINE",
"423 402 LINE",
"405 397 OFFCURVE",
"363 386 OFFCURVE",
"335 386 CURVE SMOOTH",
"185 386 LINE",
"185 330 LINE",
"315 330 LINE SMOOTH",
"341 330 OFFCURVE",
"410 323 OFFCURVE",
"428 320 CURVE",
"391 353 LINE",
"404 257 LINE"
);
}
);
width = 565;
},
{
anchors = (
{
name = bottom;
position = "{282, 0}";
},
{
name = top;
position = "{282, 720}";
}
);
background = {
paths = (
{
closed = 1;
nodes = (
"35 -5 OFFCURVE",
"153 0 OFFCURVE",
"181 0 CURVE SMOOTH",
"347 0 LINE",
"352 67 LINE",
"200 77 LINE",
"262 33 LINE",
"256 69 OFFCURVE",
"247 133 OFFCURVE",
"247 187 CURVE SMOOTH",
"247 519 LINE SMOOTH",
"247 564 OFFCURVE",
"254 641 OFFCURVE",
"255 656 CURVE",
"197 630 LINE",
"367 630 LINE SMOOTH",
"411 630 OFFCURVE",
"462 623 OFFCURVE",
"476 622 CURVE",
"434 652 LINE",
"447 628 OFFCURVE",
"456 610 OFFCURVE",
"459 599 CURVE SMOOTH",
"464 581 OFFCURVE",
"467 557 OFFCURVE",
"469 541 CURVE",
"537 546 LINE",
"530 692 LINE",
"511 710 LINE",
"511 710 OFFCURVE",
"417 705 OFFCURVE",
"397 705 CURVE SMOOTH",
"155 705 LINE SMOOTH",
"128 705 OFFCURVE",
"36 710 OFFCURVE",
"36 710 CURVE",
"31 640 LINE",
"155 619 LINE",
"95 664 LINE",
"99 630 OFFCURVE",
"108 577 OFFCURVE",
"108 549 CURVE SMOOTH",
"108 157 LINE SMOOTH",
"108 132 OFFCURVE",
"100 76 OFFCURVE",
"93 33 CURVE",
"155 83 LINE",
"30 60 LINE",
"35 -5 LINE"
);
},
{
closed = 1;
nodes = (
"455 250 LINE",
"455 250 OFFCURVE",
"452 322 OFFCURVE",
"452 372 CURVE SMOOTH",
"452 455 LINE",
"395 460 LINE",
"382 360 LINE",
"412 399 LINE",
"391 394 OFFCURVE",
"357 387 OFFCURVE",
"338 387 CURVE SMOOTH",
"193 387 LINE",
"193 311 LINE",
"318 311 LINE SMOOTH",
"348 311 OFFCURVE",
"396 306 OFFCURVE",
"423 304 CURVE",
"382 335 LINE",
"395 244 LINE"
);
}
);
};
layerId = "16643525-C5DD-48EC-8E99-463BF28F5E85";
paths = (
{
closed = 1;
nodes = (
"35 -5 OFFCURVE",
"153 0 OFFCURVE",
"181 0 CURVE SMOOTH",
"347 0 LINE",
"352 67 LINE",
"200 77 LINE",
"262 33 LINE",
"256 69 OFFCURVE",
"247 133 OFFCURVE",
"247 187 CURVE SMOOTH",
"247 519 LINE SMOOTH",
"247 564 OFFCURVE",
"254 641 OFFCURVE",
"255 656 CURVE",
"197 630 LINE",
"367 630 LINE SMOOTH",
"411 630 OFFCURVE",
"462 623 OFFCURVE",
"476 622 CURVE",
"434 652 LINE",
"447 628 OFFCURVE",
"456 610 OFFCURVE",
"459 599 CURVE SMOOTH",
"464 581 OFFCURVE",
"467 557 OFFCURVE",
"469 541 CURVE",
"537 546 LINE",
"530 692 LINE",
"511 710 LINE",
"476 708 OFFCURVE",
"417 705 OFFCURVE",
"397 705 CURVE SMOOTH",
"155 705 LINE SMOOTH",
"128 705 OFFCURVE",
"72 708 OFFCURVE",
"36 710 CURVE",
"31 640 LINE",
"155 619 LINE",
"95 664 LINE",
"99 630 OFFCURVE",
"108 577 OFFCURVE",
"108 549 CURVE SMOOTH",
"108 157 LINE SMOOTH",
"108 132 OFFCURVE",
"100 76 OFFCURVE",
"93 33 CURVE",
"155 83 LINE",
"30 60 LINE",
"35 -5 LINE"
);
},
{
closed = 1;
nodes = (
"455 250 LINE",
"455 250 OFFCURVE",
"452 322 OFFCURVE",
"452 372 CURVE SMOOTH",
"452 455 LINE",
"395 460 LINE",
"382 360 LINE",
"412 399 LINE",
"391 394 OFFCURVE",
"357 387 OFFCURVE",
"338 387 CURVE SMOOTH",
"193 387 LINE",
"193 311 LINE",
"318 311 LINE SMOOTH",
"348 311 OFFCURVE",
"396 306 OFFCURVE",
"423 304 CURVE",
"382 335 LINE",
"395 244 LINE"
);
}
);
width = 563;
}
);
leftKerningGroup = H;
rightKerningGroup = F;
unicode = 0046;
},
{
glyphname = G;
layers = (
{
anchors = (
{
name = bottom;
position = "{405, 0}";
},
{
name = top;
position = "{403, 720}";
}
);
background = {
paths = (
{
closed = 1;
nodes = (
"475 -15 OFFCURVE",
"551 3 OFFCURVE",
"618 19 CURVE",
"618 166 LINE SMOOTH",
"618 216 OFFCURVE",
"627 319 OFFCURVE",
"627 319 CURVE",
"609 336 LINE",
"609 336 OFFCURVE",
"558 333 OFFCURVE",
"538 333 CURVE",
"427 333 LINE",
"422 275 LINE",
"564 264 LINE",
"527 298 LINE",
"530 276 OFFCURVE",
"538 223 OFFCURVE",
"538 196 CURVE SMOOTH",
"538 128 LINE SMOOTH",
"538 113 OFFCURVE",
"527 66 OFFCURVE",
"520 36 CURVE",
"548 70 LINE",
"500 54 OFFCURVE",
"433 43 OFFCURVE",
"386 43 CURVE SMOOTH",
"231 43 OFFCURVE",
"156 180 OFFCURVE",
"156 353 CURVE SMOOTH",
"156 526 OFFCURVE",
"231 662 OFFCURVE",
"386 662 CURVE SMOOTH",
"436 662 OFFCURVE",
"503 648 OFFCURVE",
"549 632 CURVE",
"520 665 LINE",
"527 641 OFFCURVE",
"540 602 OFFCURVE",
"540 589 CURVE SMOOTH",
"540 542 LINE",
"599 538 LINE",
"609 686 LINE",
"542 702 OFFCURVE",
"476 720 OFFCURVE",
"389 720 CURVE SMOOTH",
"168 720 OFFCURVE",
"55 570 OFFCURVE",
"55 352 CURVE SMOOTH",
"55 134 OFFCURVE",
"168 -15 OFFCURVE",
"389 -15 CURVE SMOOTH"
);
}
);
};
layerId = UUID0;
paths = (
{
closed = 1;
nodes = (
"475 -15 OFFCURVE",
"551 3 OFFCURVE",
"618 19 CURVE",
"618 166 LINE SMOOTH",
"618 207 OFFCURVE",
"623 268 OFFCURVE",
"627 319 CURVE",
"609 336 LINE",
"585 335 OFFCURVE",
"552 333 OFFCURVE",
"538 333 CURVE SMOOTH",
"427 333 LINE",
"422 275 LINE",
"564 264 LINE",
"527 298 LINE",
"530 276 OFFCURVE",
"538 223 OFFCURVE",
"538 196 CURVE SMOOTH",
"538 128 LINE SMOOTH",
"538 113 OFFCURVE",
"527 66 OFFCURVE",
"520 36 CURVE",
"548 70 LINE",
"500 54 OFFCURVE",
"433 43 OFFCURVE",
"386 43 CURVE SMOOTH",
"231 43 OFFCURVE",
"156 180 OFFCURVE",
"156 353 CURVE SMOOTH",
"156 526 OFFCURVE",
"231 662 OFFCURVE",
"386 662 CURVE SMOOTH",
"436 662 OFFCURVE",
"503 648 OFFCURVE",
"549 632 CURVE",
"520 665 LINE",
"527 641 OFFCURVE",
"540 602 OFFCURVE",
"540 589 CURVE SMOOTH",
"540 542 LINE",
"599 538 LINE",
"609 686 LINE",
"542 702 OFFCURVE",
"476 720 OFFCURVE",
"389 720 CURVE SMOOTH",
"168 720 OFFCURVE",
"55 570 OFFCURVE",
"55 352 CURVE SMOOTH",
"55 134 OFFCURVE",
"168 -15 OFFCURVE",
"389 -15 CURVE SMOOTH"
);
}
);
width = 693;
},
{
anchors = (
{
name = bottom;
position = "{404, 0}";
},
{
name = top;
position = "{402, 720}";
}
);
background = {
paths = (
{
closed = 1;
nodes = (
"488 -15 OFFCURVE",
"566 3 OFFCURVE",
"635 19 CURVE",
"635 189 LINE SMOOTH",
"635 238 OFFCURVE",
"644 336 OFFCURVE",
"644 336 CURVE",
"618 359 LINE",
"618 359 OFFCURVE",
"544 356 OFFCURVE",
"514 356 CURVE",
"403 356 LINE",
"398 268 LINE",
"560 255 LINE",
"499 301 LINE",
"504 276 OFFCURVE",
"514 229 OFFCURVE",
"514 196 CURVE SMOOTH",
"514 128 LINE SMOOTH",
"514 111 OFFCURVE",
"502 65 OFFCURVE",
"495 34 CURVE",
"544 87 LINE",
"491 76 OFFCURVE",
"445 69 OFFCURVE",
"397 69 CURVE SMOOTH",
"258 69 OFFCURVE",
"200 195 OFFCURVE",
"200 353 CURVE SMOOTH",
"200 511 OFFCURVE",
"259 636 OFFCURVE",
"398 636 CURVE SMOOTH",
"450 636 OFFCURVE",
"514 625 OFFCURVE",
"562 610 CURVE",
"522 651 LINE",
"533 613 OFFCURVE",
"539 583 OFFCURVE",
"539 576 CURVE SMOOTH",
"541 519 LINE",
"613 515 LINE",
"625 686 LINE",
"561 703 OFFCURVE",
"486 720 OFFCURVE",
"399 720 CURVE SMOOTH",
"162 720 OFFCURVE",
"40 570 OFFCURVE",
"40 352 CURVE SMOOTH",
"40 134 OFFCURVE",
"162 -15 OFFCURVE",
"399 -15 CURVE SMOOTH"
);
}
);
};
layerId = "16643525-C5DD-48EC-8E99-463BF28F5E85";
paths = (
{
closed = 1;
nodes = (
"488 -15 OFFCURVE",
"566 3 OFFCURVE",
"635 19 CURVE",
"635 189 LINE SMOOTH",
"635 218 OFFCURVE",
"640 287 OFFCURVE",
"644 336 CURVE",
"618 359 LINE",
"583 358 OFFCURVE",
"531 356 OFFCURVE",
"514 356 CURVE SMOOTH",
"403 356 LINE",
"398 268 LINE",
"560 255 LINE",
"499 301 LINE",
"504 276 OFFCURVE",
"514 229 OFFCURVE",
"514 196 CURVE SMOOTH",
"514 128 LINE SMOOTH",
"514 111 OFFCURVE",
"502 65 OFFCURVE",
"495 34 CURVE",
"544 87 LINE",
"491 76 OFFCURVE",
"445 69 OFFCURVE",
"397 69 CURVE SMOOTH",
"258 69 OFFCURVE",
"200 195 OFFCURVE",
"200 353 CURVE SMOOTH",
"200 511 OFFCURVE",
"259 636 OFFCURVE",
"398 636 CURVE SMOOTH",
"450 636 OFFCURVE",
"514 625 OFFCURVE",
"562 610 CURVE",
"522 651 LINE",
"533 613 OFFCURVE",
"539 583 OFFCURVE",
"539 576 CURVE SMOOTH",
"541 519 LINE",
"613 515 LINE",
"625 686 LINE",
"561 703 OFFCURVE",
"486 720 OFFCURVE",
"399 720 CURVE SMOOTH",
"162 720 OFFCURVE",
"40 570 OFFCURVE",
"40 352 CURVE SMOOTH",
"40 134 OFFCURVE",
"162 -15 OFFCURVE",
"399 -15 CURVE SMOOTH"
);
}
);
width = 698;
}
);
leftKerningGroup = O;
rightKerningGroup = G;
unicode = 0047;
},
{
glyphname = H;
layers = (
{
anchors = (
{
name = bottom;
position = "{385, 0}";
},
{
name = center;
position = "{385, 520}";
},
{
name = top;
position = "{385, 720}";
}
);
background = {
paths = (
{
closed = 1;
nodes = (
"522 -2 OFFCURVE",
"567 0 OFFCURVE",
"602 0 CURVE SMOOTH",
"731 0 LINE",
"738 54 LINE",
"612 64 LINE",
"653 28 LINE",
"648 53 OFFCURVE",
"641 115 OFFCURVE",
"641 167 CURVE SMOOTH",
"641 538 LINE SMOOTH",
"641 590 OFFCURVE",
"648 652 OFFCURVE",
"651 677 CURVE",
"612 641 LINE",
"726 651 LINE",
"722 710 LINE",
"666 707 OFFCURVE",
"620 705 OFFCURVE",
"584 705 CURVE SMOOTH",
"556 705 OFFCURVE",
"517 707 OFFCURVE",
"469 710 CURVE",
"464 656 LINE",
"577 638 LINE",
"536 677 LINE",
"540 657 OFFCURVE",
"550 590 OFFCURVE",
"550 568 CURVE SMOOTH",
"550 137 LINE SMOOTH",
"550 115 OFFCURVE",
"541 57 OFFCURVE",
"535 28 CURVE",
"577 68 LINE",
"462 45 LINE",
"467 -5 LINE"
);
},
{
closed = 1;
nodes = (
"100 -2 OFFCURVE",
"145 0 OFFCURVE",
"180 0 CURVE SMOOTH",
"309 0 LINE",
"316 54 LINE",
"190 64 LINE",
"231 28 LINE",
"226 54 OFFCURVE",
"219 115 OFFCURVE",
"219 167 CURVE SMOOTH",
"219 538 LINE SMOOTH",
"219 590 OFFCURVE",
"227 658 OFFCURVE",
"230 677 CURVE",
"190 641 LINE",
"304 651 LINE",
"300 710 LINE",
"244 707 OFFCURVE",
"198 705 OFFCURVE",
"162 705 CURVE SMOOTH",
"134 705 OFFCURVE",
"95 707 OFFCURVE",
"47 710 CURVE",
"42 656 LINE",
"155 638 LINE",
"114 677 LINE",
"118 656 OFFCURVE",
"128 590 OFFCURVE",
"128 568 CURVE SMOOTH",
"128 137 LINE SMOOTH",
"128 115 OFFCURVE",
"117 46 OFFCURVE",
"114 28 CURVE",
"155 68 LINE",
"40 45 LINE",
"45 -5 LINE"
);
},
{
closed = 1;
nodes = (
"605 327 LINE",
"605 383 LINE",
"164 378 LINE",
"164 327 LINE"
);
}
);
};
layerId = UUID0;
paths = (
{
closed = 1;
nodes = (
"522 -2 OFFCURVE",
"567 0 OFFCURVE",
"602 0 CURVE SMOOTH",
"731 0 LINE",
"738 54 LINE",
"612 64 LINE",
"653 28 LINE",
"648 53 OFFCURVE",
"641 115 OFFCURVE",
"641 167 CURVE SMOOTH",
"641 538 LINE SMOOTH",
"641 590 OFFCURVE",
"648 652 OFFCURVE",
"651 677 CURVE",
"612 641 LINE",
"726 651 LINE",
"722 710 LINE",
"666 707 OFFCURVE",
"620 705 OFFCURVE",
"584 705 CURVE SMOOTH",
"564 705 OFFCURVE",
"506 708 OFFCURVE",
"469 710 CURVE",
"464 656 LINE",
"577 638 LINE",
"536 677 LINE",
"540 657 OFFCURVE",
"550 590 OFFCURVE",
"550 568 CURVE SMOOTH",
"550 137 LINE SMOOTH",
"550 115 OFFCURVE",
"541 57 OFFCURVE",
"535 28 CURVE",
"577 68 LINE",
"462 45 LINE",
"467 -5 LINE"
);
},
{
closed = 1;
nodes = (
"100 -2 OFFCURVE",
"145 0 OFFCURVE",
"180 0 CURVE SMOOTH",
"309 0 LINE",
"316 54 LINE",
"190 64 LINE",
"231 28 LINE",
"226 54 OFFCURVE",
"219 115 OFFCURVE",
"219 167 CURVE SMOOTH",
"219 538 LINE SMOOTH",
"219 590 OFFCURVE",
"227 658 OFFCURVE",
"230 677 CURVE",
"190 641 LINE",
"304 651 LINE",
"300 710 LINE",
"244 707 OFFCURVE",
"198 705 OFFCURVE",
"162 705 CURVE SMOOTH",
"142 705 OFFCURVE",
"84 708 OFFCURVE",
"47 710 CURVE",
"42 656 LINE",
"155 638 LINE",
"114 677 LINE",
"118 656 OFFCURVE",
"128 590 OFFCURVE",
"128 568 CURVE SMOOTH",
"128 137 LINE SMOOTH",
"128 115 OFFCURVE",
"117 46 OFFCURVE",
"114 28 CURVE",
"155 68 LINE",
"40 45 LINE",
"45 -5 LINE"
);
},
{
closed = 1;
nodes = (
"605 327 LINE",
"605 383 LINE",
"164 378 LINE",
"164 327 LINE"
);
}
);
width = 777;
},
{
anchors = (
{
name = bottom;
position = "{393, 0}";
},
{
name = center;
position = "{394, 520}";
},
{
name = top;
position = "{393, 720}";
}
);
background = {
paths = (
{
closed = 1;
nodes = (
"524 -2 OFFCURVE",
"572 0 OFFCURVE",
"611 0 CURVE SMOOTH",
"751 0 LINE",
"757 67 LINE",
"629 78 LINE",
"692 25 LINE",
"686 54 OFFCURVE",
"677 134 OFFCURVE",
"677 187 CURVE SMOOTH",
"677 519 LINE SMOOTH",
"677 572 OFFCURVE",
"683 618 OFFCURVE",
"690 663 CURVE",
"629 623 LINE",
"754 635 LINE",
"750 710 LINE",
"685 707 OFFCURVE",
"630 705 OFFCURVE",
"585 705 CURVE SMOOTH",
"555 705 OFFCURVE",
"516 707 OFFCURVE",
"466 710 CURVE",
"461 640 LINE",
"584 619 LINE",
"524 663 LINE",
"528 639 OFFCURVE",
"538 574 OFFCURVE",
"538 549 CURVE SMOOTH",
"538 157 LINE SMOOTH",
"538 128 OFFCURVE",
"526 55 OFFCURVE",
"521 25 CURVE",
"584 83 LINE",
"460 60 LINE",
"465 -5 LINE"
);
},
{
closed = 1;
nodes = (
"94 -2 OFFCURVE",
"142 0 OFFCURVE",
"181 0 CURVE SMOOTH",
"322 0 LINE",
"327 67 LINE",
"200 78 LINE",
"262 25 LINE",
"257 52 OFFCURVE",
"247 131 OFFCURVE",
"247 187 CURVE SMOOTH",
"247 519 LINE SMOOTH",
"247 569 OFFCURVE",
"255 629 OFFCURVE",
"262 669 CURVE",
"200 623 LINE",
"325 635 LINE",
"320 710 LINE",
"255 707 OFFCURVE",
"200 705 OFFCURVE",
"155 705 CURVE SMOOTH",
"125 705 OFFCURVE",
"86 707 OFFCURVE",
"36 710 CURVE",
"31 640 LINE",
"155 619 LINE",
"92 667 LINE",
"100 632 OFFCURVE",
"108 576 OFFCURVE",
"108 549 CURVE SMOOTH",
"108 157 LINE SMOOTH",
"108 127 OFFCURVE",
"97 56 OFFCURVE",
"92 25 CURVE",
"155 83 LINE",
"30 60 LINE",
"35 -5 LINE"
);
},
{
closed = 1;
nodes = (
"593 308 LINE",
"593 391 LINE",
"192 386 LINE",
"192 308 LINE"
);
}
);
};
layerId = "16643525-C5DD-48EC-8E99-463BF28F5E85";
paths = (
{
closed = 1;
nodes = (
"524 -2 OFFCURVE",
"572 0 OFFCURVE",
"611 0 CURVE SMOOTH",
"751 0 LINE",
"757 67 LINE",
"629 78 LINE",
"692 25 LINE",
"686 54 OFFCURVE",
"677 134 OFFCURVE",
"677 187 CURVE SMOOTH",
"677 519 LINE SMOOTH",
"677 572 OFFCURVE",
"683 618 OFFCURVE",
"690 663 CURVE",
"629 623 LINE",
"754 635 LINE",
"750 710 LINE",
"685 707 OFFCURVE",
"630 705 OFFCURVE",
"585 705 CURVE SMOOTH",
"558 705 OFFCURVE",
"502 708 OFFCURVE",
"466 710 CURVE",
"461 640 LINE",
"584 619 LINE",
"524 663 LINE",
"528 639 OFFCURVE",
"538 574 OFFCURVE",
"538 549 CURVE SMOOTH",
"538 157 LINE SMOOTH",
"538 128 OFFCURVE",
"526 55 OFFCURVE",
"521 25 CURVE",
"584 83 LINE",
"460 60 LINE",
"465 -5 LINE"
);
},
{
closed = 1;
nodes = (
"94 -2 OFFCURVE",
"142 0 OFFCURVE",
"181 0 CURVE SMOOTH",
"322 0 LINE",
"327 67 LINE",
"200 78 LINE",
"262 25 LINE",
"257 52 OFFCURVE",
"247 131 OFFCURVE",
"247 187 CURVE SMOOTH",
"247 519 LINE SMOOTH",
"247 569 OFFCURVE",
"255 629 OFFCURVE",
"262 669 CURVE",
"200 623 LINE",
"325 635 LINE",
"320 710 LINE",
"255 707 OFFCURVE",
"200 705 OFFCURVE",
"155 705 CURVE SMOOTH",
"128 705 OFFCURVE",
"72 708 OFFCURVE",
"36 710 CURVE",
"31 640 LINE",
"155 619 LINE",
"92 667 LINE",
"100 632 OFFCURVE",
"108 576 OFFCURVE",
"108 549 CURVE SMOOTH",
"108 157 LINE SMOOTH",
"108 127 OFFCURVE",
"97 56 OFFCURVE",
"92 25 CURVE",
"155 83 LINE",
"30 60 LINE",
"35 -5 LINE"
);
},
{
closed = 1;
nodes = (
"593 308 LINE",
"593 391 LINE",
"192 386 LINE",
"192 308 LINE"
);
}
);
width = 787;
}
);
leftKerningGroup = H;
rightKerningGroup = H;
unicode = 0048;
},
{
glyphname = I;
layers = (
{
anchors = (
{
name = bottom;
position = "{182, 0}";
},
{
name = ogonek;
position = "{310, 0}";
},
{
name = top;
position = "{174, 720}";
}
);
background = {
paths = (
{
closed = 1;
nodes = (
"45 -5 OFFCURVE",
"155 0 OFFCURVE",
"180 0 CURVE",
"309 0 LINE",
"316 54 LINE",
"190 64 LINE",
"231 28 LINE",
"226 54 OFFCURVE",
"219 115 OFFCURVE",
"219 167 CURVE SMOOTH",
"219 538 LINE SMOOTH",
"219 590 OFFCURVE",
"227 658 OFFCURVE",
"230 677 CURVE",
"190 641 LINE",
"304 651 LINE",
"300 710 LINE",
"300 710 OFFCURVE",
"222 705 OFFCURVE",
"162 705 CURVE SMOOTH",
"142 705 OFFCURVE",
"47 710 OFFCURVE",
"47 710 CURVE",
"42 656 LINE",
"155 638 LINE",
"114 677 LINE",
"118 656 OFFCURVE",
"128 590 OFFCURVE",
"128 568 CURVE SMOOTH",
"128 137 LINE SMOOTH",
"128 115 OFFCURVE",
"117 46 OFFCURVE",
"114 28 CURVE",
"155 68 LINE",
"40 45 LINE",
"45 -5 LINE"
);
}
);
};
layerId = UUID0;
paths = (
{
closed = 1;
nodes = (
"90 -2 OFFCURVE",
"135 0 OFFCURVE",
"180 0 CURVE SMOOTH",
"309 0 LINE",
"316 54 LINE",
"190 64 LINE",
"231 28 LINE",
"226 54 OFFCURVE",
"219 115 OFFCURVE",
"219 167 CURVE SMOOTH",
"219 538 LINE SMOOTH",
"219 590 OFFCURVE",
"227 658 OFFCURVE",
"230 677 CURVE",
"190 641 LINE",
"304 651 LINE",
"300 710 LINE",
"254 707 OFFCURVE",
"208 705 OFFCURVE",
"162 705 CURVE SMOOTH",
"142 705 OFFCURVE",
"84 708 OFFCURVE",
"47 710 CURVE",
"42 656 LINE",
"155 638 LINE",
"114 677 LINE",
"118 656 OFFCURVE",
"128 590 OFFCURVE",
"128 568 CURVE SMOOTH",
"128 137 LINE SMOOTH",
"128 115 OFFCURVE",
"117 46 OFFCURVE",
"114 28 CURVE",
"155 68 LINE",
"40 45 LINE",
"45 -5 LINE"
);
}
);
width = 355;
},
{
anchors = (
{
name = bottom;
position = "{177, 0}";
},
{
name = ogonek;
position = "{318, 0}";
},
{
name = top;
position = "{175, 720}";
}
);
background = {
paths = (
{
closed = 1;
nodes = (
"35 -5 OFFCURVE",
"153 0 OFFCURVE",
"181 0 CURVE",
"322 0 LINE",
"327 67 LINE",
"200 78 LINE",
"262 25 LINE",
"257 52 OFFCURVE",
"247 131 OFFCURVE",
"247 187 CURVE SMOOTH",
"247 519 LINE SMOOTH",
"247 569 OFFCURVE",
"255 629 OFFCURVE",
"262 669 CURVE",
"200 623 LINE",
"325 635 LINE",
"320 710 LINE",
"320 710 OFFCURVE",
"230 705 OFFCURVE",
"155 705 CURVE SMOOTH",
"128 705 OFFCURVE",
"36 710 OFFCURVE",
"36 710 CURVE",
"31 640 LINE",
"155 619 LINE",
"92 667 LINE",
"100 632 OFFCURVE",
"108 576 OFFCURVE",
"108 549 CURVE SMOOTH",
"108 157 LINE SMOOTH",
"108 127 OFFCURVE",
"97 56 OFFCURVE",
"92 25 CURVE",
"155 83 LINE",
"30 60 LINE",
"35 -5 LINE"
);
}
);
};
layerId = "16643525-C5DD-48EC-8E99-463BF28F5E85";
paths = (
{
closed = 1;
nodes = (
"84 -2 OFFCURVE",
"132 0 OFFCURVE",
"181 0 CURVE SMOOTH",
"322 0 LINE",
"327 67 LINE",
"200 78 LINE",
"262 25 LINE",
"257 52 OFFCURVE",
"247 131 OFFCURVE",
"247 187 CURVE SMOOTH",
"247 519 LINE SMOOTH",
"247 569 OFFCURVE",
"255 629 OFFCURVE",
"262 669 CURVE",
"200 623 LINE",
"325 635 LINE",
"320 710 LINE",
"265 707 OFFCURVE",
"210 705 OFFCURVE",
"155 705 CURVE SMOOTH",
"128 705 OFFCURVE",
"72 708 OFFCURVE",
"36 710 CURVE",
"31 640 LINE",
"155 619 LINE",
"92 667 LINE",
"100 632 OFFCURVE",
"108 576 OFFCURVE",
"108 549 CURVE SMOOTH",
"108 157 LINE SMOOTH",
"108 127 OFFCURVE",
"97 56 OFFCURVE",
"92 25 CURVE",
"155 83 LINE",
"30 60 LINE",
"35 -5 LINE"
);
}
);
width = 357;
}
);
leftKerningGroup = H;
rightKerningGroup = H;
unicode = 0049;
},
{
glyphname = IJ;
layers = (
{
background = {
paths = (
{
closed = 1;
nodes = (
"326 656 LINE",
"223 644 LINE",
"221 630 OFFCURVE",
"216 580 OFFCURVE",
"216 538 CURVE SMOOTH",
"216 167 LINE SMOOTH",
"216 125 OFFCURVE",
"221 75 OFFCURVE",
"223 61 CURVE",
"313 54 LINE",
"307 0 LINE",
"160 0 LINE",
"140 0 OFFCURVE",
"42 -5 OFFCURVE",
"42 -5 CURVE",
"37 45 LINE",
"116 61 LINE",
"118 74 OFFCURVE",
"125 120 OFFCURVE",
"125 137 CURVE SMOOTH",
"125 568 LINE SMOOTH",
"125 585 OFFCURVE",
"118 631 OFFCURVE",
"116 644 CURVE",
"39 656 LINE",
"44 710 LINE",
"44 710 OFFCURVE",
"140 705 OFFCURVE",
"160 705 CURVE SMOOTH",
"326 705 LINE"
);
},
{
closed = 1;
nodes = (
"326 705 LINE",
"326 656 LINE",
"429 644 LINE",
"431 631 OFFCURVE",
"438 585 OFFCURVE",
"438 568 CURVE SMOOTH",
"438 11 LINE SMOOTH",
"438 -9 OFFCURVE",
"358 -178 OFFCURVE",
"358 -178 CURVE",
"392 -200 LINE",
"439 -144 OFFCURVE",
"529 -37 OFFCURVE",
"529 -10 CURVE SMOOTH",
"529 538 LINE SMOOTH",
"529 580 OFFCURVE",
"534 630 OFFCURVE",
"536 644 CURVE",
"614 651 LINE",
"610 710 LINE",
"610 710 OFFCURVE",
"532 705 OFFCURVE",
"472 705 CURVE"
);
}
);
};
components = (
{
name = I;
},
{
name = J;
transform = "{1, 0, 0, 1, 355, 0}";
}
);
layerId = UUID0;
width = 678;
},
{
background = {
paths = (
{
closed = 1;
nodes = (
"345 632 LINE",
"262 623 LINE",
"259 609 OFFCURVE",
"253 562 OFFCURVE",
"253 542 CURVE SMOOTH",
"253 193 LINE SMOOTH",
"253 143 OFFCURVE",
"261 86 OFFCURVE",
"262 77 CURVE",
"327 71 LINE",
"322 0 LINE",
"178 0 LINE",
"148 0 OFFCURVE",
"28 -5 OFFCURVE",
"28 -5 CURVE",
"23 65 LINE",
"89 77 LINE",
"91 91 OFFCURVE",
"98 143 OFFCURVE",
"98 163 CURVE SMOOTH",
"98 512 LINE SMOOTH",
"98 562 OFFCURVE",
"92 604 OFFCURVE",
"89 623 CURVE",
"24 635 LINE",
"29 710 LINE",
"29 710 OFFCURVE",
"100 705 OFFCURVE",
"147 705 CURVE SMOOTH",
"345 705 LINE"
);
},
{
closed = 1;
nodes = (
"457 705 OFFCURVE",
"345 705 OFFCURVE",
"345 705 CURVE",
"345 632 LINE",
"427 623 LINE",
"430 608 OFFCURVE",
"436 562 OFFCURVE",
"436 512 CURVE SMOOTH",
"436 11 LINE SMOOTH",
"436 -9 OFFCURVE",
"360 -169 OFFCURVE",
"360 -169 CURVE",
"414 -200 LINE",
"510 -111 OFFCURVE",
"591 -23 OFFCURVE",
"591 10 CURVE SMOOTH",
"591 542 LINE SMOOTH",
"591 562 OFFCURVE",
"598 614 OFFCURVE",
"600 623 CURVE",
"666 629 LINE",
"661 710 LINE",
"661 710 OFFCURVE",
"567 705 OFFCURVE",
"487 705 CURVE SMOOTH"
);
}
);
};
components = (
{
name = I;
},
{
name = J;
transform = "{1, 0, 0, 1, 357, 0}";
}
);
layerId = "16643525-C5DD-48EC-8E99-463BF28F5E85";
width = 689;
}
);
leftKerningGroup = H;
rightKerningGroup = J;
unicode = 0132;
},
{
glyphname = Iacute;
layers = (
{
anchors = (
{
name = top;
position = "{194, 995}";
}
);
components = (
{
name = I;
}
);
layerId = UUID0;
paths = (
{
closed = 1;
nodes = (
"330 845 LINE",
"300 908 LINE",
"77 794 LINE",
"95 753 LINE"
);
}
);
width = 355;
},
{
anchors = (
{
name = top;
position = "{185, 1015}";
}
);
components = (
{
name = I;
}
);
layerId = "16643525-C5DD-48EC-8E99-463BF28F5E85";
paths = (
{
closed = 1;
nodes = (
"330 831 LINE",
"296 907 LINE",
"60 804 LINE",
"85 752 LINE"
);
}
);
width = 357;
}
);
leftKerningGroup = H;
rightKerningGroup = H;
unicode = 00CD;
},
{
glyphname = Icircumflex;
layers = (
{
anchors = (
{
name = top;
position = "{174, 995}";
}
);
components = (
{
name = I;
}
);
layerId = UUID0;
paths = (
{
closed = 1;
nodes = (
"347 789 LINE",
"207 879 LINE",
"166 879 LINE",
"133 840 LINE",
"324 753 LINE"
);
},
{
closed = 1;
nodes = (
"215 840 LINE",
"182 879 LINE",
"141 879 LINE",
"1 789 LINE",
"24 753 LINE"
);
}
);
width = 355;
},
{
anchors = (
{
name = top;
position = "{175, 1015}";
}
);
components = (
{
name = I;
}
);
layerId = "16643525-C5DD-48EC-8E99-463BF28F5E85";
paths = (
{
closed = 1;
nodes = (
"360 796 LINE",
"224 892 LINE",
"161 892 LINE",
"127 851 LINE",
"326 751 LINE"
);
},
{
closed = 1;
nodes = (
"223 851 LINE",
"189 892 LINE",
"126 892 LINE",
"-10 797 LINE",
"24 752 LINE"
);
}
);
width = 357;
}
);
leftKerningGroup = H;
rightKerningGroup = H;
unicode = 00CE;
},
{
glyphname = Itilde;
layers = (
{
anchors = (
{
name = top;
position = "{174, 995}";
}
);
components = (
{
name = I;
}
);
layerId = UUID0;
paths = (
{
closed = 1;
nodes = (
"42 748 OFFCURVE",
"68 802 OFFCURVE",
"95 802 CURVE SMOOTH",
"135 802 OFFCURVE",
"219 761 OFFCURVE",
"259 761 CURVE SMOOTH",
"299 761 OFFCURVE",
"342 859 OFFCURVE",
"342 859 CURVE",
"306 880 LINE",
"306 880 OFFCURVE",
"280 829 OFFCURVE",
"253 829 CURVE SMOOTH",
"213 829 OFFCURVE",
"128 870 OFFCURVE",
"88 870 CURVE SMOOTH",
"48 870 OFFCURVE",
"6 769 OFFCURVE",
"6 769 CURVE",
"42 748 LINE"
);
}
);
width = 355;
},
{
anchors = (
{
name = top;
position = "{175, 1015}";
}
);
components = (
{
name = I;
}
);
layerId = "16643525-C5DD-48EC-8E99-463BF28F5E85";
paths = (
{
closed = 1;
nodes = (
"39 746 OFFCURVE",
"65 791 OFFCURVE",
"89 791 CURVE SMOOTH",
"132 791 OFFCURVE",
"227 752 OFFCURVE",
"269 752 CURVE SMOOTH",
"311 752 OFFCURVE",
"355 852 OFFCURVE",
"355 852 CURVE",
"309 879 LINE",
"309 879 OFFCURVE",
"287 837 OFFCURVE",
"262 837 CURVE SMOOTH",
"221 837 OFFCURVE",
"124 876 OFFCURVE",
"82 876 CURVE SMOOTH",
"40 876 OFFCURVE",
"-5 772 OFFCURVE",
"-5 772 CURVE",
"39 746 LINE"
);
}
);
width = 357;
}
);
leftKerningGroup = H;
rightKerningGroup = H;
unicode = 0128;
},
{
glyphname = J;
layers = (
{
anchors = (
{
name = bottom;
position = "{162, 0}";
},
{
name = top;
position = "{162, 705}";
}
);
background = {
anchors = (
{
name = top;
position = "{156, 705}";
}
);
paths = (
{
closed = 1;
nodes = (
"117 -144 OFFCURVE",
"207 -37 OFFCURVE",
"207 -10 CURVE SMOOTH",
"207 538 LINE SMOOTH",
"207 590 OFFCURVE",
"214 648 OFFCURVE",
"217 674 CURVE",
"178 641 LINE",
"292 651 LINE",
"288 710 LINE",
"288 710 OFFCURVE",
"210 705 OFFCURVE",
"150 705 CURVE",
"112 705 OFFCURVE",
"73 708 OFFCURVE",
"35 710 CURVE",
"30 656 LINE",
"143 638 LINE",
"102 674 LINE",
"105 658 OFFCURVE",
"116 590 OFFCURVE",
"116 568 CURVE SMOOTH",
"116 11 LINE SMOOTH",
"116 -9 OFFCURVE",
"36 -178 OFFCURVE",
"36 -178 CURVE",
"70 -200 LINE"
);
}
);
};
layerId = UUID0;
paths = (
{
closed = 1;
nodes = (
"117 -144 OFFCURVE",
"207 -37 OFFCURVE",
"207 -10 CURVE SMOOTH",
"207 538 LINE SMOOTH",
"207 590 OFFCURVE",
"214 648 OFFCURVE",
"217 674 CURVE",
"178 641 LINE",
"292 651 LINE",
"288 710 LINE",
"288 710 OFFCURVE",
"210 705 OFFCURVE",
"150 705 CURVE SMOOTH",
"130 705 OFFCURVE",
"72 708 OFFCURVE",
"35 710 CURVE",
"30 656 LINE",
"143 638 LINE",
"102 674 LINE",
"105 658 OFFCURVE",
"116 590 OFFCURVE",
"116 568 CURVE SMOOTH",
"116 11 LINE SMOOTH",
"116 -9 OFFCURVE",
"36 -178 OFFCURVE",
"36 -178 CURVE",
"70 -200 LINE"
);
}
);
width = 323;
},
{
anchors = (
{
name = bottom;
position = "{166, 0}";
},
{
name = top;
position = "{166, 705}";
}
);
background = {
paths = (
{
closed = 1;
nodes = (
"152 -119 OFFCURVE",
"235 -26 OFFCURVE",
"235 5 CURVE SMOOTH",
"235 519 LINE SMOOTH",
"235 571 OFFCURVE",
"244 645 OFFCURVE",
"248 674 CURVE",
"187 623 LINE",
"313 635 LINE",
"308 710 LINE",
"308 710 OFFCURVE",
"218 705 OFFCURVE",
"143 705 CURVE",
"104 705 OFFCURVE",
"63 708 OFFCURVE",
"24 710 CURVE",
"19 640 LINE",
"143 619 LINE",
"81 674 LINE",
"86 644 OFFCURVE",
"96 577 OFFCURVE",
"96 549 CURVE SMOOTH",
"96 11 LINE SMOOTH",
"96 -9 OFFCURVE",
"19 -171 OFFCURVE",
"19 -171 CURVE",
"68 -200 LINE"
);
}
);
};
layerId = "16643525-C5DD-48EC-8E99-463BF28F5E85";
paths = (
{
closed = 1;
nodes = (
"152 -119 OFFCURVE",
"235 -26 OFFCURVE",
"235 5 CURVE SMOOTH",
"235 519 LINE SMOOTH",
"235 571 OFFCURVE",
"244 645 OFFCURVE",
"248 674 CURVE",
"187 623 LINE",
"313 635 LINE",
"308 710 LINE",
"270 708 OFFCURVE",
"208 705 OFFCURVE",
"143 705 CURVE SMOOTH",
"116 705 OFFCURVE",
"60 708 OFFCURVE",
"24 710 CURVE",
"19 640 LINE",
"143 619 LINE",
"81 674 LINE",
"86 644 OFFCURVE",
"96 577 OFFCURVE",
"96 549 CURVE SMOOTH",
"96 11 LINE SMOOTH",
"96 -9 OFFCURVE",
"19 -171 OFFCURVE",
"19 -171 CURVE",
"68 -200 LINE"
);
}
);
width = 332;
}
);
leftKerningGroup = J;
rightKerningGroup = J;
unicode = 004A;
},
{
glyphname = K;
layers = (
{
anchors = (
{
name = bottom;
position = "{347, 0}";
},
{
name = top;
position = "{347, 720}";
}
);
background = {
paths = (
{
closed = 1;
nodes = (
"410 -5 OFFCURVE",
"523 0 OFFCURVE",
"548 0 CURVE",
"679 0 LINE",
"686 54 LINE",
"580 65 LINE",
"654 28 LINE",
"635 44 OFFCURVE",
"558 109 OFFCURVE",
"539 129 CURVE",
"304 397 LINE",
"306 341 LINE",
"460 546 LINE",
"495 581 OFFCURVE",
"552 636 OFFCURVE",
"573 654 CURVE",
"526 641 LINE",
"638 651 LINE",
"634 710 LINE",
"634 710 OFFCURVE",
"556 705 OFFCURVE",
"496 705 CURVE SMOOTH",
"476 705 OFFCURVE",
"401 710 OFFCURVE",
"401 710 CURVE",
"396 656 LINE",
"486 638 LINE",
"468 677 LINE",
"411 577 LINE",
"229 353 LINE",
"394 164 LINE",
"414 138 OFFCURVE",
"470 50 OFFCURVE",
"482 30 CURVE",
"499 67 LINE",
"405 45 LINE",
"410 -5 LINE"
);
},
{
closed = 1;
nodes = (
"100 -2 OFFCURVE",
"145 0 OFFCURVE",
"180 0 CURVE SMOOTH",
"309 0 LINE",
"316 54 LINE",
"190 64 LINE",
"231 28 LINE",
"226 54 OFFCURVE",
"219 115 OFFCURVE",
"219 167 CURVE SMOOTH",
"219 538 LINE SMOOTH",
"219 590 OFFCURVE",
"227 658 OFFCURVE",
"230 677 CURVE",
"190 641 LINE",
"304 651 LINE",
"300 710 LINE",
"244 707 OFFCURVE",
"198 705 OFFCURVE",
"162 705 CURVE SMOOTH",
"134 705 OFFCURVE",
"95 707 OFFCURVE",
"47 710 CURVE",
"42 656 LINE",
"155 638 LINE",
"114 677 LINE",
"118 656 OFFCURVE",
"128 590 OFFCURVE",
"128 568 CURVE SMOOTH",
"128 137 LINE SMOOTH",
"128 115 OFFCURVE",
"117 46 OFFCURVE",
"114 28 CURVE",
"155 68 LINE",
"40 45 LINE",
"45 -5 LINE"
);
}
);
};
layerId = UUID0;
paths = (
{
closed = 1;
nodes = (
"456 -3 OFFCURVE",
"522 0 OFFCURVE",
"548 0 CURVE SMOOTH",
"679 0 LINE",
"686 54 LINE",
"580 65 LINE",
"654 28 LINE",
"635 44 OFFCURVE",
"553 113 OFFCURVE",
"539 129 CURVE SMOOTH",
"304 397 LINE",
"306 341 LINE",
"460 546 LINE SMOOTH",
"470 560 OFFCURVE",
"552 636 OFFCURVE",
"573 654 CURVE",
"526 641 LINE",
"638 651 LINE",
"634 710 LINE",
"581 707 OFFCURVE",
"537 705 OFFCURVE",
"503 705 CURVE SMOOTH",
"483 705 OFFCURVE",
"432 708 OFFCURVE",
"401 710 CURVE",
"396 656 LINE",
"486 638 LINE",
"468 677 LINE",
"411 577 LINE",
"229 353 LINE",
"394 164 LINE SMOOTH",
"410 146 OFFCURVE",
"470 50 OFFCURVE",
"482 30 CURVE",
"499 67 LINE",
"405 45 LINE",
"410 -5 LINE"
);
},
{
closed = 1;
nodes = (
"100 -2 OFFCURVE",
"145 0 OFFCURVE",
"180 0 CURVE SMOOTH",
"309 0 LINE",
"316 54 LINE",
"190 64 LINE",
"231 28 LINE",
"226 54 OFFCURVE",
"219 115 OFFCURVE",
"219 167 CURVE SMOOTH",
"219 538 LINE SMOOTH",
"219 590 OFFCURVE",
"227 658 OFFCURVE",
"230 677 CURVE",
"190 641 LINE",
"304 651 LINE",
"300 710 LINE",
"244 707 OFFCURVE",
"198 705 OFFCURVE",
"162 705 CURVE SMOOTH",
"142 705 OFFCURVE",
"84 708 OFFCURVE",
"47 710 CURVE",
"42 656 LINE",
"155 638 LINE",
"114 677 LINE",
"118 656 OFFCURVE",
"128 590 OFFCURVE",
"128 568 CURVE SMOOTH",
"128 137 LINE SMOOTH",
"128 115 OFFCURVE",
"117 46 OFFCURVE",
"114 28 CURVE",
"155 68 LINE",
"40 45 LINE",
"45 -5 LINE"
);
}
);
width = 719;
},
{
anchors = (
{
name = bottom;
position = "{355, 0}";
},
{
name = top;
position = "{355, 720}";
}
);
background = {
paths = (
{
closed = 1;
nodes = (
"429 -5 OFFCURVE",
"540 0 OFFCURVE",
"584 0 CURVE",
"719 0 LINE",
"725 67 LINE",
"615 80 LINE",
"700 47 LINE",
"682 62 OFFCURVE",
"628 110 OFFCURVE",
"611 129 CURVE",
"378 401 LINE",
"371 325 LINE",
"534 546 LINE",
"577 592 OFFCURVE",
"611 623 OFFCURVE",
"639 649 CURVE",
"560 623 LINE",
"679 635 LINE",
"674 710 LINE",
"674 710 OFFCURVE",
"590 705 OFFCURVE",
"515 705 CURVE SMOOTH",
"488 705 OFFCURVE",
"419 710 OFFCURVE",
"419 710 CURVE",
"414 640 LINE",
"506 622 LINE",
"485 681 LINE",
"415 578 LINE SMOOTH",
"257 347 LINE",
"407 164 LINE",
"426 138 OFFCURVE",
"474 61 OFFCURVE",
"485 44 CURVE",
"524 81 LINE",
"424 60 LINE",
"429 -5 LINE"
);
},
{
closed = 1;
nodes = (
"94 -2 OFFCURVE",
"142 0 OFFCURVE",
"181 0 CURVE SMOOTH",
"322 0 LINE",
"327 67 LINE",
"200 78 LINE",
"262 25 LINE",
"257 52 OFFCURVE",
"247 131 OFFCURVE",
"247 187 CURVE SMOOTH",
"247 519 LINE SMOOTH",
"247 569 OFFCURVE",
"255 629 OFFCURVE",
"262 669 CURVE",
"200 623 LINE",
"325 635 LINE",
"320 710 LINE",
"255 707 OFFCURVE",
"200 705 OFFCURVE",
"155 705 CURVE SMOOTH",
"125 705 OFFCURVE",
"86 707 OFFCURVE",
"36 710 CURVE",
"31 640 LINE",
"155 619 LINE",
"92 667 LINE",
"100 632 OFFCURVE",
"108 576 OFFCURVE",
"108 549 CURVE SMOOTH",
"108 157 LINE SMOOTH",
"108 127 OFFCURVE",
"97 56 OFFCURVE",
"92 25 CURVE",
"155 83 LINE",
"30 60 LINE",
"35 -5 LINE"
);
}
);
};
layerId = "16643525-C5DD-48EC-8E99-463BF28F5E85";
paths = (
{
closed = 1;
nodes = (
"481 -3 OFFCURVE",
"562 0 OFFCURVE",
"584 0 CURVE SMOOTH",
"719 0 LINE",
"725 67 LINE",
"615 80 LINE",
"700 47 LINE",
"682 62 OFFCURVE",
"623 115 OFFCURVE",
"611 129 CURVE SMOOTH",
"378 401 LINE",
"371 325 LINE",
"534 546 LINE SMOOTH",
"544 559 OFFCURVE",
"610 623 OFFCURVE",
"639 649 CURVE",
"560 623 LINE",
"679 635 LINE",
"674 710 LINE",
"615 707 OFFCURVE",
"566 705 OFFCURVE",
"525 705 CURVE SMOOTH",
"501 705 OFFCURVE",
"457 707 OFFCURVE",
"419 710 CURVE",
"414 640 LINE",
"506 622 LINE",
"485 681 LINE",
"415 578 LINE",
"257 347 LINE",
"407 164 LINE SMOOTH",
"421 146 OFFCURVE",
"474 61 OFFCURVE",
"485 44 CURVE",
"524 81 LINE",
"424 60 LINE",
"429 -5 LINE"
);
},
{
closed = 1;
nodes = (
"94 -2 OFFCURVE",
"142 0 OFFCURVE",
"181 0 CURVE SMOOTH",
"322 0 LINE",
"327 67 LINE",
"200 78 LINE",
"262 25 LINE",
"257 52 OFFCURVE",
"247 131 OFFCURVE",
"247 187 CURVE SMOOTH",
"247 519 LINE SMOOTH",
"247 569 OFFCURVE",
"255 629 OFFCURVE",
"262 669 CURVE",
"200 623 LINE",
"325 635 LINE",
"320 710 LINE",
"255 707 OFFCURVE",
"200 705 OFFCURVE",
"155 705 CURVE SMOOTH",
"128 705 OFFCURVE",
"72 708 OFFCURVE",
"36 710 CURVE",
"31 640 LINE",
"155 619 LINE",
"92 667 LINE",
"100 632 OFFCURVE",
"108 576 OFFCURVE",
"108 549 CURVE SMOOTH",
"108 157 LINE SMOOTH",
"108 127 OFFCURVE",
"97 56 OFFCURVE",
"92 25 CURVE",
"155 83 LINE",
"30 60 LINE",
"35 -5 LINE"
);
}
);
width = 747;
}
);
leftKerningGroup = H;
rightKerningGroup = X;
unicode = 004B;
},
{
glyphname = L;
layers = (
{
anchors = (
{
name = bottom;
position = "{279, 0}";
},
{
name = center;
position = "{180, 355}";
},
{
name = centerright;
position = "{499, 403}";
},
{
name = top;
position = "{219, 720}";
},
{
name = topright;
position = "{458, 494}";
}
);
background = {
anchors = (
{
name = bottom;
position = "{279, 0}";
},
{
name = center;
position = "{180, 355}";
},
{
name = centerright;
position = "{459, 353}";
},
{
name = top;
position = "{279, 705}";
},
{
name = topright;
position = "{458, 494}";
}
);
paths = (
{
closed = 1;
nodes = (
"45 -5 OFFCURVE",
"155 0 OFFCURVE",
"180 0 CURVE SMOOTH",
"374 0 LINE SMOOTH",
"394 0 OFFCURVE",
"488 -4 OFFCURVE",
"488 -4 CURVE",
"507 14 LINE",
"522 165 LINE",
"467 170 LINE",
"465 154 OFFCURVE",
"455 118 OFFCURVE",
"452 103 CURVE SMOOTH",
"449 89 OFFCURVE",
"429 62 OFFCURVE",
"414 43 CURVE",
"446 69 LINE",
"428 65 OFFCURVE",
"384 57 OFFCURVE",
"344 57 CURVE SMOOTH",
"190 57 LINE",
"231 28 LINE",
"226 54 OFFCURVE",
"219 115 OFFCURVE",
"219 167 CURVE SMOOTH",
"219 538 LINE SMOOTH",
"219 590 OFFCURVE",
"227 658 OFFCURVE",
"230 677 CURVE",
"190 641 LINE",
"314 651 LINE",
"310 710 LINE",
"310 710 OFFCURVE",
"222 705 OFFCURVE",
"162 705 CURVE SMOOTH",
"142 705 OFFCURVE",
"47 710 OFFCURVE",
"47 710 CURVE",
"42 656 LINE",
"155 638 LINE",
"114 677 LINE",
"118 656 OFFCURVE",
"128 590 OFFCURVE",
"128 568 CURVE SMOOTH",
"128 137 LINE SMOOTH",
"128 115 OFFCURVE",
"117 46 OFFCURVE",
"114 28 CURVE",
"155 68 LINE",
"40 45 LINE",
"45 -5 LINE"
);
}
);
};
layerId = UUID0;
paths = (
{
closed = 1;
nodes = (
"90 -3 OFFCURVE",
"155 0 OFFCURVE",
"180 0 CURVE SMOOTH",
"374 0 LINE SMOOTH",
"393 0 OFFCURVE",
"444 -2 OFFCURVE",
"488 -4 CURVE",
"507 14 LINE",
"522 165 LINE",
"467 170 LINE",
"452 103 LINE SMOOTH",
"449 90 OFFCURVE",
"429 62 OFFCURVE",
"414 43 CURVE",
"446 69 LINE",
"428 65 OFFCURVE",
"384 57 OFFCURVE",
"344 57 CURVE SMOOTH",
"190 57 LINE",
"231 28 LINE",
"226 54 OFFCURVE",
"219 115 OFFCURVE",
"219 167 CURVE SMOOTH",
"219 538 LINE SMOOTH",
"219 590 OFFCURVE",
"227 658 OFFCURVE",
"230 677 CURVE",
"190 641 LINE",
"314 651 LINE",
"310 710 LINE",
"310 710 OFFCURVE",
"222 705 OFFCURVE",
"162 705 CURVE SMOOTH",
"142 705 OFFCURVE",
"84 708 OFFCURVE",
"47 710 CURVE",
"42 656 LINE",
"155 638 LINE",
"114 677 LINE",
"118 656 OFFCURVE",
"128 590 OFFCURVE",
"128 568 CURVE SMOOTH",
"128 137 LINE SMOOTH",
"128 115 OFFCURVE",
"117 46 OFFCURVE",
"114 28 CURVE",
"155 68 LINE",
"40 45 LINE",
"45 -5 LINE"
);
}
);
width = 561;
},
{
anchors = (
{
name = bottom;
position = "{278, 0}";
},
{
name = center;
position = "{174, 355}";
},
{
name = centerright;
position = "{483, 403}";
},
{
name = top;
position = "{208, 720}";
},
{
name = topright;
position = "{452, 494}";
}
);
background = {
paths = (
{
closed = 1;
nodes = (
"35 -5 OFFCURVE",
"153 0 OFFCURVE",
"181 0 CURVE SMOOTH",
"385 0 LINE SMOOTH",
"405 0 OFFCURVE",
"499 -4 OFFCURVE",
"499 -4 CURVE",
"518 14 LINE",
"533 184 LINE",
"467 189 LINE",
"454 129 LINE SMOOTH",
"451 114 OFFCURVE",
"432 77 OFFCURVE",
"403 42 CURVE",
"456 93 LINE",
"441 89 OFFCURVE",
"399 80 OFFCURVE",
"355 80 CURVE SMOOTH",
"216 80 LINE",
"262 25 LINE",
"257 52 OFFCURVE",
"247 131 OFFCURVE",
"247 187 CURVE SMOOTH",
"247 519 LINE SMOOTH",
"247 569 OFFCURVE",
"255 629 OFFCURVE",
"262 669 CURVE",
"200 623 LINE",
"335 635 LINE",
"330 710 LINE",
"330 710 OFFCURVE",
"230 705 OFFCURVE",
"155 705 CURVE SMOOTH",
"128 705 OFFCURVE",
"36 710 OFFCURVE",
"36 710 CURVE",
"31 640 LINE",
"155 619 LINE",
"92 667 LINE",
"100 632 OFFCURVE",
"108 576 OFFCURVE",
"108 549 CURVE SMOOTH",
"108 157 LINE SMOOTH",
"108 127 OFFCURVE",
"97 56 OFFCURVE",
"92 25 CURVE",
"155 83 LINE",
"30 60 LINE",
"35 -5 LINE"
);
}
);
};
layerId = "16643525-C5DD-48EC-8E99-463BF28F5E85";
paths = (
{
closed = 1;
nodes = (
"35 -5 OFFCURVE",
"153 0 OFFCURVE",
"181 0 CURVE SMOOTH",
"385 0 LINE SMOOTH",
"405 0 OFFCURVE",
"499 -4 OFFCURVE",
"499 -4 CURVE",
"518 14 LINE",
"533 184 LINE",
"467 189 LINE",
"454 129 LINE SMOOTH",
"451 114 OFFCURVE",
"432 77 OFFCURVE",
"403 42 CURVE",
"456 93 LINE",
"441 89 OFFCURVE",
"399 80 OFFCURVE",
"355 80 CURVE SMOOTH",
"216 80 LINE",
"262 25 LINE",
"257 52 OFFCURVE",
"247 131 OFFCURVE",
"247 187 CURVE SMOOTH",
"247 519 LINE SMOOTH",
"247 569 OFFCURVE",
"255 629 OFFCURVE",
"262 669 CURVE",
"200 623 LINE",
"335 635 LINE",
"330 710 LINE",
"287 708 OFFCURVE",
"230 705 OFFCURVE",
"155 705 CURVE SMOOTH",
"128 705 OFFCURVE",
"72 708 OFFCURVE",
"36 710 CURVE",
"31 640 LINE",
"155 619 LINE",
"92 667 LINE",
"100 632 OFFCURVE",
"108 576 OFFCURVE",
"108 549 CURVE SMOOTH",
"108 157 LINE SMOOTH",
"108 127 OFFCURVE",
"97 56 OFFCURVE",
"92 25 CURVE",
"155 83 LINE",
"30 60 LINE",
"35 -5 LINE"
);
}
);
width = 560;
}
);
leftKerningGroup = H;
rightKerningGroup = L;
unicode = 004C;
},
{
glyphname = Ldot;
layers = (
{
anchors = (
{
name = _centerright;
position = "{499, 403}";
},
{
name = top;
position = "{423, 386}";
}
);
components = (
{
name = L;
}
);
layerId = UUID0;
paths = (
{
closed = 1;
nodes = (
"458 308 OFFCURVE",
"478 333 OFFCURVE",
"478 369 CURVE SMOOTH",
"478 408 OFFCURVE",
"457 431 OFFCURVE",
"423 431 CURVE SMOOTH",
"388 431 OFFCURVE",
"368 406 OFFCURVE",
"368 369 CURVE SMOOTH",
"368 333 OFFCURVE",
"388 308 OFFCURVE",
"423 308 CURVE SMOOTH"
);
}
);
width = 561;
},
{
anchors = (
{
name = _centerright;
position = "{483, 403}";
},
{
name = top;
position = "{443, 388}";
}
);
components = (
{
name = L;
}
);
layerId = "16643525-C5DD-48EC-8E99-463BF28F5E85";
paths = (
{
closed = 1;
nodes = (
"486 307 OFFCURVE",
"510 335 OFFCURVE",
"510 377 CURVE SMOOTH",
"510 421 OFFCURVE",
"484 448 OFFCURVE",
"443 448 CURVE SMOOTH",
"399 448 OFFCURVE",
"375 418 OFFCURVE",
"375 377 CURVE SMOOTH",
"375 335 OFFCURVE",
"399 307 OFFCURVE",
"443 307 CURVE SMOOTH"
);
}
);
width = 560;
}
);
leftKerningGroup = H;
rightKerningGroup = L;
unicode = 013F;
},
{
glyphname = Lslash;
layers = (
{
anchors = (
{
name = _center;
position = "{180, 355}";
}
);
components = (
{
name = L;
}
);
layerId = UUID0;
paths = (
{
closed = 1;
nodes = (
"363 423 LINE",
"353 467 LINE",
"-4 281 LINE",
"13 238 LINE"
);
}
);
width = 561;
},
{
anchors = (
{
name = _center;
position = "{174, 355}";
}
);
components = (
{
name = L;
}
);
layerId = "16643525-C5DD-48EC-8E99-463BF28F5E85";
paths = (
{
closed = 1;
nodes = (
"403 395 LINE",
"394 461 LINE",
"-7 315 LINE",
"14 252 LINE"
);
}
);
width = 560;
}
);
leftKerningGroup = H;
rightKerningGroup = L;
unicode = 0141;
},
{
glyphname = M;
layers = (
{
anchors = (
{
name = bottom;
position = "{474, 0}";
},
{
name = top;
position = "{474, 705}";
}
);
background = {
paths = (
{
closed = 1;
nodes = (
"39 -5 OFFCURVE",
"140 0 OFFCURVE",
"160 0 CURVE SMOOTH",
"275 0 LINE",
"282 54 LINE",
"165 64 LINE",
"205 23 LINE",
"202 39 OFFCURVE",
"194 133 OFFCURVE",
"196 167 CURVE SMOOTH",
"222 620 LINE",
"207 618 LINE",
"439 0 LINE",
"475 0 LINE",
"707 618 LINE",
"692 620 LINE",
"722 137 LINE SMOOTH",
"724 112 OFFCURVE",
"713 40 OFFCURVE",
"710 23 CURVE",
"752 68 LINE",
"639 45 LINE",
"644 -5 LINE",
"644 -5 OFFCURVE",
"754 0 OFFCURVE",
"779 0 CURVE",
"908 0 LINE",
"915 54 LINE",
"797 64 LINE",
"841 23 LINE",
"834 54 OFFCURVE",
"816 146 OFFCURVE",
"814 167 CURVE SMOOTH",
"785 538 LINE SMOOTH",
"783 559 OFFCURVE",
"786 620 OFFCURVE",
"787 672 CURVE",
"750 641 LINE",
"866 651 LINE",
"862 710 LINE",
"862 710 OFFCURVE",
"767 705 OFFCURVE",
"707 705 CURVE SMOOTH",
"681 705 LINE",
"661 685 LINE",
"661 685 OFFCURVE",
"618 559 OFFCURVE",
"608 537 CURVE",
"459 141 LINE",
"485 141 LINE",
"339 529 LINE",
"330 553 OFFCURVE",
"287 684 OFFCURVE",
"287 684 CURVE",
"268 705 LINE",
"189 705 LINE",
"169 705 OFFCURVE",
"74 710 OFFCURVE",
"74 710 CURVE",
"69 656 LINE",
"187 639 LINE",
"147 682 LINE",
"151 657 OFFCURVE",
"156 591 OFFCURVE",
"155 569 CURVE SMOOTH",
"129 137 LINE SMOOTH",
"128 115 OFFCURVE",
"105 37 OFFCURVE",
"101 23 CURVE",
"148 68 LINE",
"34 45 LINE",
"39 -5 LINE"
);
}
);
};
layerId = UUID0;
paths = (
{
closed = 1;
nodes = (
"79 -3 OFFCURVE",
"140 0 OFFCURVE",
"160 0 CURVE SMOOTH",
"275 0 LINE",
"282 54 LINE",
"165 64 LINE",
"205 23 LINE",
"202 39 OFFCURVE",
"194 133 OFFCURVE",
"196 167 CURVE SMOOTH",
"222 620 LINE",
"207 618 LINE",
"439 0 LINE",
"475 0 LINE",
"707 618 LINE",
"692 620 LINE",
"722 137 LINE SMOOTH",
"724 112 OFFCURVE",
"713 40 OFFCURVE",
"710 23 CURVE",
"752 68 LINE",
"639 45 LINE",
"644 -5 LINE",
"689 -3 OFFCURVE",
"754 0 OFFCURVE",
"779 0 CURVE SMOOTH",
"908 0 LINE",
"915 54 LINE",
"797 64 LINE",
"841 23 LINE",
"834 54 OFFCURVE",
"816 146 OFFCURVE",
"814 167 CURVE SMOOTH",
"785 538 LINE SMOOTH",
"783 559 OFFCURVE",
"786 620 OFFCURVE",
"787 672 CURVE",
"750 641 LINE",
"866 651 LINE",
"862 710 LINE",
"817 708 OFFCURVE",
"759 705 OFFCURVE",
"707 705 CURVE SMOOTH",
"681 705 LINE",
"661 685 LINE",
"661 685 OFFCURVE",
"618 559 OFFCURVE",
"608 537 CURVE",
"459 141 LINE",
"485 141 LINE",
"339 529 LINE",
"330 553 OFFCURVE",
"287 684 OFFCURVE",
"287 684 CURVE",
"268 705 LINE",
"189 705 LINE SMOOTH",
"169 705 OFFCURVE",
"111 708 OFFCURVE",
"74 710 CURVE",
"69 656 LINE",
"187 639 LINE",
"147 682 LINE",
"151 657 OFFCURVE",
"156 591 OFFCURVE",
"155 569 CURVE SMOOTH",
"129 137 LINE SMOOTH",
"128 115 OFFCURVE",
"105 37 OFFCURVE",
"101 23 CURVE",
"148 68 LINE",
"34 45 LINE",
"39 -5 LINE"
);
}
);
width = 948;
},
{
anchors = (
{
name = bottom;
position = "{473, 0}";
},
{
name = top;
position = "{473, 705}";
}
);
background = {
paths = (
{
closed = 1;
nodes = (
"68 -3 OFFCURVE",
"129 0 OFFCURVE",
"148 0 CURVE SMOOTH",
"278 0 LINE",
"285 67 LINE",
"157 78 LINE",
"217 31 LINE",
"213 63 OFFCURVE",
"208 143 OFFCURVE",
"210 186 CURVE SMOOTH",
"232 591 LINE",
"210 588 LINE",
"418 0 LINE",
"496 0 LINE",
"708 587 LINE",
"686 591 LINE",
"708 156 LINE SMOOTH",
"709 127 OFFCURVE",
"702 54 OFFCURVE",
"699 31 CURVE",
"759 83 LINE",
"635 60 LINE",
"640 -5 LINE",
"686 -3 OFFCURVE",
"753 0 OFFCURVE",
"779 0 CURVE SMOOTH",
"917 0 LINE",
"923 67 LINE",
"796 78 LINE",
"861 31 LINE",
"855 55 OFFCURVE",
"838 142 OFFCURVE",
"834 186 CURVE SMOOTH",
"809 519 LINE SMOOTH",
"805 569 OFFCURVE",
"809 624 OFFCURVE",
"810 653 CURVE",
"753 623 LINE",
"878 635 LINE",
"873 710 LINE",
"873 710 OFFCURVE",
"791 705 OFFCURVE",
"735 705 CURVE SMOOTH",
"656 705 LINE",
"636 685 LINE",
"636 685 OFFCURVE",
"600 569 OFFCURVE",
"592 546 CURVE SMOOTH",
"456 156 LINE",
"492 156 LINE",
"363 533 LINE SMOOTH",
"352 566 OFFCURVE",
"318 685 OFFCURVE",
"318 685 CURVE",
"298 705 LINE",
"183 705 LINE",
"163 705 OFFCURVE",
"65 710 OFFCURVE",
"65 710 CURVE",
"60 640 LINE",
"186 619 LINE",
"128 656 LINE",
"130 636 OFFCURVE",
"136 579 OFFCURVE",
"134 549 CURVE SMOOTH",
"110 156 LINE SMOOTH",
"108 127 OFFCURVE",
"93 65 OFFCURVE",
"85 31 CURVE",
"150 83 LINE",
"23 60 LINE",
"28 -5 LINE"
);
}
);
};
layerId = "16643525-C5DD-48EC-8E99-463BF28F5E85";
paths = (
{
closed = 1;
nodes = (
"68 -3 OFFCURVE",
"129 0 OFFCURVE",
"148 0 CURVE SMOOTH",
"278 0 LINE",
"285 67 LINE",
"157 78 LINE",
"217 31 LINE",
"213 63 OFFCURVE",
"208 143 OFFCURVE",
"210 186 CURVE SMOOTH",
"232 591 LINE",
"210 588 LINE",
"418 0 LINE",
"496 0 LINE",
"708 587 LINE",
"686 591 LINE",
"708 156 LINE SMOOTH",
"709 127 OFFCURVE",
"702 54 OFFCURVE",
"699 31 CURVE",
"759 83 LINE",
"635 60 LINE",
"640 -5 LINE",
"686 -3 OFFCURVE",
"753 0 OFFCURVE",
"779 0 CURVE SMOOTH",
"917 0 LINE",
"923 67 LINE",
"796 78 LINE",
"861 31 LINE",
"855 55 OFFCURVE",
"838 142 OFFCURVE",
"834 186 CURVE SMOOTH",
"809 519 LINE SMOOTH",
"805 569 OFFCURVE",
"809 624 OFFCURVE",
"810 653 CURVE",
"753 623 LINE",
"878 635 LINE",
"873 710 LINE",
"873 710 OFFCURVE",
"791 705 OFFCURVE",
"735 705 CURVE SMOOTH",
"656 705 LINE",
"636 685 LINE",
"636 685 OFFCURVE",
"600 569 OFFCURVE",
"592 546 CURVE SMOOTH",
"456 156 LINE",
"492 156 LINE",
"363 533 LINE SMOOTH",
"352 566 OFFCURVE",
"318 685 OFFCURVE",
"318 685 CURVE",
"298 705 LINE",
"183 705 LINE SMOOTH",
"156 705 OFFCURVE",
"101 708 OFFCURVE",
"65 710 CURVE",
"60 640 LINE",
"184 619 LINE",
"128 656 LINE",
"130 636 OFFCURVE",
"136 579 OFFCURVE",
"134 549 CURVE SMOOTH",
"110 156 LINE SMOOTH",
"108 127 OFFCURVE",
"93 65 OFFCURVE",
"85 31 CURVE",
"150 83 LINE",
"23 60 LINE",
"28 -5 LINE"
);
}
);
width = 945;
}
);
leftKerningGroup = M;
rightKerningGroup = M;
unicode = 004D;
},
{
glyphname = N;
layers = (
{
anchors = (
{
name = bottom;
position = "{400, 0}";
},
{
name = top;
position = "{380, 720}";
}
);
background = {
anchors = (
{
name = bottom;
position = "{400, 0}";
},
{
name = top;
position = "{400, 705}";
}
);
paths = (
{
closed = 1;
nodes = (
"744 651 LINE",
"630 641 LINE",
"673 678 LINE",
"669 657 OFFCURVE",
"651 590 OFFCURVE",
"651 538 CURVE SMOOTH",
"650 0 LINE",
"590 0 LINE",
"175 586 LINE",
"196 592 LINE",
"196 167 LINE SMOOTH",
"196 115 OFFCURVE",
"203 54 OFFCURVE",
"207 27 CURVE",
"167 64 LINE",
"284 54 LINE",
"277 0 LINE",
"168 0 LINE",
"143 0 OFFCURVE",
"47 -5 OFFCURVE",
"47 -5 CURVE",
"42 45 LINE",
"156 68 LINE",
"115 30 LINE",
"119 51 OFFCURVE",
"129 115 OFFCURVE",
"129 137 CURVE SMOOTH",
"129 568 LINE SMOOTH",
"129 589 OFFCURVE",
"118 657 OFFCURVE",
"116 673 CURVE",
"156 639 LINE",
"40 656 LINE",
"45 710 LINE",
"45 710 OFFCURVE",
"140 705 OFFCURVE",
"160 705 CURVE SMOOTH",
"205 706 LINE",
"225 685 LINE",
"225 685 OFFCURVE",
"306 552 OFFCURVE",
"322 530 CURVE SMOOTH",
"605 138 LINE",
"584 132 LINE",
"584 568 LINE SMOOTH",
"584 589 OFFCURVE",
"573 663 OFFCURVE",
"569 683 CURVE",
"611 638 LINE",
"497 656 LINE",
"502 710 LINE",
"530 708 OFFCURVE",
"589 705 OFFCURVE",
"609 705 CURVE SMOOTH",
"669 705 OFFCURVE",
"740 710 OFFCURVE",
"740 710 CURVE"
);
}
);
};
layerId = UUID0;
paths = (
{
closed = 1;
nodes = (
"87 -3 OFFCURVE",
"148 0 OFFCURVE",
"168 0 CURVE SMOOTH",
"277 0 LINE",
"284 54 LINE",
"167 64 LINE",
"207 27 LINE",
"203 54 OFFCURVE",
"196 115 OFFCURVE",
"196 167 CURVE SMOOTH",
"196 592 LINE",
"175 586 LINE",
"590 0 LINE",
"650 0 LINE",
"651 538 LINE SMOOTH",
"651 593 OFFCURVE",
"668 654 OFFCURVE",
"673 678 CURVE",
"630 641 LINE",
"744 651 LINE",
"740 710 LINE",
"710 708 OFFCURVE",
"669 705 OFFCURVE",
"609 705 CURVE SMOOTH",
"589 705 OFFCURVE",
"533 708 OFFCURVE",
"502 710 CURVE",
"497 656 LINE",
"611 638 LINE",
"569 683 LINE",
"573 663 OFFCURVE",
"584 589 OFFCURVE",
"584 568 CURVE SMOOTH",
"584 132 LINE",
"605 138 LINE",
"322 530 LINE SMOOTH",
"306 552 OFFCURVE",
"225 685 OFFCURVE",
"225 685 CURVE",
"205 705 LINE",
"160 705 LINE SMOOTH",
"140 705 OFFCURVE",
"82 708 OFFCURVE",
"45 710 CURVE",
"40 656 LINE",
"156 639 LINE",
"116 673 LINE",
"118 657 OFFCURVE",
"129 589 OFFCURVE",
"129 568 CURVE SMOOTH",
"129 137 LINE SMOOTH",
"129 115 OFFCURVE",
"119 51 OFFCURVE",
"115 30 CURVE",
"156 68 LINE",
"42 45 LINE",
"47 -5 LINE"
);
}
);
width = 775;
},
{
anchors = (
{
name = bottom;
position = "{394, 0}";
},
{
name = top;
position = "{389, 720}";
}
);
background = {
paths = (
{
closed = 1;
nodes = (
"75 -3 OFFCURVE",
"136 0 OFFCURVE",
"155 0 CURVE SMOOTH",
"292 0 LINE",
"298 67 LINE",
"172 78 LINE",
"233 34 LINE",
"229 65 OFFCURVE",
"220 136 OFFCURVE",
"220 187 CURVE SMOOTH",
"220 533 LINE",
"187 522 LINE",
"562 0 LINE",
"679 0 LINE",
"679 519 LINE SMOOTH",
"679 574 OFFCURVE",
"692 643 OFFCURVE",
"695 670 CURVE",
"633 623 LINE",
"758 635 LINE",
"754 710 LINE",
"754 710 OFFCURVE",
"667 705 OFFCURVE",
"599 705 CURVE",
"579 705 OFFCURVE",
"528 708 OFFCURVE",
"495 710 CURVE",
"490 640 LINE",
"613 619 LINE",
"550 671 LINE",
"555 645 OFFCURVE",
"567 576 OFFCURVE",
"567 549 CURVE SMOOTH",
"567 158 LINE",
"600 169 LINE",
"336 536 LINE SMOOTH",
"321 557 OFFCURVE",
"246 685 OFFCURVE",
"246 685 CURVE",
"227 705 LINE",
"147 705 LINE SMOOTH",
"127 705 OFFCURVE",
"35 710 OFFCURVE",
"35 710 CURVE",
"30 640 LINE",
"155 619 LINE",
"92 669 LINE",
"96 648 OFFCURVE",
"108 575 OFFCURVE",
"108 549 CURVE SMOOTH",
"108 157 LINE SMOOTH",
"108 129 OFFCURVE",
"98 67 OFFCURVE",
"94 41 CURVE",
"155 83 LINE",
"30 60 LINE",
"35 -5 LINE"
);
}
);
};
layerId = "16643525-C5DD-48EC-8E99-463BF28F5E85";
paths = (
{
closed = 1;
nodes = (
"75 -3 OFFCURVE",
"136 0 OFFCURVE",
"155 0 CURVE SMOOTH",
"292 0 LINE",
"298 67 LINE",
"172 78 LINE",
"233 34 LINE",
"229 65 OFFCURVE",
"220 136 OFFCURVE",
"220 187 CURVE SMOOTH",
"220 533 LINE",
"187 522 LINE",
"562 0 LINE",
"679 0 LINE",
"679 519 LINE SMOOTH",
"679 574 OFFCURVE",
"692 643 OFFCURVE",
"695 670 CURVE",
"633 623 LINE",
"758 635 LINE",
"754 710 LINE",
"709 708 OFFCURVE",
"667 705 OFFCURVE",
"599 705 CURVE SMOOTH",
"575 705 OFFCURVE",
"526 708 OFFCURVE",
"495 710 CURVE",
"490 640 LINE",
"613 619 LINE",
"550 671 LINE",
"555 645 OFFCURVE",
"567 576 OFFCURVE",
"567 549 CURVE SMOOTH",
"567 158 LINE",
"600 169 LINE",
"336 536 LINE SMOOTH",
"321 557 OFFCURVE",
"246 685 OFFCURVE",
"246 685 CURVE",
"227 705 LINE",
"147 705 LINE SMOOTH",
"122 705 OFFCURVE",
"69 708 OFFCURVE",
"35 710 CURVE",
"30 640 LINE",
"154 619 LINE",
"92 669 LINE",
"96 648 OFFCURVE",
"108 575 OFFCURVE",
"108 549 CURVE SMOOTH",
"108 157 LINE SMOOTH",
"108 129 OFFCURVE",
"98 67 OFFCURVE",
"94 41 CURVE",
"155 83 LINE",
"30 60 LINE",
"35 -5 LINE"
);
}
);
width = 777;
}
);
leftKerningGroup = H;
rightKerningGroup = H;
unicode = 004E;
},
{
glyphname = Nacute;
layers = (
{
anchors = (
{
name = top;
position = "{400, 995}";
}
);
components = (
{
name = N;
}
);
layerId = UUID0;
paths = (
{
closed = 1;
nodes = (
"536 845 LINE",
"506 908 LINE",
"283 794 LINE",
"301 753 LINE"
);
}
);
width = 775;
},
{
anchors = (
{
name = top;
position = "{399, 1015}";
}
);
components = (
{
name = N;
}
);
layerId = "16643525-C5DD-48EC-8E99-463BF28F5E85";
paths = (
{
closed = 1;
nodes = (
"544 831 LINE",
"510 907 LINE",
"274 804 LINE",
"299 752 LINE"
);
}
);
width = 777;
}
);
leftKerningGroup = H;
rightKerningGroup = H;
unicode = 0143;
},
{
glyphname = Ntilde;
layers = (
{
anchors = (
{
name = top;
position = "{380, 995}";
}
);
components = (
{
name = N;
}
);
layerId = UUID0;
paths = (
{
closed = 1;
nodes = (
"248 748 OFFCURVE",
"274 802 OFFCURVE",
"301 802 CURVE SMOOTH",
"341 802 OFFCURVE",
"425 761 OFFCURVE",
"465 761 CURVE SMOOTH",
"505 761 OFFCURVE",
"548 859 OFFCURVE",
"548 859 CURVE",
"512 880 LINE",
"512 880 OFFCURVE",
"486 829 OFFCURVE",
"459 829 CURVE SMOOTH",
"419 829 OFFCURVE",
"334 870 OFFCURVE",
"294 870 CURVE SMOOTH",
"254 870 OFFCURVE",
"212 769 OFFCURVE",
"212 769 CURVE",
"248 748 LINE"
);
}
);
width = 775;
},
{
anchors = (
{
name = top;
position = "{389, 1015}";
}
);
components = (
{
name = N;
}
);
layerId = "16643525-C5DD-48EC-8E99-463BF28F5E85";
paths = (
{
closed = 1;
nodes = (
"253 746 OFFCURVE",
"279 791 OFFCURVE",
"303 791 CURVE SMOOTH",
"346 791 OFFCURVE",
"441 752 OFFCURVE",
"483 752 CURVE SMOOTH",
"525 752 OFFCURVE",
"569 852 OFFCURVE",
"569 852 CURVE",
"523 879 LINE",
"523 879 OFFCURVE",
"501 837 OFFCURVE",
"476 837 CURVE SMOOTH",
"435 837 OFFCURVE",
"338 876 OFFCURVE",
"296 876 CURVE SMOOTH",
"254 876 OFFCURVE",
"209 772 OFFCURVE",
"209 772 CURVE",
"253 746 LINE"
);
}
);
width = 777;
}
);
leftKerningGroup = H;
rightKerningGroup = H;
unicode = 00D1;
},
{
glyphname = O;
layers = (
{
anchors = (
{
name = bottom;
position = "{383, 0}";
},
{
name = center;
position = "{393, 353}";
},
{
name = ogonek;
position = "{493, 0}";
},
{
name = top;
position = "{383, 720}";
},
{
name = topright;
position = "{564, 630}";
}
);
background = {
anchors = (
{
name = bottom;
position = "{383, 0}";
},
{
name = horn;
position = "{641, 544}";
},
{
name = ogonek;
position = "{493, 0}";
},
{
name = top;
position = "{383, 715}";
}
);
paths = (
{
closed = 1;
nodes = (
"711 570 OFFCURVE",
"600 720 OFFCURVE",
"383 720 CURVE SMOOTH",
"166 720 OFFCURVE",
"55 570 OFFCURVE",
"55 352 CURVE SMOOTH",
"55 135 OFFCURVE",
"166 -15 OFFCURVE",
"383 -15 CURVE SMOOTH",
"600 -15 OFFCURVE",
"711 135 OFFCURVE",
"711 352 CURVE SMOOTH"
);
},
{
closed = 1;
nodes = (
"162 527 OFFCURVE",
"234 667 OFFCURVE",
"383 667 CURVE SMOOTH",
"532 667 OFFCURVE",
"604 527 OFFCURVE",
"604 352 CURVE SMOOTH",
"604 178 OFFCURVE",
"532 38 OFFCURVE",
"383 38 CURVE SMOOTH",
"234 38 OFFCURVE",
"162 178 OFFCURVE",
"162 352 CURVE SMOOTH"
);
}
);
};
layerId = UUID0;
paths = (
{
closed = 1;
nodes = (
"600 -15 OFFCURVE",
"711 135 OFFCURVE",
"711 352 CURVE SMOOTH",
"711 570 OFFCURVE",
"600 720 OFFCURVE",
"383 720 CURVE SMOOTH",
"166 720 OFFCURVE",
"55 570 OFFCURVE",
"55 352 CURVE SMOOTH",
"55 135 OFFCURVE",
"166 -15 OFFCURVE",
"383 -15 CURVE SMOOTH"
);
},
{
closed = 1;
nodes = (
"234 38 OFFCURVE",
"162 178 OFFCURVE",
"162 352 CURVE SMOOTH",
"162 527 OFFCURVE",
"234 667 OFFCURVE",
"383 667 CURVE SMOOTH",
"532 667 OFFCURVE",
"604 527 OFFCURVE",
"604 352 CURVE SMOOTH",
"604 178 OFFCURVE",
"532 38 OFFCURVE",
"383 38 CURVE SMOOTH"
);
}
);
width = 766;
},
{
anchors = (
{
name = bottom;
position = "{390, 0}";
},
{
name = center;
position = "{410, 353}";
},
{
name = ogonek;
position = "{503, 0}";
},
{
name = top;
position = "{389, 720}";
},
{
name = topright;
position = "{591, 630}";
}
);
background = {
anchors = (
{
name = bottom;
position = "{393, 0}";
},
{
name = horn;
position = "{653, 544}";
},
{
name = ogonek;
position = "{507, 0}";
},
{
name = top;
position = "{392, 715}";
}
);
paths = (
{
closed = 1;
nodes = (
"750 574 OFFCURVE",
"610 720 OFFCURVE",
"393 720 CURVE SMOOTH",
"176 720 OFFCURVE",
"36 574 OFFCURVE",
"36 352 CURVE SMOOTH",
"36 131 OFFCURVE",
"176 -15 OFFCURVE",
"393 -15 CURVE SMOOTH",
"610 -15 OFFCURVE",
"750 131 OFFCURVE",
"750 352 CURVE SMOOTH"
);
},
{
closed = 1;
nodes = (
"216 535 OFFCURVE",
"273 623 OFFCURVE",
"393 623 CURVE SMOOTH",
"513 623 OFFCURVE",
"570 535 OFFCURVE",
"570 352 CURVE SMOOTH",
"570 170 OFFCURVE",
"513 82 OFFCURVE",
"393 82 CURVE SMOOTH",
"273 82 OFFCURVE",
"216 170 OFFCURVE",
"216 352 CURVE SMOOTH"
);
}
);
};
layerId = "16643525-C5DD-48EC-8E99-463BF28F5E85";
paths = (
{
closed = 1;
nodes = (
"606 -15 OFFCURVE",
"740 132 OFFCURVE",
"740 352 CURVE SMOOTH",
"740 573 OFFCURVE",
"606 720 OFFCURVE",
"390 720 CURVE SMOOTH",
"173 720 OFFCURVE",
"40 573 OFFCURVE",
"40 352 CURVE SMOOTH",
"40 132 OFFCURVE",
"173 -15 OFFCURVE",
"390 -15 CURVE SMOOTH"
);
},
{
closed = 1;
nodes = (
"263 71 OFFCURVE",
"202 172 OFFCURVE",
"202 352 CURVE SMOOTH",
"202 533 OFFCURVE",
"263 634 OFFCURVE",
"390 634 CURVE SMOOTH",
"517 634 OFFCURVE",
"578 533 OFFCURVE",
"578 352 CURVE SMOOTH",
"578 172 OFFCURVE",
"517 71 OFFCURVE",
"390 71 CURVE SMOOTH"
);
}
);
width = 779;
}
);
leftKerningGroup = O;
rightKerningGroup = O;
unicode = 004F;
},
{
glyphname = OE;
layers = (
{
anchors = (
{
name = bottom;
position = "{282, 0}";
},
{
name = top;
position = "{282, 720}";
}
);
background = {
paths = (
{
closed = 1;
nodes = (
"514 58 LINE",
"470 47 OFFCURVE",
"423 47 OFFCURVE",
"382 48 CURVE SMOOTH",
"233 52 OFFCURVE",
"161 184 OFFCURVE",
"161 352 CURVE SMOOTH",
"161 521 OFFCURVE",
"234 657 OFFCURVE",
"382 657 CURVE SMOOTH",
"423 657 OFFCURVE",
"470 654 OFFCURVE",
"514 648 CURVE",
"483 681 LINE",
"488 644 OFFCURVE",
"487 590 OFFCURVE",
"487 568 CURVE SMOOTH",
"487 137 LINE SMOOTH",
"487 115 OFFCURVE",
"486 45 OFFCURVE",
"482 24 CURVE"
);
},
{
closed = 1;
nodes = (
"475 707 OFFCURVE",
"428 710 OFFCURVE",
"382 710 CURVE SMOOTH",
"165 710 OFFCURVE",
"54 564 OFFCURVE",
"54 352 CURVE SMOOTH",
"54 141 OFFCURVE",
"165 -5 OFFCURVE",
"382 -5 CURVE SMOOTH",
"434 -5 OFFCURVE",
"487 -2 OFFCURVE",
"539 0 CURVE",
"590 16 LINE",
"585 45 OFFCURVE",
"578 118 OFFCURVE",
"578 167 CURVE",
"578 538 LINE SMOOTH",
"578 586 OFFCURVE",
"585 660 OFFCURVE",
"588 675 CURVE",
"521 705 LINE"
);
},
{
closed = 1;
nodes = (
"893 14 LINE",
"908 165 LINE",
"853 170 LINE",
"838 103 LINE SMOOTH",
"835 88 OFFCURVE",
"815 62 OFFCURVE",
"800 43 CURVE",
"832 69 LINE",
"814 65 OFFCURVE",
"770 57 OFFCURVE",
"730 57 CURVE SMOOTH",
"522 57 LINE",
"522 0 LINE",
"760 0 LINE SMOOTH",
"778 0 OFFCURVE",
"836 -2 OFFCURVE",
"874 -4 CURVE"
);
},
{
closed = 1;
nodes = (
"812 271 LINE",
"810 307 OFFCURVE",
"809 344 OFFCURVE",
"809 380 CURVE SMOOTH",
"809 400 OFFCURVE",
"810 464 OFFCURVE",
"810 464 CURVE",
"764 469 LINE",
"750 364 LINE",
"781 404 LINE",
"767 402 OFFCURVE",
"723 394 OFFCURVE",
"695 394 CURVE SMOOTH",
"522 394 LINE",
"522 338 LINE",
"675 338 LINE SMOOTH",
"701 338 OFFCURVE",
"764 331 OFFCURVE",
"787 328 CURVE",
"750 368 LINE",
"764 265 LINE"
);
},
{
closed = 1;
nodes = (
"887 561 LINE",
"880 692 LINE",
"861 710 LINE",
"823 707 OFFCURVE",
"765 705 OFFCURVE",
"747 705 CURVE SMOOTH",
"442 705 LINE",
"442 649 LINE",
"717 649 LINE SMOOTH",
"753 649 OFFCURVE",
"795 646 OFFCURVE",
"815 643 CURVE",
"780 665 LINE",
"795 651 OFFCURVE",
"816 620 OFFCURVE",
"818 610 CURVE SMOOTH",
"829 556 LINE"
);
}
);
};
layerId = UUID0;
paths = (
{
closed = 1;
nodes = (
"434 -5 OFFCURVE",
"487 -2 OFFCURVE",
"539 0 CURVE",
"590 16 LINE",
"585 45 OFFCURVE",
"578 118 OFFCURVE",
"578 167 CURVE",
"578 538 LINE SMOOTH",
"578 586 OFFCURVE",
"585 660 OFFCURVE",
"588 675 CURVE",
"521 705 LINE",
"475 707 OFFCURVE",
"428 710 OFFCURVE",
"382 710 CURVE SMOOTH",
"165 710 OFFCURVE",
"54 564 OFFCURVE",
"54 352 CURVE SMOOTH",
"54 141 OFFCURVE",
"165 -5 OFFCURVE",
"382 -5 CURVE SMOOTH"
);
},
{
closed = 1;
nodes = (
"514 58 LINE",
"470 47 OFFCURVE",
"423 47 OFFCURVE",
"382 48 CURVE SMOOTH",
"233 52 OFFCURVE",
"161 184 OFFCURVE",
"161 352 CURVE SMOOTH",
"161 521 OFFCURVE",
"234 657 OFFCURVE",
"382 657 CURVE SMOOTH",
"423 657 OFFCURVE",
"470 654 OFFCURVE",
"514 648 CURVE",
"483 681 LINE",
"488 644 OFFCURVE",
"487 590 OFFCURVE",
"487 568 CURVE SMOOTH",
"487 137 LINE SMOOTH",
"487 115 OFFCURVE",
"486 45 OFFCURVE",
"482 24 CURVE"
);
},
{
closed = 1;
nodes = (
"893 14 LINE",
"908 165 LINE",
"853 170 LINE",
"838 103 LINE SMOOTH",
"835 88 OFFCURVE",
"815 62 OFFCURVE",
"800 43 CURVE",
"832 69 LINE",
"814 65 OFFCURVE",
"770 57 OFFCURVE",
"730 57 CURVE SMOOTH",
"522 57 LINE",
"522 0 LINE",
"760 0 LINE SMOOTH",
"778 0 OFFCURVE",
"836 -2 OFFCURVE",
"874 -4 CURVE"
);
},
{
closed = 1;
nodes = (
"812 271 LINE",
"810 307 OFFCURVE",
"809 344 OFFCURVE",
"809 380 CURVE SMOOTH",
"809 464 LINE",
"764 469 LINE",
"750 364 LINE",
"781 404 LINE",
"767 402 OFFCURVE",
"723 394 OFFCURVE",
"695 394 CURVE SMOOTH",
"522 394 LINE",
"522 338 LINE",
"675 338 LINE SMOOTH",
"701 338 OFFCURVE",
"764 331 OFFCURVE",
"787 328 CURVE",
"750 368 LINE",
"764 265 LINE"
);
},
{
closed = 1;
nodes = (
"887 561 LINE",
"880 692 LINE",
"861 710 LINE",
"823 707 OFFCURVE",
"765 705 OFFCURVE",
"747 705 CURVE SMOOTH",
"522 705 LINE",
"522 649 LINE",
"717 649 LINE SMOOTH",
"753 649 OFFCURVE",
"795 646 OFFCURVE",
"815 643 CURVE",
"780 665 LINE",
"795 651 OFFCURVE",
"816 620 OFFCURVE",
"818 610 CURVE SMOOTH",
"829 556 LINE"
);
}
);
width = 959;
},
{
anchors = (
{
name = bottom;
position = "{280, 0}";
},
{
name = top;
position = "{280, 720}";
}
);
background = {
paths = (
{
closed = 1;
nodes = (
"525 83 LINE",
"480 80 OFFCURVE",
"433 80 OFFCURVE",
"388 80 CURVE SMOOTH",
"261 80 OFFCURVE",
"200 179 OFFCURVE",
"200 352 CURVE SMOOTH",
"200 526 OFFCURVE",
"261 624 OFFCURVE",
"388 624 CURVE SMOOTH",
"439 624 OFFCURVE",
"486 623 OFFCURVE",
"525 622 CURVE",
"473 671 LINE",
"477 640 OFFCURVE",
"479 577 OFFCURVE",
"479 549 CURVE SMOOTH",
"479 157 LINE SMOOTH",
"479 130 OFFCURVE",
"477 64 OFFCURVE",
"474 37 CURVE"
);
},
{
closed = 1;
nodes = (
"480 707 OFFCURVE",
"433 710 OFFCURVE",
"388 710 CURVE SMOOTH",
"171 710 OFFCURVE",
"38 567 OFFCURVE",
"38 352 CURVE SMOOTH",
"38 138 OFFCURVE",
"171 -6 OFFCURVE",
"388 -6 CURVE SMOOTH",
"442 -6 OFFCURVE",
"497 -2 OFFCURVE",
"552 0 CURVE",
"627 47 LINE",
"625 69 OFFCURVE",
"618 141 OFFCURVE",
"618 187 CURVE SMOOTH",
"618 519 LINE SMOOTH",
"618 568 OFFCURVE",
"624 638 OFFCURVE",
"625 656 CURVE",
"525 705 LINE"
);
},
{
closed = 1;
nodes = (
"894 14 LINE",
"909 184 LINE",
"843 189 LINE",
"830 129 LINE SMOOTH",
"826 112 OFFCURVE",
"805 73 OFFCURVE",
"779 42 CURVE",
"832 93 LINE",
"817 89 OFFCURVE",
"775 80 OFFCURVE",
"731 80 CURVE SMOOTH",
"505 80 LINE",
"505 0 LINE",
"761 0 LINE SMOOTH",
"789 0 OFFCURVE",
"837 -2 OFFCURVE",
"875 -4 CURVE"
);
},
{
closed = 1;
nodes = (
"805 260 LINE",
"803 301 OFFCURVE",
"802 341 OFFCURVE",
"802 382 CURVE SMOOTH",
"802 402 OFFCURVE",
"803 466 OFFCURVE",
"803 466 CURVE",
"745 471 LINE",
"731 367 LINE",
"764 409 LINE",
"745 403 OFFCURVE",
"711 397 OFFCURVE",
"688 397 CURVE SMOOTH",
"505 397 LINE",
"505 322 LINE",
"668 322 LINE SMOOTH",
"698 322 OFFCURVE",
"750 317 OFFCURVE",
"780 315 CURVE",
"731 352 LINE",
"745 254 LINE"
);
},
{
closed = 1;
nodes = (
"887 547 LINE",
"880 692 LINE",
"861 710 LINE",
"823 707 OFFCURVE",
"765 705 OFFCURVE",
"747 705 CURVE SMOOTH",
"505 705 LINE",
"505 630 LINE",
"720 630 LINE SMOOTH",
"760 630 OFFCURVE",
"807 625 OFFCURVE",
"832 623 CURVE",
"777 675 LINE",
"791 647 OFFCURVE",
"810 603 OFFCURVE",
"812 590 CURVE SMOOTH",
"819 542 LINE"
);
}
);
};
layerId = "16643525-C5DD-48EC-8E99-463BF28F5E85";
paths = (
{
closed = 1;
nodes = (
"442 -6 OFFCURVE",
"497 -2 OFFCURVE",
"552 0 CURVE",
"627 47 LINE",
"625 69 OFFCURVE",
"618 141 OFFCURVE",
"618 187 CURVE SMOOTH",
"618 519 LINE SMOOTH",
"618 568 OFFCURVE",
"624 638 OFFCURVE",
"625 656 CURVE",
"525 705 LINE",
"480 707 OFFCURVE",
"433 710 OFFCURVE",
"388 710 CURVE SMOOTH",
"171 710 OFFCURVE",
"38 567 OFFCURVE",
"38 352 CURVE SMOOTH",
"38 138 OFFCURVE",
"171 -6 OFFCURVE",
"388 -6 CURVE SMOOTH"
);
},
{
closed = 1;
nodes = (
"525 83 LINE",
"480 80 OFFCURVE",
"433 80 OFFCURVE",
"388 80 CURVE SMOOTH",
"261 80 OFFCURVE",
"200 179 OFFCURVE",
"200 352 CURVE SMOOTH",
"200 526 OFFCURVE",
"261 624 OFFCURVE",
"388 624 CURVE SMOOTH",
"439 624 OFFCURVE",
"486 623 OFFCURVE",
"525 622 CURVE",
"473 671 LINE",
"477 640 OFFCURVE",
"479 577 OFFCURVE",
"479 549 CURVE SMOOTH",
"479 157 LINE SMOOTH",
"479 130 OFFCURVE",
"477 64 OFFCURVE",
"474 37 CURVE"
);
},
{
closed = 1;
nodes = (
"894 14 LINE",
"909 184 LINE",
"843 189 LINE",
"830 129 LINE SMOOTH",
"826 112 OFFCURVE",
"805 73 OFFCURVE",
"779 42 CURVE",
"832 93 LINE",
"817 89 OFFCURVE",
"775 80 OFFCURVE",
"731 80 CURVE SMOOTH",
"505 80 LINE",
"505 0 LINE",
"761 0 LINE SMOOTH",
"789 0 OFFCURVE",
"837 -2 OFFCURVE",
"875 -4 CURVE"
);
},
{
closed = 1;
nodes = (
"805 260 LINE",
"803 301 OFFCURVE",
"802 341 OFFCURVE",
"802 382 CURVE SMOOTH",
"802 466 LINE",
"745 471 LINE",
"731 367 LINE",
"764 409 LINE",
"745 403 OFFCURVE",
"711 397 OFFCURVE",
"688 397 CURVE SMOOTH",
"505 397 LINE",
"505 322 LINE",
"668 322 LINE SMOOTH",
"698 322 OFFCURVE",
"750 317 OFFCURVE",
"780 315 CURVE",
"731 352 LINE",
"745 254 LINE"
);
},
{
closed = 1;
nodes = (
"887 547 LINE",
"880 692 LINE",
"861 710 LINE",
"823 707 OFFCURVE",
"765 705 OFFCURVE",
"747 705 CURVE SMOOTH",
"505 705 LINE",
"505 630 LINE",
"720 630 LINE SMOOTH",
"760 630 OFFCURVE",
"807 625 OFFCURVE",
"832 623 CURVE",
"777 675 LINE",
"791 647 OFFCURVE",
"810 603 OFFCURVE",
"812 590 CURVE SMOOTH",
"819 542 LINE"
);
}
);
width = 948;
}
);
leftKerningGroup = O;
rightKerningGroup = E;
unicode = 0152;
},
{
glyphname = Oacute;
layers = (
{
anchors = (
{
name = top;
position = "{403, 995}";
}
);
components = (
{
name = O;
}
);
layerId = UUID0;
paths = (
{
closed = 1;
nodes = (
"539 845 LINE",
"509 908 LINE",
"286 794 LINE",
"304 753 LINE"
);
}
);
width = 766;
},
{
anchors = (
{
name = top;
position = "{399, 1015}";
}
);
components = (
{
name = O;
}
);
layerId = "16643525-C5DD-48EC-8E99-463BF28F5E85";
paths = (
{
closed = 1;
nodes = (
"544 831 LINE",
"510 907 LINE",
"274 804 LINE",
"299 752 LINE"
);
}
);
width = 779;
}
);
leftKerningGroup = O;
rightKerningGroup = O;
unicode = 00D3;
},
{
glyphname = Ocircumflex;
layers = (
{
anchors = (
{
name = top;
position = "{383, 995}";
}
);
components = (
{
name = O;
}
);
layerId = UUID0;
paths = (
{
closed = 1;
nodes = (
"556 789 LINE",
"416 879 LINE",
"375 879 LINE",
"342 840 LINE",
"533 753 LINE"
);
},
{
closed = 1;
nodes = (
"424 840 LINE",
"391 879 LINE",
"350 879 LINE",
"210 789 LINE",
"233 753 LINE"
);
}
);
width = 766;
},
{
anchors = (
{
name = top;
position = "{389, 1015}";
}
);
components = (
{
name = O;
}
);
layerId = "16643525-C5DD-48EC-8E99-463BF28F5E85";
paths = (
{
closed = 1;
nodes = (
"574 796 LINE",
"438 892 LINE",
"375 892 LINE",
"341 851 LINE",
"540 751 LINE"
);
},
{
closed = 1;
nodes = (
"437 851 LINE",
"403 892 LINE",
"340 892 LINE",
"204 797 LINE",
"238 752 LINE"
);
}
);
width = 779;
}
);
leftKerningGroup = O;
rightKerningGroup = O;
unicode = 00D4;
},
{
glyphname = Oslash;
layers = (
{
anchors = (
{
name = bottom;
position = "{383, 0}";
},
{
name = center;
position = "{393, 353}";
},
{
name = ogonek;
position = "{493, 0}";
},
{
name = top;
position = "{383, 705}";
},
{
name = topright;
position = "{564, 630}";
}
);
background = {
paths = (
{
closed = 1;
nodes = (
"709 570 OFFCURVE",
"598 720 OFFCURVE",
"381 720 CURVE",
"164 720 OFFCURVE",
"53 570 OFFCURVE",
"53 352 CURVE",
"53 135 OFFCURVE",
"164 -15 OFFCURVE",
"381 -15 CURVE SMOOTH",
"598 -15 OFFCURVE",
"709 135 OFFCURVE",
"709 352 CURVE"
);
},
{
closed = 1;
nodes = (
"160 527 OFFCURVE",
"232 667 OFFCURVE",
"381 667 CURVE",
"530 667 OFFCURVE",
"602 527 OFFCURVE",
"602 352 CURVE",
"602 178 OFFCURVE",
"530 38 OFFCURVE",
"381 38 CURVE SMOOTH",
"232 38 OFFCURVE",
"160 178 OFFCURVE",
"160 352 CURVE"
);
}
);
};
layerId = UUID0;
paths = (
{
closed = 1;
nodes = (
"653 815 LINE",
"611 838 LINE",
"111 -113 LINE",
"151 -136 LINE"
);
},
{
closed = 1;
nodes = (
"600 -15 OFFCURVE",
"711 135 OFFCURVE",
"711 352 CURVE SMOOTH",
"711 570 OFFCURVE",
"600 720 OFFCURVE",
"383 720 CURVE SMOOTH",
"166 720 OFFCURVE",
"55 570 OFFCURVE",
"55 352 CURVE SMOOTH",
"55 135 OFFCURVE",
"166 -15 OFFCURVE",
"383 -15 CURVE SMOOTH"
);
},
{
closed = 1;
nodes = (
"234 38 OFFCURVE",
"162 178 OFFCURVE",
"162 352 CURVE SMOOTH",
"162 527 OFFCURVE",
"234 667 OFFCURVE",
"383 667 CURVE SMOOTH",
"532 667 OFFCURVE",
"604 527 OFFCURVE",
"604 352 CURVE SMOOTH",
"604 178 OFFCURVE",
"532 38 OFFCURVE",
"383 38 CURVE SMOOTH"
);
}
);
width = 766;
},
{
anchors = (
{
name = bottom;
position = "{389, 0}";
},
{
name = center;
position = "{409, 353}";
},
{
name = ogonek;
position = "{502, 0}";
},
{
name = top;
position = "{389, 705}";
},
{
name = topright;
position = "{590, 630}";
}
);
background = {
paths = (
{
closed = 1;
nodes = (
"763 578 OFFCURVE",
"623 724 OFFCURVE",
"406 724 CURVE",
"189 724 OFFCURVE",
"49 578 OFFCURVE",
"49 352 CURVE",
"49 127 OFFCURVE",
"189 -19 OFFCURVE",
"406 -19 CURVE SMOOTH",
"623 -19 OFFCURVE",
"763 127 OFFCURVE",
"763 352 CURVE"
);
},
{
closed = 1;
nodes = (
"229 539 OFFCURVE",
"286 627 OFFCURVE",
"406 627 CURVE",
"526 627 OFFCURVE",
"583 539 OFFCURVE",
"583 352 CURVE",
"583 166 OFFCURVE",
"526 78 OFFCURVE",
"406 78 CURVE SMOOTH",
"286 78 OFFCURVE",
"229 166 OFFCURVE",
"229 352 CURVE"
);
}
);
};
layerId = "16643525-C5DD-48EC-8E99-463BF28F5E85";
paths = (
{
closed = 1;
nodes = (
"685 809 LINE",
"626 838 LINE",
"129 -108 LINE",
"186 -137 LINE"
);
},
{
closed = 1;
nodes = (
"605 -15 OFFCURVE",
"739 132 OFFCURVE",
"739 352 CURVE SMOOTH",
"739 573 OFFCURVE",
"605 720 OFFCURVE",
"389 720 CURVE SMOOTH",
"172 720 OFFCURVE",
"39 573 OFFCURVE",
"39 352 CURVE SMOOTH",
"39 132 OFFCURVE",
"172 -15 OFFCURVE",
"389 -15 CURVE SMOOTH"
);
},
{
closed = 1;
nodes = (
"262 71 OFFCURVE",
"201 172 OFFCURVE",
"201 352 CURVE SMOOTH",
"201 533 OFFCURVE",
"262 634 OFFCURVE",
"389 634 CURVE SMOOTH",
"516 634 OFFCURVE",
"577 533 OFFCURVE",
"577 352 CURVE SMOOTH",
"577 172 OFFCURVE",
"516 71 OFFCURVE",
"389 71 CURVE SMOOTH"
);
}
);
width = 778;
}
);
leftKerningGroup = O;
rightKerningGroup = O;
unicode = 00D8;
},
{
glyphname = Otilde;
layers = (
{
anchors = (
{
name = top;
position = "{383, 995}";
}
);
components = (
{
name = O;
}
);
layerId = UUID0;
paths = (
{
closed = 1;
nodes = (
"251 748 OFFCURVE",
"277 802 OFFCURVE",
"304 802 CURVE SMOOTH",
"344 802 OFFCURVE",
"428 761 OFFCURVE",
"468 761 CURVE SMOOTH",
"508 761 OFFCURVE",
"551 859 OFFCURVE",
"551 859 CURVE",
"515 880 LINE",
"515 880 OFFCURVE",
"489 829 OFFCURVE",
"462 829 CURVE SMOOTH",
"422 829 OFFCURVE",
"337 870 OFFCURVE",
"297 870 CURVE SMOOTH",
"257 870 OFFCURVE",
"215 769 OFFCURVE",
"215 769 CURVE",
"251 748 LINE"
);
}
);
width = 766;
},
{
anchors = (
{
name = top;
position = "{389, 1015}";
}
);
components = (
{
name = O;
}
);
layerId = "16643525-C5DD-48EC-8E99-463BF28F5E85";
paths = (
{
closed = 1;
nodes = (
"253 746 OFFCURVE",
"279 791 OFFCURVE",
"303 791 CURVE SMOOTH",
"346 791 OFFCURVE",
"441 752 OFFCURVE",
"483 752 CURVE SMOOTH",
"525 752 OFFCURVE",
"569 852 OFFCURVE",
"569 852 CURVE",
"523 879 LINE",
"523 879 OFFCURVE",
"501 837 OFFCURVE",
"476 837 CURVE SMOOTH",
"435 837 OFFCURVE",
"338 876 OFFCURVE",
"296 876 CURVE SMOOTH",
"254 876 OFFCURVE",
"209 772 OFFCURVE",
"209 772 CURVE",
"253 746 LINE"
);
}
);
width = 779;
}
);
leftKerningGroup = O;
rightKerningGroup = O;
unicode = 00D5;
},
{
glyphname = P;
layers = (
{
anchors = (
{
name = bottom;
position = "{299, 0}";
},
{
name = top;
position = "{299, 705}";
}
);
background = {
paths = (
{
closed = 1;
nodes = (
"45 -5 OFFCURVE",
"155 0 OFFCURVE",
"180 0 CURVE",
"319 0 LINE",
"326 54 LINE",
"190 64 LINE",
"231 28 LINE",
"226 54 OFFCURVE",
"219 115 OFFCURVE",
"219 167 CURVE SMOOTH",
"219 538 LINE SMOOTH",
"219 590 OFFCURVE",
"227 658 OFFCURVE",
"230 677 CURVE",
"162 705 LINE",
"142 705 OFFCURVE",
"47 710 OFFCURVE",
"47 710 CURVE",
"42 656 LINE",
"155 638 LINE",
"114 677 LINE",
"118 656 OFFCURVE",
"128 590 OFFCURVE",
"128 568 CURVE SMOOTH",
"128 137 LINE SMOOTH",
"128 115 OFFCURVE",
"117 46 OFFCURVE",
"114 28 CURVE",
"155 68 LINE",
"40 45 LINE",
"45 -5 LINE"
);
},
{
closed = 1;
nodes = (
"442 291 OFFCURVE",
"554 367 OFFCURVE",
"554 502 CURVE SMOOTH",
"554 639 OFFCURVE",
"469 710 OFFCURVE",
"331 710 CURVE SMOOTH",
"276 710 OFFCURVE",
"217 705 OFFCURVE",
"162 705 CURVE",
"162 652 LINE",
"204 656 OFFCURVE",
"247 660 OFFCURVE",
"289 660 CURVE SMOOTH",
"393 660 OFFCURVE",
"460 605 OFFCURVE",
"460 502 CURVE SMOOTH",
"460 394 OFFCURVE",
"392 341 OFFCURVE",
"288 341 CURVE SMOOTH",
"246 341 OFFCURVE",
"147 354 OFFCURVE",
"147 354 CURVE",
"147 296 LINE",
"147 296 OFFCURVE",
"238 291 OFFCURVE",
"308 291 CURVE SMOOTH"
);
}
);
};
layerId = UUID0;
paths = (
{
closed = 1;
nodes = (
"90 -3 OFFCURVE",
"155 0 OFFCURVE",
"180 0 CURVE SMOOTH",
"319 0 LINE",
"326 54 LINE",
"190 64 LINE",
"231 28 LINE",
"226 54 OFFCURVE",
"219 115 OFFCURVE",
"219 167 CURVE SMOOTH",
"219 538 LINE SMOOTH",
"219 590 OFFCURVE",
"227 658 OFFCURVE",
"230 677 CURVE",
"162 705 LINE",
"142 705 OFFCURVE",
"84 708 OFFCURVE",
"47 710 CURVE",
"42 656 LINE",
"155 638 LINE",
"114 677 LINE",
"118 656 OFFCURVE",
"128 590 OFFCURVE",
"128 568 CURVE SMOOTH",
"128 137 LINE SMOOTH",
"128 115 OFFCURVE",
"117 46 OFFCURVE",
"114 28 CURVE",
"155 68 LINE",
"40 45 LINE",
"45 -5 LINE"
);
},
{
closed = 1;
nodes = (
"442 291 OFFCURVE",
"554 367 OFFCURVE",
"554 502 CURVE SMOOTH",
"554 639 OFFCURVE",
"469 710 OFFCURVE",
"331 710 CURVE SMOOTH",
"276 710 OFFCURVE",
"217 705 OFFCURVE",
"162 705 CURVE",
"162 652 LINE",
"204 656 OFFCURVE",
"247 660 OFFCURVE",
"289 660 CURVE SMOOTH",
"393 660 OFFCURVE",
"460 605 OFFCURVE",
"460 502 CURVE SMOOTH",
"460 394 OFFCURVE",
"392 341 OFFCURVE",
"288 341 CURVE SMOOTH",
"241 341 OFFCURVE",
"194 348 OFFCURVE",
"147 354 CURVE",
"147 296 LINE",
"208 293 OFFCURVE",
"254 291 OFFCURVE",
"308 291 CURVE SMOOTH"
);
}
);
width = 597;
},
{
anchors = (
{
name = bottom;
position = "{303, 0}";
},
{
name = top;
position = "{303, 705}";
}
);
background = {
paths = (
{
closed = 1;
nodes = (
"35 -5 OFFCURVE",
"153 0 OFFCURVE",
"181 0 CURVE",
"332 0 LINE",
"337 67 LINE",
"200 78 LINE",
"262 25 LINE",
"257 52 OFFCURVE",
"247 131 OFFCURVE",
"247 187 CURVE SMOOTH",
"247 519 LINE SMOOTH",
"247 568 OFFCURVE",
"252 629 OFFCURVE",
"258 669 CURVE",
"155 705 LINE",
"128 705 OFFCURVE",
"36 710 OFFCURVE",
"36 710 CURVE",
"31 640 LINE",
"155 619 LINE",
"92 667 LINE",
"100 632 OFFCURVE",
"108 576 OFFCURVE",
"108 549 CURVE SMOOTH",
"108 157 LINE SMOOTH",
"108 127 OFFCURVE",
"97 56 OFFCURVE",
"92 25 CURVE",
"155 83 LINE",
"30 60 LINE",
"35 -5 LINE"
);
},
{
closed = 1;
nodes = (
"450 276 OFFCURVE",
"576 357 OFFCURVE",
"576 498 CURVE SMOOTH",
"576 633 OFFCURVE",
"482 710 OFFCURVE",
"343 710 CURVE SMOOTH",
"288 710 OFFCURVE",
"210 705 OFFCURVE",
"155 705 CURVE",
"155 627 LINE",
"185 630 OFFCURVE",
"261 636 OFFCURVE",
"289 636 CURVE SMOOTH",
"384 636 OFFCURVE",
"431 591 OFFCURVE",
"431 498 CURVE SMOOTH",
"431 402 OFFCURVE",
"371 350 OFFCURVE",
"277 350 CURVE SMOOTH",
"239 350 OFFCURVE",
"150 353 OFFCURVE",
"150 353 CURVE",
"150 277 LINE",
"150 277 OFFCURVE",
"238 276 OFFCURVE",
"311 276 CURVE SMOOTH"
);
}
);
};
layerId = "16643525-C5DD-48EC-8E99-463BF28F5E85";
paths = (
{
closed = 1;
nodes = (
"84 -3 OFFCURVE",
"152 0 OFFCURVE",
"181 0 CURVE SMOOTH",
"332 0 LINE",
"338 67 LINE",
"200 78 LINE",
"262 25 LINE",
"257 52 OFFCURVE",
"247 131 OFFCURVE",
"247 187 CURVE SMOOTH",
"247 519 LINE SMOOTH",
"247 568 OFFCURVE",
"252 629 OFFCURVE",
"258 669 CURVE",
"155 705 LINE",
"128 705 OFFCURVE",
"72 708 OFFCURVE",
"36 710 CURVE",
"31 640 LINE",
"155 619 LINE",
"92 667 LINE",
"100 632 OFFCURVE",
"108 576 OFFCURVE",
"108 549 CURVE SMOOTH",
"108 157 LINE SMOOTH",
"108 127 OFFCURVE",
"97 56 OFFCURVE",
"92 25 CURVE",
"155 83 LINE",
"30 60 LINE",
"35 -5 LINE"
);
},
{
closed = 1;
nodes = (
"450 276 OFFCURVE",
"576 357 OFFCURVE",
"576 498 CURVE SMOOTH",
"576 633 OFFCURVE",
"482 710 OFFCURVE",
"343 710 CURVE SMOOTH",
"288 710 OFFCURVE",
"210 705 OFFCURVE",
"155 705 CURVE",
"155 627 LINE",
"185 630 OFFCURVE",
"261 636 OFFCURVE",
"289 636 CURVE SMOOTH",
"384 636 OFFCURVE",
"431 591 OFFCURVE",
"431 498 CURVE SMOOTH",
"431 402 OFFCURVE",
"371 350 OFFCURVE",
"277 350 CURVE SMOOTH",
"235 350 OFFCURVE",
"192 352 OFFCURVE",
"150 353 CURVE",
"150 277 LINE",
"237 276 OFFCURVE",
"277 276 OFFCURVE",
"311 276 CURVE SMOOTH"
);
}
);
width = 605;
}
);
leftKerningGroup = H;
rightKerningGroup = P;
unicode = 0050;
},
{
glyphname = Q;
layers = (
{
anchors = (
{
name = bottom;
position = "{384, 0}";
},
{
name = top;
position = "{384, 705}";
}
);
background = {
components = (
{
name = O;
}
);
paths = (
{
closed = 1;
nodes = (
"677 -224 LINE",
"736 -132 LINE",
"736 -132 OFFCURVE",
"594 -71 OFFCURVE",
"578 -60 CURVE SMOOTH",
"461 21 LINE",
"390 7 LINE"
);
}
);
};
layerId = UUID0;
paths = (
{
closed = 1;
nodes = (
"600 -15 OFFCURVE",
"711 135 OFFCURVE",
"711 352 CURVE SMOOTH",
"711 570 OFFCURVE",
"600 720 OFFCURVE",
"383 720 CURVE SMOOTH",
"166 720 OFFCURVE",
"55 570 OFFCURVE",
"55 352 CURVE SMOOTH",
"55 135 OFFCURVE",
"166 -15 OFFCURVE",
"383 -15 CURVE SMOOTH"
);
},
{
closed = 1;
nodes = (
"736 -132 LINE",
"736 -132 OFFCURVE",
"594 -71 OFFCURVE",
"578 -60 CURVE SMOOTH",
"461 21 LINE",
"390 7 LINE",
"677 -224 LINE"
);
},
{
closed = 1;
nodes = (
"234 38 OFFCURVE",
"162 178 OFFCURVE",
"162 352 CURVE SMOOTH",
"162 527 OFFCURVE",
"234 667 OFFCURVE",
"383 667 CURVE SMOOTH",
"532 667 OFFCURVE",
"604 527 OFFCURVE",
"604 352 CURVE SMOOTH",
"604 178 OFFCURVE",
"532 38 OFFCURVE",
"383 38 CURVE SMOOTH"
);
}
);
width = 767;
},
{
anchors = (
{
name = bottom;
position = "{389, 0}";
},
{
name = top;
position = "{389, 705}";
}
);
background = {
components = (
{
name = O;
transform = "{1, 0, 0, 1, -3, 0}";
}
);
paths = (
{
closed = 1;
nodes = (
"691 -224 LINE",
"781 -100 LINE",
"781 -100 OFFCURVE",
"638 -42 OFFCURVE",
"623 -32 CURVE SMOOTH",
"510 43 LINE",
"372 11 LINE"
);
}
);
};
layerId = "16643525-C5DD-48EC-8E99-463BF28F5E85";
paths = (
{
closed = 1;
nodes = (
"605 -15 OFFCURVE",
"739 132 OFFCURVE",
"739 352 CURVE SMOOTH",
"739 573 OFFCURVE",
"605 720 OFFCURVE",
"389 720 CURVE SMOOTH",
"172 720 OFFCURVE",
"39 573 OFFCURVE",
"39 352 CURVE SMOOTH",
"39 132 OFFCURVE",
"172 -15 OFFCURVE",
"389 -15 CURVE SMOOTH"
);
},
{
closed = 1;
nodes = (
"771 -108 LINE",
"771 -108 OFFCURVE",
"628 -49 OFFCURVE",
"613 -39 CURVE SMOOTH",
"499 38 LINE",
"378 10 LINE",
"689 -224 LINE"
);
},
{
closed = 1;
nodes = (
"262 71 OFFCURVE",
"201 172 OFFCURVE",
"201 352 CURVE SMOOTH",
"201 533 OFFCURVE",
"262 634 OFFCURVE",
"389 634 CURVE SMOOTH",
"516 634 OFFCURVE",
"577 533 OFFCURVE",
"577 352 CURVE SMOOTH",
"577 172 OFFCURVE",
"516 71 OFFCURVE",
"389 71 CURVE SMOOTH"
);
}
);
width = 778;
}
);
leftKerningGroup = O;
rightKerningGroup = Q;
unicode = 0051;
},
{
glyphname = R;
layers = (
{
anchors = (
{
name = bottom;
position = "{340, 0}";
},
{
name = top;
position = "{300, 720}";
}
);
background = {
paths = (
{
closed = 1;
nodes = (
"45 -5 OFFCURVE",
"155 0 OFFCURVE",
"180 0 CURVE",
"309 0 LINE",
"316 54 LINE",
"190 64 LINE",
"231 28 LINE",
"226 54 OFFCURVE",
"219 115 OFFCURVE",
"219 167 CURVE SMOOTH",
"219 538 LINE SMOOTH",
"219 590 OFFCURVE",
"227 658 OFFCURVE",
"230 677 CURVE",
"162 705 LINE",
"142 705 OFFCURVE",
"47 710 OFFCURVE",
"47 710 CURVE",
"42 656 LINE",
"155 638 LINE",
"114 677 LINE",
"118 656 OFFCURVE",
"128 590 OFFCURVE",
"128 568 CURVE SMOOTH",
"128 137 LINE SMOOTH",
"128 115 OFFCURVE",
"117 46 OFFCURVE",
"114 28 CURVE",
"155 68 LINE",
"40 45 LINE",
"45 -5 LINE"
);
},
{
closed = 1;
nodes = (
"547 0 OFFCURVE",
"625 0 OFFCURVE",
"625 0 CURVE",
"632 54 LINE",
"560 61 LINE",
"544 83 OFFCURVE",
"520 116 OFFCURVE",
"511 131 CURVE",
"505 140 OFFCURVE",
"442 243 OFFCURVE",
"389 349 CURVE",
"291 345 LINE",
"412 116 LINE",
"425 92 OFFCURVE",
"467 0 OFFCURVE",
"467 0 CURVE"
);
},
{
closed = 1;
nodes = (
"440 301 OFFCURVE",
"551 376 OFFCURVE",
"551 508 CURVE SMOOTH",
"551 641 OFFCURVE",
"467 710 OFFCURVE",
"330 710 CURVE SMOOTH",
"275 710 OFFCURVE",
"217 705 OFFCURVE",
"162 705 CURVE",
"162 650 LINE SMOOTH",
"162 650 OFFCURVE",
"253 660 OFFCURVE",
"288 660 CURVE SMOOTH",
"391 660 OFFCURVE",
"457 607 OFFCURVE",
"457 507 CURVE SMOOTH",
"457 402 OFFCURVE",
"390 351 OFFCURVE",
"287 351 CURVE SMOOTH",
"245 351 OFFCURVE",
"147 364 OFFCURVE",
"147 364 CURVE",
"147 306 LINE",
"147 306 OFFCURVE",
"237 301 OFFCURVE",
"307 301 CURVE SMOOTH"
);
}
);
};
layerId = UUID0;
paths = (
{
closed = 1;
nodes = (
"90 -3 OFFCURVE",
"155 0 OFFCURVE",
"180 0 CURVE SMOOTH",
"309 0 LINE",
"316 54 LINE",
"190 64 LINE",
"231 28 LINE",
"226 54 OFFCURVE",
"219 115 OFFCURVE",
"219 167 CURVE SMOOTH",
"219 538 LINE SMOOTH",
"219 590 OFFCURVE",
"227 658 OFFCURVE",
"230 677 CURVE",
"162 705 LINE",
"142 705 OFFCURVE",
"84 708 OFFCURVE",
"47 710 CURVE",
"42 656 LINE",
"155 638 LINE",
"114 677 LINE",
"118 656 OFFCURVE",
"128 590 OFFCURVE",
"128 568 CURVE SMOOTH",
"128 137 LINE SMOOTH",
"128 115 OFFCURVE",
"117 46 OFFCURVE",
"114 28 CURVE",
"155 68 LINE",
"40 45 LINE",
"45 -5 LINE"
);
},
{
closed = 1;
nodes = (
"625 0 LINE",
"632 54 LINE",
"560 61 LINE",
"544 83 OFFCURVE",
"520 116 OFFCURVE",
"511 131 CURVE SMOOTH",
"505 140 OFFCURVE",
"442 243 OFFCURVE",
"389 349 CURVE",
"291 345 LINE",
"412 116 LINE SMOOTH",
"420 100 OFFCURVE",
"449 39 OFFCURVE",
"467 0 CURVE"
);
},
{
closed = 1;
nodes = (
"440 301 OFFCURVE",
"551 376 OFFCURVE",
"551 508 CURVE SMOOTH",
"551 641 OFFCURVE",
"467 710 OFFCURVE",
"330 710 CURVE SMOOTH",
"275 710 OFFCURVE",
"217 705 OFFCURVE",
"162 705 CURVE",
"162 650 LINE",
"204 655 OFFCURVE",
"252 660 OFFCURVE",
"288 660 CURVE SMOOTH",
"391 660 OFFCURVE",
"457 607 OFFCURVE",
"457 507 CURVE SMOOTH",
"457 402 OFFCURVE",
"390 351 OFFCURVE",
"287 351 CURVE SMOOTH",
"240 351 OFFCURVE",
"194 358 OFFCURVE",
"147 364 CURVE",
"147 306 LINE",
"200 303 OFFCURVE",
"254 301 OFFCURVE",
"307 301 CURVE SMOOTH"
);
}
);
width = 663;
},
{
anchors = (
{
name = bottom;
position = "{320, 0}";
},
{
name = top;
position = "{310, 720}";
}
);
background = {
paths = (
{
closed = 1;
nodes = (
"35 -5 OFFCURVE",
"153 0 OFFCURVE",
"181 0 CURVE",
"314 0 LINE",
"320 67 LINE",
"200 78 LINE",
"262 25 LINE",
"257 52 OFFCURVE",
"247 131 OFFCURVE",
"247 187 CURVE SMOOTH",
"247 519 LINE SMOOTH",
"247 568 OFFCURVE",
"252 629 OFFCURVE",
"258 669 CURVE",
"155 705 LINE",
"128 705 OFFCURVE",
"36 710 OFFCURVE",
"36 710 CURVE",
"31 640 LINE",
"155 619 LINE",
"92 667 LINE",
"100 632 OFFCURVE",
"108 576 OFFCURVE",
"108 549 CURVE SMOOTH",
"108 157 LINE SMOOTH",
"108 127 OFFCURVE",
"97 56 OFFCURVE",
"92 25 CURVE",
"155 83 LINE",
"30 60 LINE",
"35 -5 LINE"
);
},
{
closed = 1;
nodes = (
"557 0 OFFCURVE",
"635 0 OFFCURVE",
"635 0 CURVE",
"641 67 LINE",
"587 72 LINE",
"549 128 OFFCURVE",
"557 117 OFFCURVE",
"548 131 CURVE",
"543 140 OFFCURVE",
"476 243 OFFCURVE",
"426 349 CURVE",
"283 345 LINE",
"402 116 LINE",
"415 92 OFFCURVE",
"453 0 OFFCURVE",
"453 0 CURVE"
);
},
{
closed = 1;
nodes = (
"442 283 OFFCURVE",
"570 368 OFFCURVE",
"570 505 CURVE SMOOTH",
"570 633 OFFCURVE",
"477 710 OFFCURVE",
"339 710 CURVE SMOOTH",
"284 710 OFFCURVE",
"210 705 OFFCURVE",
"155 705 CURVE",
"155 626 LINE",
"186 629 OFFCURVE",
"269 636 OFFCURVE",
"292 636 CURVE SMOOTH",
"385 636 OFFCURVE",
"425 587 OFFCURVE",
"425 500 CURVE SMOOTH",
"425 406 OFFCURVE",
"375 359 OFFCURVE",
"282 359 CURVE SMOOTH",
"245 359 OFFCURVE",
"144 362 OFFCURVE",
"144 362 CURVE",
"144 294 LINE",
"144 294 OFFCURVE",
"254 283 OFFCURVE",
"302 283 CURVE SMOOTH"
);
}
);
};
layerId = "16643525-C5DD-48EC-8E99-463BF28F5E85";
paths = (
{
closed = 1;
nodes = (
"84 -3 OFFCURVE",
"152 0 OFFCURVE",
"181 0 CURVE SMOOTH",
"314 0 LINE",
"320 67 LINE",
"200 78 LINE",
"262 25 LINE",
"257 52 OFFCURVE",
"247 131 OFFCURVE",
"247 187 CURVE SMOOTH",
"247 519 LINE SMOOTH",
"247 568 OFFCURVE",
"252 629 OFFCURVE",
"258 669 CURVE",
"155 705 LINE",
"128 705 OFFCURVE",
"72 708 OFFCURVE",
"36 710 CURVE",
"31 640 LINE",
"155 619 LINE",
"92 667 LINE",
"100 632 OFFCURVE",
"108 576 OFFCURVE",
"108 549 CURVE SMOOTH",
"108 157 LINE SMOOTH",
"108 127 OFFCURVE",
"97 56 OFFCURVE",
"92 25 CURVE",
"155 83 LINE",
"30 60 LINE",
"35 -5 LINE"
);
},
{
closed = 1;
nodes = (
"635 0 LINE",
"641 67 LINE",
"587 72 LINE",
"577 87 OFFCURVE",
"557 117 OFFCURVE",
"548 131 CURVE SMOOTH",
"543 140 OFFCURVE",
"476 243 OFFCURVE",
"426 349 CURVE",
"283 345 LINE",
"402 116 LINE SMOOTH",
"410 100 OFFCURVE",
"436 39 OFFCURVE",
"453 0 CURVE"
);
},
{
closed = 1;
nodes = (
"442 283 OFFCURVE",
"570 368 OFFCURVE",
"570 505 CURVE SMOOTH",
"570 633 OFFCURVE",
"477 710 OFFCURVE",
"339 710 CURVE SMOOTH",
"284 710 OFFCURVE",
"210 705 OFFCURVE",
"155 705 CURVE",
"155 626 LINE",
"186 629 OFFCURVE",
"269 636 OFFCURVE",
"292 636 CURVE SMOOTH",
"385 636 OFFCURVE",
"425 587 OFFCURVE",
"425 500 CURVE SMOOTH",
"425 406 OFFCURVE",
"375 359 OFFCURVE",
"282 359 CURVE SMOOTH",
"236 359 OFFCURVE",
"190 361 OFFCURVE",
"144 362 CURVE",
"144 294 LINE",
"197 289 OFFCURVE",
"250 283 OFFCURVE",
"302 283 CURVE SMOOTH"
);
}
);
width = 659;
}
);
leftKerningGroup = H;
rightKerningGroup = R;
unicode = 0052;
},
{
glyphname = Racute;
layers = (
{
anchors = (
{
name = top;
position = "{320, 995}";
}
);
components = (
{
name = R;
}
);
layerId = UUID0;
paths = (
{
closed = 1;
nodes = (
"456 845 LINE",
"426 908 LINE",
"203 794 LINE",
"221 753 LINE"
);
}
);
width = 663;
},
{
anchors = (
{
name = top;
position = "{320, 1015}";
}
);
components = (
{
name = R;
}
);
layerId = "16643525-C5DD-48EC-8E99-463BF28F5E85";
paths = (
{
closed = 1;
nodes = (
"465 831 LINE",
"431 907 LINE",
"195 804 LINE",
"220 752 LINE"
);
}
);
width = 659;
}
);
leftKerningGroup = H;
rightKerningGroup = R;
unicode = 0154;
},
{
glyphname = S;
layers = (
{
anchors = (
{
name = bottom;
position = "{267, 0}";
},
{
name = top;
position = "{295, 720}";
}
);
background = {
paths = (
{
closed = 1;
nodes = (
"407 -15 OFFCURVE",
"514 49 OFFCURVE",
"514 182 CURVE SMOOTH",
"514 409 OFFCURVE",
"168 397 OFFCURVE",
"168 554 CURVE SMOOTH",
"168 628 OFFCURVE",
"220 665 OFFCURVE",
"282 665 CURVE SMOOTH",
"336 665 OFFCURVE",
"371 659 OFFCURVE",
"427 630 CURVE",
"395 670 LINE",
"402 643 OFFCURVE",
"414 600 OFFCURVE",
"414 587 CURVE",
"414 543 LINE",
"473 537 LINE",
"487 688 LINE",
"423 704 OFFCURVE",
"350 720 OFFCURVE",
"285 720 CURVE SMOOTH",
"161 720 OFFCURVE",
"68 655 OFFCURVE",
"68 535 CURVE SMOOTH",
"68 319 OFFCURVE",
"409 334 OFFCURVE",
"409 170 CURVE SMOOTH",
"409 89 OFFCURVE",
"357 45 OFFCURVE",
"277 45 CURVE SMOOTH",
"219 45 OFFCURVE",
"165 63 OFFCURVE",
"129 80 CURVE",
"152 53 LINE",
"147 68 OFFCURVE",
"136 122 OFFCURVE",
"136 138 CURVE SMOOTH",
"136 186 LINE",
"70 192 LINE",
"55 38 LINE",
"55 38 OFFCURVE",
"141 -15 OFFCURVE",
"275 -15 CURVE SMOOTH"
);
}
);
};
layerId = UUID0;
paths = (
{
closed = 1;
nodes = (
"407 -15 OFFCURVE",
"514 49 OFFCURVE",
"514 182 CURVE SMOOTH",
"514 409 OFFCURVE",
"168 397 OFFCURVE",
"168 554 CURVE SMOOTH",
"168 628 OFFCURVE",
"220 665 OFFCURVE",
"282 665 CURVE SMOOTH",
"336 665 OFFCURVE",
"371 659 OFFCURVE",
"427 630 CURVE",
"395 670 LINE",
"402 643 OFFCURVE",
"414 600 OFFCURVE",
"414 587 CURVE SMOOTH",
"414 543 LINE",
"473 537 LINE",
"487 688 LINE",
"423 704 OFFCURVE",
"350 720 OFFCURVE",
"285 720 CURVE SMOOTH",
"161 720 OFFCURVE",
"68 655 OFFCURVE",
"68 535 CURVE SMOOTH",
"68 319 OFFCURVE",
"409 334 OFFCURVE",
"409 170 CURVE SMOOTH",
"409 89 OFFCURVE",
"357 45 OFFCURVE",
"277 45 CURVE SMOOTH",
"219 45 OFFCURVE",
"165 63 OFFCURVE",
"129 80 CURVE",
"152 53 LINE",
"147 68 OFFCURVE",
"136 124 OFFCURVE",
"136 138 CURVE SMOOTH",
"136 186 LINE",
"70 192 LINE",
"55 38 LINE",
"55 38 OFFCURVE",
"141 -15 OFFCURVE",
"275 -15 CURVE SMOOTH"
);
}
);
width = 565;
},
{
anchors = (
{
name = bottom;
position = "{275, 0}";
},
{
name = top;
position = "{291, 720}";
}
);
background = {
paths = (
{
closed = 1;
nodes = (
"417 -15 OFFCURVE",
"528 63 OFFCURVE",
"528 199 CURVE SMOOTH",
"528 428 OFFCURVE",
"203 408 OFFCURVE",
"203 548 CURVE SMOOTH",
"203 604 OFFCURVE",
"246 637 OFFCURVE",
"307 637 CURVE SMOOTH",
"360 637 OFFCURVE",
"417 609 OFFCURVE",
"457 589 CURVE",
"382 659 LINE",
"393 624 OFFCURVE",
"412 574 OFFCURVE",
"412 564 CURVE SMOOTH",
"414 507 LINE",
"487 503 LINE",
"501 685 LINE",
"432 705 OFFCURVE",
"351 720 OFFCURVE",
"285 720 CURVE SMOOTH",
"152 720 OFFCURVE",
"55 646 OFFCURVE",
"55 525 CURVE SMOOTH",
"55 292 OFFCURVE",
"378 318 OFFCURVE",
"378 167 CURVE SMOOTH",
"378 104 OFFCURVE",
"330 73 OFFCURVE",
"267 73 CURVE SMOOTH",
"201 73 OFFCURVE",
"148 103 OFFCURVE",
"105 122 CURVE",
"174 50 LINE",
"172 58 OFFCURVE",
"141 135 OFFCURVE",
"141 148 CURVE SMOOTH",
"140 212 LINE",
"61 218 LINE",
"46 34 LINE",
"46 34 OFFCURVE",
"141 -15 OFFCURVE",
"276 -15 CURVE SMOOTH"
);
}
);
};
layerId = "16643525-C5DD-48EC-8E99-463BF28F5E85";
paths = (
{
closed = 1;
nodes = (
"417 -15 OFFCURVE",
"528 63 OFFCURVE",
"528 199 CURVE SMOOTH",
"528 428 OFFCURVE",
"203 408 OFFCURVE",
"203 548 CURVE SMOOTH",
"203 604 OFFCURVE",
"246 637 OFFCURVE",
"307 637 CURVE SMOOTH",
"360 637 OFFCURVE",
"417 609 OFFCURVE",
"457 589 CURVE",
"382 659 LINE",
"395 624 OFFCURVE",
"412 574 OFFCURVE",
"412 564 CURVE SMOOTH",
"414 507 LINE",
"487 503 LINE",
"501 685 LINE",
"432 705 OFFCURVE",
"351 720 OFFCURVE",
"285 720 CURVE SMOOTH",
"152 720 OFFCURVE",
"55 646 OFFCURVE",
"55 525 CURVE SMOOTH",
"55 292 OFFCURVE",
"378 318 OFFCURVE",
"378 167 CURVE SMOOTH",
"378 104 OFFCURVE",
"330 73 OFFCURVE",
"267 73 CURVE SMOOTH",
"201 73 OFFCURVE",
"148 102 OFFCURVE",
"105 122 CURVE",
"174 50 LINE",
"172 58 OFFCURVE",
"141 135 OFFCURVE",
"141 148 CURVE SMOOTH",
"140 212 LINE",
"61 218 LINE",
"46 34 LINE",
"46 34 OFFCURVE",
"141 -15 OFFCURVE",
"276 -15 CURVE SMOOTH"
);
}
);
width = 568;
}
);
leftKerningGroup = S;
rightKerningGroup = S;
unicode = 0053;
},
{
glyphname = T;
layers = (
{
anchors = (
{
name = bottom;
position = "{334, 0}";
},
{
name = center;
position = "{327, 353}";
},
{
name = top;
position = "{330, 720}";
}
);
background = {
paths = (
{
closed = 1;
nodes = (
"239 -3 OFFCURVE",
"312 0 OFFCURVE",
"336 0 CURVE SMOOTH",
"475 0 LINE",
"482 54 LINE",
"346 64 LINE",
"387 28 LINE",
"382 54 OFFCURVE",
"375 115 OFFCURVE",
"375 167 CURVE SMOOTH",
"375 538 LINE SMOOTH",
"375 590 OFFCURVE",
"383 658 OFFCURVE",
"386 677 CURVE",
"270 677 LINE",
"274 656 OFFCURVE",
"284 590 OFFCURVE",
"284 568 CURVE SMOOTH",
"284 137 LINE SMOOTH",
"284 115 OFFCURVE",
"273 46 OFFCURVE",
"270 28 CURVE",
"311 68 LINE",
"186 45 LINE",
"191 -5 LINE"
);
},
{
closed = 1;
nodes = (
"102 549 OFFCURVE",
"109 592 OFFCURVE",
"113 607 CURVE",
"147 677 LINE",
"104 643 LINE",
"124 644 OFFCURVE",
"176 649 OFFCURVE",
"212 649 CURVE SMOOTH",
"447 649 LINE SMOOTH",
"483 649 OFFCURVE",
"535 644 OFFCURVE",
"555 643 CURVE",
"512 677 LINE",
"546 607 LINE",
"550 592 OFFCURVE",
"557 549 OFFCURVE",
"559 523 CURVE",
"617 528 LINE",
"610 692 LINE",
"591 710 LINE",
"591 710 OFFCURVE",
"497 705 OFFCURVE",
"477 705 CURVE SMOOTH",
"182 705 LINE SMOOTH",
"162 705 OFFCURVE",
"68 710 OFFCURVE",
"68 710 CURVE",
"49 692 LINE",
"42 528 LINE",
"100 523 LINE"
);
}
);
};
layerId = UUID0;
paths = (
{
closed = 1;
nodes = (
"239 -3 OFFCURVE",
"312 0 OFFCURVE",
"336 0 CURVE SMOOTH",
"475 0 LINE",
"482 54 LINE",
"346 64 LINE",
"387 28 LINE",
"382 54 OFFCURVE",
"375 115 OFFCURVE",
"375 167 CURVE SMOOTH",
"375 538 LINE SMOOTH",
"375 590 OFFCURVE",
"383 658 OFFCURVE",
"386 677 CURVE",
"270 677 LINE",
"274 656 OFFCURVE",
"284 590 OFFCURVE",
"284 568 CURVE SMOOTH",
"284 137 LINE SMOOTH",
"284 115 OFFCURVE",
"273 46 OFFCURVE",
"270 28 CURVE",
"311 68 LINE",
"186 45 LINE",
"191 -5 LINE"
);
},
{
closed = 1;
nodes = (
"102 549 OFFCURVE",
"109 592 OFFCURVE",
"113 607 CURVE",
"147 677 LINE",
"104 643 LINE",
"124 644 OFFCURVE",
"176 649 OFFCURVE",
"212 649 CURVE SMOOTH",
"447 649 LINE SMOOTH",
"483 649 OFFCURVE",
"535 645 OFFCURVE",
"555 643 CURVE",
"512 677 LINE",
"546 607 LINE",
"550 592 OFFCURVE",
"557 549 OFFCURVE",
"559 523 CURVE",
"617 528 LINE",
"610 692 LINE",
"591 710 LINE",
"553 708 OFFCURVE",
"495 705 OFFCURVE",
"477 705 CURVE SMOOTH",
"182 705 LINE SMOOTH",
"164 705 OFFCURVE",
"106 708 OFFCURVE",
"68 710 CURVE",
"49 692 LINE",
"42 528 LINE",
"100 523 LINE"
);
}
);
width = 659;
},
{
anchors = (
{
name = bottom;
position = "{330, 0}";
},
{
name = center;
position = "{328, 353}";
},
{
name = top;
position = "{329, 720}";
}
);
background = {
anchors = (
{
name = bottom;
position = "{330, 0}";
},
{
name = center;
position = "{328, 353}";
},
{
name = top;
position = "{329, 720}";
}
);
paths = (
{
closed = 1;
nodes = (
"224 -3 OFFCURVE",
"308 0 OFFCURVE",
"333 0 CURVE SMOOTH",
"491 0 LINE",
"496 67 LINE",
"351 78 LINE",
"414 25 LINE",
"408 55 OFFCURVE",
"399 133 OFFCURVE",
"399 187 CURVE SMOOTH",
"399 519 LINE SMOOTH",
"399 575 OFFCURVE",
"407 629 OFFCURVE",
"414 669 CURVE",
"244 667 LINE",
"251 635 OFFCURVE",
"260 576 OFFCURVE",
"260 549 CURVE SMOOTH",
"260 157 LINE SMOOTH",
"260 129 OFFCURVE",
"249 58 OFFCURVE",
"244 25 CURVE",
"306 83 LINE",
"164 60 LINE",
"169 -5 LINE"
);
},
{
closed = 1;
nodes = (
"98 530 OFFCURVE",
"104 573 OFFCURVE",
"108 589 CURVE",
"136 679 LINE",
"81 623 LINE",
"92 624 OFFCURVE",
"152 630 OFFCURVE",
"200 630 CURVE SMOOTH",
"462 630 LINE SMOOTH",
"511 630 OFFCURVE",
"562 624 OFFCURVE",
"582 623 CURVE",
"519 678 LINE",
"553 589 LINE",
"555 574 OFFCURVE",
"561 530 OFFCURVE",
"563 511 CURVE",
"630 516 LINE",
"622 692 LINE",
"603 710 LINE",
"574 708 OFFCURVE",
"505 705 OFFCURVE",
"488 705 CURVE",
"170 705 LINE SMOOTH",
"152 705 OFFCURVE",
"94 708 OFFCURVE",
"56 710 CURVE",
"36 692 LINE",
"29 516 LINE",
"96 511 LINE"
);
}
);
};
layerId = "16643525-C5DD-48EC-8E99-463BF28F5E85";
paths = (
{
closed = 1;
nodes = (
"224 -3 OFFCURVE",
"308 0 OFFCURVE",
"333 0 CURVE SMOOTH",
"491 0 LINE",
"496 67 LINE",
"351 78 LINE",
"414 25 LINE",
"408 55 OFFCURVE",
"399 133 OFFCURVE",
"399 187 CURVE SMOOTH",
"399 519 LINE SMOOTH",
"399 575 OFFCURVE",
"407 629 OFFCURVE",
"414 669 CURVE",
"244 667 LINE",
"251 635 OFFCURVE",
"260 576 OFFCURVE",
"260 549 CURVE SMOOTH",
"260 157 LINE SMOOTH",
"260 129 OFFCURVE",
"249 58 OFFCURVE",
"244 25 CURVE",
"306 83 LINE",
"164 60 LINE",
"169 -5 LINE"
);
},
{
closed = 1;
nodes = (
"98 530 OFFCURVE",
"104 573 OFFCURVE",
"108 589 CURVE",
"136 679 LINE",
"81 623 LINE",
"92 624 OFFCURVE",
"152 630 OFFCURVE",
"200 630 CURVE SMOOTH",
"462 630 LINE SMOOTH",
"511 630 OFFCURVE",
"562 625 OFFCURVE",
"582 623 CURVE",
"519 678 LINE",
"553 589 LINE",
"555 574 OFFCURVE",
"561 530 OFFCURVE",
"563 511 CURVE",
"630 516 LINE",
"622 692 LINE",
"603 710 LINE",
"574 708 OFFCURVE",
"505 705 OFFCURVE",
"488 705 CURVE SMOOTH",
"170 705 LINE SMOOTH",
"152 705 OFFCURVE",
"94 708 OFFCURVE",
"56 710 CURVE",
"36 692 LINE",
"29 516 LINE",
"96 511 LINE"
);
}
);
width = 658;
}
);
leftKerningGroup = T;
rightKerningGroup = T;
unicode = 0054;
},
{
glyphname = Thorn;
layers = (
{
anchors = (
{
name = bottom;
position = "{291, 0}";
},
{
name = top;
position = "{291, 705}";
}
);
background = {
paths = (
{
closed = 1;
nodes = (
"185 167 OFFCURVE",
"268 167 OFFCURVE",
"296 167 CURVE SMOOTH",
"430 167 OFFCURVE",
"542 238 OFFCURVE",
"542 361 CURVE SMOOTH",
"542 490 OFFCURVE",
"457 558 OFFCURVE",
"319 558 CURVE SMOOTH",
"289 558 OFFCURVE",
"198 555 OFFCURVE",
"157 552 CURVE",
"157 502 LINE",
"182 504 OFFCURVE",
"257 507 OFFCURVE",
"276 507 CURVE SMOOTH",
"380 507 OFFCURVE",
"448 457 OFFCURVE",
"448 361 CURVE SMOOTH",
"448 266 OFFCURVE",
"379 218 OFFCURVE",
"276 218 CURVE SMOOTH",
"249 218 OFFCURVE",
"186 219 OFFCURVE",
"157 221 CURVE",
"157 168 LINE"
);
},
{
closed = 1;
nodes = (
"45 -4 OFFCURVE",
"155 1 OFFCURVE",
"180 1 CURVE",
"309 1 LINE",
"316 55 LINE",
"190 65 LINE",
"231 29 LINE",
"226 55 OFFCURVE",
"219 116 OFFCURVE",
"219 168 CURVE SMOOTH",
"219 539 LINE SMOOTH",
"219 591 OFFCURVE",
"227 659 OFFCURVE",
"230 678 CURVE",
"190 642 LINE",
"304 652 LINE",
"300 711 LINE",
"300 711 OFFCURVE",
"222 705 OFFCURVE",
"162 705 CURVE SMOOTH",
"142 705 OFFCURVE",
"47 711 OFFCURVE",
"47 711 CURVE",
"42 657 LINE",
"155 639 LINE",
"114 678 LINE",
"118 657 OFFCURVE",
"128 591 OFFCURVE",
"128 569 CURVE SMOOTH",
"128 138 LINE SMOOTH",
"128 116 OFFCURVE",
"117 47 OFFCURVE",
"114 29 CURVE",
"155 69 LINE",
"40 46 LINE",
"45 -4 LINE"
);
}
);
};
layerId = UUID0;
paths = (
{
closed = 1;
nodes = (
"45 -4 OFFCURVE",
"155 1 OFFCURVE",
"180 1 CURVE",
"309 1 LINE",
"316 55 LINE",
"190 65 LINE",
"231 29 LINE",
"226 55 OFFCURVE",
"219 116 OFFCURVE",
"219 167 CURVE SMOOTH",
"219 539 LINE SMOOTH",
"219 591 OFFCURVE",
"227 659 OFFCURVE",
"230 678 CURVE",
"190 642 LINE",
"304 652 LINE",
"300 711 LINE",
"259 708 OFFCURVE",
"222 705 OFFCURVE",
"162 705 CURVE SMOOTH",
"142 705 OFFCURVE",
"84 708 OFFCURVE",
"47 710 CURVE",
"42 656 LINE",
"157 639 LINE",
"114 678 LINE",
"118 657 OFFCURVE",
"128 591 OFFCURVE",
"128 569 CURVE SMOOTH",
"128 138 LINE SMOOTH",
"128 116 OFFCURVE",
"117 47 OFFCURVE",
"114 29 CURVE",
"155 69 LINE",
"40 46 LINE",
"45 -4 LINE"
);
},
{
closed = 1;
nodes = (
"185 167 OFFCURVE",
"268 167 OFFCURVE",
"296 167 CURVE SMOOTH",
"430 167 OFFCURVE",
"542 238 OFFCURVE",
"542 361 CURVE SMOOTH",
"542 490 OFFCURVE",
"457 558 OFFCURVE",
"319 558 CURVE SMOOTH",
"289 558 OFFCURVE",
"198 555 OFFCURVE",
"157 552 CURVE",
"157 502 LINE",
"182 504 OFFCURVE",
"257 507 OFFCURVE",
"276 507 CURVE SMOOTH",
"380 507 OFFCURVE",
"448 457 OFFCURVE",
"448 361 CURVE SMOOTH",
"448 266 OFFCURVE",
"379 218 OFFCURVE",
"276 218 CURVE SMOOTH",
"249 218 OFFCURVE",
"186 219 OFFCURVE",
"157 221 CURVE",
"157 167 LINE"
);
}
);
width = 583;
},
{
anchors = (
{
name = bottom;
position = "{297, 0}";
},
{
name = top;
position = "{297, 705}";
}
);
background = {
paths = (
{
closed = 1;
nodes = (
"213 162 OFFCURVE",
"294 163 OFFCURVE",
"318 163 CURVE SMOOTH",
"454 163 OFFCURVE",
"567 234 OFFCURVE",
"567 358 CURVE SMOOTH",
"567 480 OFFCURVE",
"474 554 OFFCURVE",
"335 554 CURVE SMOOTH",
"314 554 OFFCURVE",
"225 552 OFFCURVE",
"185 549 CURVE",
"185 478 LINE",
"202 478 OFFCURVE",
"272 479 OFFCURVE",
"281 479 CURVE SMOOTH",
"376 479 OFFCURVE",
"423 438 OFFCURVE",
"423 358 CURVE SMOOTH",
"423 279 OFFCURVE",
"361 238 OFFCURVE",
"269 238 CURVE SMOOTH",
"260 238 OFFCURVE",
"198 238 OFFCURVE",
"185 237 CURVE",
"185 162 LINE"
);
},
{
closed = 1;
nodes = (
"35 -5 OFFCURVE",
"153 0 OFFCURVE",
"181 0 CURVE",
"322 0 LINE",
"327 67 LINE",
"200 78 LINE",
"262 25 LINE",
"257 52 OFFCURVE",
"247 131 OFFCURVE",
"247 187 CURVE SMOOTH",
"247 519 LINE SMOOTH",
"247 569 OFFCURVE",
"255 629 OFFCURVE",
"262 669 CURVE",
"200 623 LINE",
"325 635 LINE",
"320 710 LINE",
"320 710 OFFCURVE",
"230 705 OFFCURVE",
"155 705 CURVE SMOOTH",
"128 705 OFFCURVE",
"36 710 OFFCURVE",
"36 710 CURVE",
"31 640 LINE",
"155 619 LINE",
"92 667 LINE",
"100 632 OFFCURVE",
"108 576 OFFCURVE",
"108 549 CURVE SMOOTH",
"108 157 LINE SMOOTH",
"108 127 OFFCURVE",
"97 56 OFFCURVE",
"92 25 CURVE",
"155 83 LINE",
"30 60 LINE",
"35 -5 LINE"
);
}
);
};
layerId = "16643525-C5DD-48EC-8E99-463BF28F5E85";
paths = (
{
closed = 1;
nodes = (
"84 -2 OFFCURVE",
"132 0 OFFCURVE",
"181 0 CURVE SMOOTH",
"322 0 LINE",
"327 67 LINE",
"200 78 LINE",
"262 25 LINE",
"257 52 OFFCURVE",
"247 131 OFFCURVE",
"247 187 CURVE SMOOTH",
"247 519 LINE SMOOTH",
"247 569 OFFCURVE",
"255 629 OFFCURVE",
"262 669 CURVE",
"200 623 LINE",
"325 635 LINE",
"320 710 LINE",
"265 707 OFFCURVE",
"210 705 OFFCURVE",
"155 705 CURVE SMOOTH",
"128 705 OFFCURVE",
"72 708 OFFCURVE",
"36 710 CURVE",
"31 640 LINE",
"155 619 LINE",
"92 667 LINE",
"100 632 OFFCURVE",
"108 576 OFFCURVE",
"108 549 CURVE SMOOTH",
"108 157 LINE SMOOTH",
"108 127 OFFCURVE",
"97 56 OFFCURVE",
"92 25 CURVE",
"155 83 LINE",
"30 60 LINE",
"35 -5 LINE"
);
},
{
closed = 1;
nodes = (
"213 162 OFFCURVE",
"294 163 OFFCURVE",
"318 163 CURVE SMOOTH",
"454 163 OFFCURVE",
"567 234 OFFCURVE",
"567 358 CURVE SMOOTH",
"567 480 OFFCURVE",
"474 554 OFFCURVE",
"335 554 CURVE SMOOTH",
"314 554 OFFCURVE",
"225 552 OFFCURVE",
"185 549 CURVE",
"185 478 LINE",
"202 478 OFFCURVE",
"272 479 OFFCURVE",
"281 479 CURVE SMOOTH",
"376 479 OFFCURVE",
"423 438 OFFCURVE",
"423 358 CURVE SMOOTH",
"423 279 OFFCURVE",
"361 238 OFFCURVE",
"269 238 CURVE SMOOTH",
"260 238 OFFCURVE",
"198 238 OFFCURVE",
"185 237 CURVE",
"185 162 LINE"
);
}
);
width = 594;
}
);
leftKerningGroup = H;
rightKerningGroup = Thorn;
unicode = 00DE;
},
{
glyphname = U;
layers = (
{
anchors = (
{
name = bottom;
position = "{383, 0}";
},
{
name = horn;
position = "{605, 460}";
},
{
name = ogonek;
position = "{475, 0}";
},
{
name = top;
position = "{378, 720}";
}
);
background = {
paths = (
{
closed = 1;
nodes = (
"35 710 CURVE",
"30 656 LINE",
"109 644 LINE",
"111 629 OFFCURVE",
"118 580 OFFCURVE",
"118 563 CURVE SMOOTH",
"118 266 LINE SMOOTH",
"118 95 OFFCURVE",
"205 -15 OFFCURVE",
"376 -15 CURVE SMOOTH",
"547 -15 OFFCURVE",
"635 95 OFFCURVE",
"635 266 CURVE SMOOTH",
"635 533 LINE SMOOTH",
"635 576 OFFCURVE",
"640 629 OFFCURVE",
"642 644 CURVE",
"721 651 LINE",
"717 710 LINE",
"717 710 OFFCURVE",
"635 705 OFFCURVE",
"585 705 CURVE SMOOTH",
"565 705 OFFCURVE",
"480 710 OFFCURVE",
"480 710 CURVE",
"475 656 LINE",
"553 644 LINE",
"555 630 OFFCURVE",
"563 580 OFFCURVE",
"563 563 CURVE SMOOTH",
"563 266 LINE SMOOTH",
"563 140 OFFCURVE",
"505 49 OFFCURVE",
"385 49 CURVE SMOOTH",
"270 49 OFFCURVE",
"213 139 OFFCURVE",
"213 266 CURVE SMOOTH",
"213 533 LINE SMOOTH",
"213 576 OFFCURVE",
"218 629 OFFCURVE",
"220 644 CURVE",
"299 651 LINE",
"295 710 LINE",
"295 710 OFFCURVE",
"210 705 OFFCURVE",
"150 705 CURVE SMOOTH",
"130 705 OFFCURVE",
"35 710 OFFCURVE"
);
}
);
};
layerId = UUID0;
paths = (
{
closed = 1;
nodes = (
"547 -15 OFFCURVE",
"635 95 OFFCURVE",
"635 266 CURVE SMOOTH",
"635 533 LINE SMOOTH",
"635 585 OFFCURVE",
"643 657 OFFCURVE",
"646 682 CURVE",
"606 641 LINE",
"721 651 LINE",
"717 710 LINE",
"680 708 OFFCURVE",
"629 705 OFFCURVE",
"585 705 CURVE SMOOTH",
"565 705 OFFCURVE",
"516 708 OFFCURVE",
"480 710 CURVE",
"475 656 LINE",
"592 638 LINE",
"547 682 LINE",
"550 667 OFFCURVE",
"563 585 OFFCURVE",
"563 563 CURVE SMOOTH",
"563 266 LINE SMOOTH",
"563 140 OFFCURVE",
"505 49 OFFCURVE",
"385 49 CURVE SMOOTH",
"270 49 OFFCURVE",
"213 139 OFFCURVE",
"213 266 CURVE SMOOTH",
"213 533 LINE SMOOTH",
"213 585 OFFCURVE",
"221 657 OFFCURVE",
"224 682 CURVE",
"184 641 LINE",
"299 651 LINE",
"295 710 LINE",
"264 708 OFFCURVE",
"190 705 OFFCURVE",
"150 705 CURVE SMOOTH",
"130 705 OFFCURVE",
"72 708 OFFCURVE",
"35 710 CURVE",
"30 656 LINE",
"145 639 LINE",
"103 682 LINE",
"107 655 OFFCURVE",
"118 585 OFFCURVE",
"118 563 CURVE SMOOTH",
"118 266 LINE SMOOTH",
"118 95 OFFCURVE",
"205 -15 OFFCURVE",
"376 -15 CURVE SMOOTH"
);
}
);
width = 752;
},
{
anchors = (
{
name = bottom;
position = "{376, 0}";
},
{
name = horn;
position = "{627, 460}";
},
{
name = ogonek;
position = "{483, 0}";
},
{
name = top;
position = "{384, 720}";
}
);
background = {
paths = (
{
closed = 1;
nodes = (
"560 -15 OFFCURVE",
"657 97 OFFCURVE",
"657 268 CURVE SMOOTH",
"657 517 LINE SMOOTH",
"657 568 OFFCURVE",
"665 636 OFFCURVE",
"673 678 CURVE",
"610 623 LINE",
"735 635 LINE",
"730 710 LINE",
"730 710 OFFCURVE",
"649 705 OFFCURVE",
"577 705 CURVE SMOOTH",
"549 705 OFFCURVE",
"468 710 OFFCURVE",
"468 710 CURVE",
"463 640 LINE",
"587 619 LINE",
"524 678 LINE",
"529 643 OFFCURVE",
"540 575 OFFCURVE",
"540 547 CURVE SMOOTH",
"540 262 LINE SMOOTH",
"540 155 OFFCURVE",
"498 87 OFFCURVE",
"390 87 CURVE SMOOTH",
"290 87 OFFCURVE",
"238 163 OFFCURVE",
"238 262 CURVE SMOOTH",
"238 517 LINE SMOOTH",
"238 567 OFFCURVE",
"243 627 OFFCURVE",
"251 678 CURVE",
"189 623 LINE",
"315 635 LINE",
"310 710 LINE",
"310 710 OFFCURVE",
"217 705 OFFCURVE",
"142 705 CURVE SMOOTH",
"116 705 OFFCURVE",
"40 709 OFFCURVE",
"22 710 CURVE",
"17 640 LINE",
"141 619 LINE",
"80 678 LINE",
"83 654 OFFCURVE",
"94 577 OFFCURVE",
"94 547 CURVE SMOOTH",
"94 268 LINE SMOOTH",
"94 97 OFFCURVE",
"189 -15 OFFCURVE",
"375 -15 CURVE SMOOTH"
);
}
);
};
layerId = "16643525-C5DD-48EC-8E99-463BF28F5E85";
paths = (
{
closed = 1;
nodes = (
"560 -15 OFFCURVE",
"657 97 OFFCURVE",
"657 268 CURVE SMOOTH",
"657 517 LINE SMOOTH",
"657 568 OFFCURVE",
"665 636 OFFCURVE",
"673 678 CURVE",
"610 623 LINE",
"735 635 LINE",
"730 710 LINE",
"692 708 OFFCURVE",
"645 705 OFFCURVE",
"577 705 CURVE SMOOTH",
"552 705 OFFCURVE",
"501 708 OFFCURVE",
"468 710 CURVE",
"463 640 LINE",
"587 619 LINE",
"524 678 LINE",
"529 643 OFFCURVE",
"540 575 OFFCURVE",
"540 547 CURVE SMOOTH",
"540 262 LINE SMOOTH",
"540 155 OFFCURVE",
"498 87 OFFCURVE",
"390 87 CURVE SMOOTH",
"290 87 OFFCURVE",
"238 163 OFFCURVE",
"238 262 CURVE SMOOTH",
"238 517 LINE SMOOTH",
"238 567 OFFCURVE",
"243 627 OFFCURVE",
"251 678 CURVE",
"189 623 LINE",
"315 635 LINE",
"310 710 LINE",
"287 709 OFFCURVE",
"217 705 OFFCURVE",
"142 705 CURVE SMOOTH",
"115 705 OFFCURVE",
"59 708 OFFCURVE",
"23 710 CURVE",
"18 640 LINE",
"141 619 LINE",
"80 678 LINE",
"83 654 OFFCURVE",
"94 577 OFFCURVE",
"94 547 CURVE SMOOTH",
"94 268 LINE SMOOTH",
"94 97 OFFCURVE",
"189 -15 OFFCURVE",
"375 -15 CURVE SMOOTH"
);
}
);
width = 754;
}
);
leftKerningGroup = U;
rightKerningGroup = U;
unicode = 0055;
},
{
glyphname = Uacute;
layers = (
{
anchors = (
{
name = top;
position = "{398, 995}";
}
);
components = (
{
name = U;
}
);
layerId = UUID0;
paths = (
{
closed = 1;
nodes = (
"534 845 LINE",
"504 908 LINE",
"281 794 LINE",
"299 753 LINE"
);
}
);
width = 752;
},
{
anchors = (
{
name = top;
position = "{394, 1015}";
}
);
components = (
{
name = U;
}
);
layerId = "16643525-C5DD-48EC-8E99-463BF28F5E85";
paths = (
{
closed = 1;
nodes = (
"539 831 LINE",
"505 907 LINE",
"269 804 LINE",
"294 752 LINE"
);
}
);
width = 754;
}
);
leftKerningGroup = U;
rightKerningGroup = U;
unicode = 00DA;
},
{
glyphname = Ucircumflex;
layers = (
{
anchors = (
{
name = top;
position = "{378, 995}";
}
);
components = (
{
name = U;
}
);
layerId = UUID0;
paths = (
{
closed = 1;
nodes = (
"551 789 LINE",
"411 879 LINE",
"370 879 LINE",
"337 840 LINE",
"528 753 LINE"
);
},
{
closed = 1;
nodes = (
"419 840 LINE",
"386 879 LINE",
"345 879 LINE",
"205 789 LINE",
"228 753 LINE"
);
}
);
width = 752;
},
{
anchors = (
{
name = top;
position = "{384, 1015}";
}
);
components = (
{
name = U;
}
);
layerId = "16643525-C5DD-48EC-8E99-463BF28F5E85";
paths = (
{
closed = 1;
nodes = (
"569 796 LINE",
"433 892 LINE",
"370 892 LINE",
"336 851 LINE",
"535 751 LINE"
);
},
{
closed = 1;
nodes = (
"432 851 LINE",
"398 892 LINE",
"335 892 LINE",
"199 797 LINE",
"233 752 LINE"
);
}
);
width = 754;
}
);
leftKerningGroup = U;
rightKerningGroup = U;
unicode = 00DB;
},
{
glyphname = V;
layers = (
{
anchors = (
{
name = bottom;
position = "{372, 0}";
},
{
name = top;
position = "{372, 720}";
}
);
background = {
paths = (
{
closed = 1;
nodes = (
"416 0 LINE",
"606 545 LINE SMOOTH",
"628 608 OFFCURVE",
"656 651 OFFCURVE",
"668 670 CURVE",
"616 640 LINE",
"711 651 LINE",
"707 710 LINE",
"659 707 OFFCURVE",
"611 705 OFFCURVE",
"563 705 CURVE SMOOTH",
"543 705 OFFCURVE",
"473 710 OFFCURVE",
"473 710 CURVE",
"468 656 LINE",
"584 636 LINE",
"556 675 LINE",
"555 654 OFFCURVE",
"552 605 OFFCURVE",
"543 578 CURVE SMOOTH",
"382 114 LINE",
"407 114 LINE",
"247 533 LINE SMOOTH",
"228 582 OFFCURVE",
"215 644 OFFCURVE",
"212 670 CURVE",
"181 636 LINE",
"296 651 LINE",
"292 710 LINE",
"245 707 OFFCURVE",
"198 705 OFFCURVE",
"151 705 CURVE SMOOTH",
"131 705 OFFCURVE",
"36 710 OFFCURVE",
"36 710 CURVE",
"31 656 LINE",
"133 633 LINE",
"82 666 LINE",
"91 651 OFFCURVE",
"122 602 OFFCURVE",
"140 556 CURVE SMOOTH",
"355 0 LINE"
);
}
);
};
layerId = UUID0;
paths = (
{
closed = 1;
nodes = (
"416 0 LINE",
"606 545 LINE SMOOTH",
"628 608 OFFCURVE",
"656 651 OFFCURVE",
"668 670 CURVE",
"616 640 LINE",
"711 651 LINE",
"707 710 LINE",
"659 707 OFFCURVE",
"611 705 OFFCURVE",
"563 705 CURVE SMOOTH",
"548 705 OFFCURVE",
"513 707 OFFCURVE",
"473 710 CURVE",
"468 656 LINE",
"584 636 LINE",
"556 675 LINE",
"555 654 OFFCURVE",
"552 605 OFFCURVE",
"543 578 CURVE SMOOTH",
"382 114 LINE",
"407 114 LINE",
"247 533 LINE SMOOTH",
"228 582 OFFCURVE",
"215 644 OFFCURVE",
"212 670 CURVE",
"181 636 LINE",
"296 651 LINE",
"292 710 LINE",
"245 707 OFFCURVE",
"198 705 OFFCURVE",
"151 705 CURVE SMOOTH",
"131 705 OFFCURVE",
"73 708 OFFCURVE",
"36 710 CURVE",
"31 656 LINE",
"133 633 LINE",
"82 666 LINE",
"91 651 OFFCURVE",
"122 602 OFFCURVE",
"140 556 CURVE SMOOTH",
"355 0 LINE"
);
}
);
width = 742;
},
{
anchors = (
{
name = bottom;
position = "{354, 0}";
},
{
name = top;
position = "{354, 720}";
}
);
background = {
paths = (
{
closed = 1;
nodes = (
"405 0 LINE",
"594 520 LINE SMOOTH",
"611 566 OFFCURVE",
"651 638 OFFCURVE",
"665 660 CURVE",
"590 624 LINE",
"690 635 LINE",
"685 710 LINE",
"640 707 OFFCURVE",
"584 705 OFFCURVE",
"549 705 CURVE SMOOTH",
"521 705 OFFCURVE",
"472 707 OFFCURVE",
"434 710 CURVE",
"429 640 LINE",
"563 617 LINE",
"513 658 LINE",
"511 636 OFFCURVE",
"497 575 OFFCURVE",
"489 551 CURVE SMOOTH",
"350 139 LINE",
"386 139 LINE",
"259 517 LINE SMOOTH",
"248 550 OFFCURVE",
"226 634 OFFCURVE",
"224 664 CURVE",
"174 623 LINE",
"317 635 LINE",
"312 710 LINE",
"252 707 OFFCURVE",
"182 705 OFFCURVE",
"132 705 CURVE SMOOTH",
"106 705 OFFCURVE",
"59 707 OFFCURVE",
"23 710 CURVE",
"18 640 LINE",
"120 615 LINE",
"48 656 LINE",
"60 639 OFFCURVE",
"87 587 OFFCURVE",
"101 550 CURVE SMOOTH",
"304 0 LINE"
);
}
);
};
layerId = "16643525-C5DD-48EC-8E99-463BF28F5E85";
paths = (
{
closed = 1;
nodes = (
"405 0 LINE",
"594 520 LINE SMOOTH",
"611 566 OFFCURVE",
"651 638 OFFCURVE",
"665 660 CURVE",
"590 624 LINE",
"690 635 LINE",
"685 710 LINE",
"640 707 OFFCURVE",
"584 705 OFFCURVE",
"549 705 CURVE SMOOTH",
"523 705 OFFCURVE",
"469 708 OFFCURVE",
"434 710 CURVE",
"429 640 LINE",
"553 619 LINE",
"513 658 LINE",
"511 636 OFFCURVE",
"497 575 OFFCURVE",
"489 551 CURVE SMOOTH",
"350 139 LINE",
"386 139 LINE",
"259 517 LINE SMOOTH",
"248 550 OFFCURVE",
"226 634 OFFCURVE",
"224 664 CURVE",
"174 623 LINE",
"317 635 LINE",
"312 710 LINE",
"252 707 OFFCURVE",
"182 705 OFFCURVE",
"132 705 CURVE SMOOTH",
"107 705 OFFCURVE",
"56 707 OFFCURVE",
"23 710 CURVE",
"18 640 LINE",
"120 615 LINE",
"48 656 LINE",
"60 639 OFFCURVE",
"87 587 OFFCURVE",
"101 550 CURVE SMOOTH",
"304 0 LINE"
);
}
);
width = 709;
}
);
leftKerningGroup = V;
rightKerningGroup = V;
unicode = 0056;
},
{
glyphname = W;
layers = (
{
anchors = (
{
name = bottom;
position = "{536, 0}";
},
{
name = top;
position = "{536, 705}";
}
);
background = {
paths = (
{
closed = 1;
nodes = (
"1040 651 LINE",
"1036 710 LINE",
"1036 710 OFFCURVE",
"942 705 OFFCURVE",
"892 705 CURVE SMOOTH",
"872 705 OFFCURVE",
"802 710 OFFCURVE",
"802 710 CURVE",
"797 656 LINE",
"873 641 LINE",
"873 641 OFFCURVE",
"869 604 OFFCURVE",
"862 578 CURVE",
"739 148 LINE",
"570 685 LINE",
"517 685 LINE",
"359 148 LINE",
"244 533 LINE",
"229 584 OFFCURVE",
"217 641 OFFCURVE",
"217 641 CURVE",
"296 651 LINE",
"292 710 LINE",
"292 710 OFFCURVE",
"211 705 OFFCURVE",
"151 705 CURVE SMOOTH",
"131 705 OFFCURVE",
"36 710 OFFCURVE",
"36 710 CURVE",
"31 656 LINE",
"97 641 LINE",
"97 641 OFFCURVE",
"123 598 OFFCURVE",
"137 556 CURVE",
"320 0 LINE",
"381 0 LINE",
"533 506 LINE",
"700 0 LINE",
"761 0 LINE",
"925 545 LINE",
"937 584 OFFCURVE",
"971 644 OFFCURVE",
"971 644 CURVE"
);
}
);
};
layerId = UUID0;
paths = (
{
closed = 1;
nodes = (
"381 0 LINE",
"543 541 LINE",
"522 541 LINE",
"700 0 LINE",
"761 0 LINE",
"925 545 LINE",
"940 593 OFFCURVE",
"972 646 OFFCURVE",
"989 674 CURVE",
"935 640 LINE",
"1040 651 LINE",
"1036 710 LINE",
"999 708 OFFCURVE",
"942 705 OFFCURVE",
"892 705 CURVE SMOOTH",
"872 705 OFFCURVE",
"839 707 OFFCURVE",
"802 710 CURVE",
"797 656 LINE",
"909 634 LINE",
"875 667 LINE",
"875 652 OFFCURVE",
"872 614 OFFCURVE",
"862 578 CURVE",
"729 113 LINE",
"750 113 LINE",
"570 685 LINE",
"517 685 LINE",
"349 113 LINE",
"369 113 LINE",
"244 533 LINE",
"226 594 OFFCURVE",
"217 635 OFFCURVE",
"214 665 CURVE",
"181 636 LINE",
"296 651 LINE",
"292 710 LINE",
"254 708 OFFCURVE",
"198 705 OFFCURVE",
"151 705 CURVE SMOOTH",
"131 705 OFFCURVE",
"73 708 OFFCURVE",
"36 710 CURVE",
"31 656 LINE",
"133 633 LINE",
"80 669 LINE",
"91 652 OFFCURVE",
"119 609 OFFCURVE",
"137 556 CURVE",
"320 0 LINE"
);
}
);
width = 1071;
},
{
anchors = (
{
name = bottom;
position = "{514, 0}";
},
{
name = top;
position = "{514, 705}";
}
);
background = {
paths = (
{
closed = 1;
nodes = (
"374 0 LINE",
"529 498 LINE",
"496 498 LINE",
"650 0 LINE",
"752 0 LINE",
"915 520 LINE SMOOTH",
"929 565 OFFCURVE",
"967 639 OFFCURVE",
"988 665 CURVE",
"908 624 LINE",
"1009 635 LINE",
"1005 710 LINE",
"969 708 OFFCURVE",
"904 705 OFFCURVE",
"868 705 CURVE SMOOTH",
"843 705 OFFCURVE",
"788 708 OFFCURVE",
"763 710 CURVE",
"758 640 LINE",
"883 618 LINE",
"831 669 LINE",
"833 644 OFFCURVE",
"818 575 OFFCURVE",
"812 552 CURVE SMOOTH",
"700 138 LINE",
"730 138 LINE",
"574 678 LINE",
"476 678 LINE",
"322 138 LINE",
"351 138 LINE",
"252 517 LINE SMOOTH",
"241 559 OFFCURVE",
"226 636 OFFCURVE",
"224 667 CURVE",
"174 623 LINE",
"307 635 LINE",
"302 710 LINE",
"256 708 OFFCURVE",
"179 705 OFFCURVE",
"133 705 CURVE SMOOTH",
"106 705 OFFCURVE",
"50 708 OFFCURVE",
"23 710 CURVE",
"18 640 LINE",
"118 616 LINE",
"44 670 LINE",
"81 591 OFFCURVE",
"88 572 OFFCURVE",
"97 546 CURVE SMOOTH",
"272 0 LINE"
);
}
);
};
layerId = "16643525-C5DD-48EC-8E99-463BF28F5E85";
paths = (
{
closed = 1;
nodes = (
"374 0 LINE",
"529 498 LINE",
"496 498 LINE",
"650 0 LINE",
"752 0 LINE",
"915 520 LINE SMOOTH",
"929 565 OFFCURVE",
"967 639 OFFCURVE",
"988 665 CURVE",
"908 624 LINE",
"1009 635 LINE",
"1005 710 LINE",
"969 708 OFFCURVE",
"904 705 OFFCURVE",
"868 705 CURVE SMOOTH",
"844 705 OFFCURVE",
"795 708 OFFCURVE",
"763 710 CURVE",
"758 640 LINE",
"882 619 LINE",
"831 669 LINE",
"833 644 OFFCURVE",
"818 575 OFFCURVE",
"812 552 CURVE SMOOTH",
"700 138 LINE",
"730 138 LINE",
"574 678 LINE",
"476 678 LINE",
"322 138 LINE",
"351 138 LINE",
"252 517 LINE SMOOTH",
"241 559 OFFCURVE",
"226 636 OFFCURVE",
"224 667 CURVE",
"174 623 LINE",
"307 635 LINE",
"302 710 LINE",
"256 708 OFFCURVE",
"179 705 OFFCURVE",
"133 705 CURVE SMOOTH",
"108 705 OFFCURVE",
"56 708 OFFCURVE",
"23 710 CURVE",
"18 640 LINE",
"118 616 LINE",
"44 670 LINE",
"81 591 OFFCURVE",
"88 572 OFFCURVE",
"97 546 CURVE SMOOTH",
"272 0 LINE"
);
}
);
width = 1028;
}
);
leftKerningGroup = V;
rightKerningGroup = V;
unicode = 0057;
},
{
glyphname = X;
layers = (
{
anchors = (
{
name = bottom;
position = "{382, 0}";
},
{
name = top;
position = "{382, 705}";
}
);
background = {
paths = (
{
closed = 1;
nodes = (
"41 -5 OFFCURVE",
"161 0 OFFCURVE",
"186 0 CURVE",
"282 0 LINE",
"287 54 LINE",
"178 69 LINE",
"205 45 LINE",
"216 67 OFFCURVE",
"235 112 OFFCURVE",
"249 132 CURVE SMOOTH",
"383 331 LINE",
"342 331 LINE",
"476 142 LINE",
"494 119 OFFCURVE",
"519 69 OFFCURVE",
"529 43 CURVE",
"556 72 LINE",
"455 44 LINE",
"459 -5 LINE",
"459 -5 OFFCURVE",
"581 0 OFFCURVE",
"612 0 CURVE",
"723 0 LINE",
"728 54 LINE",
"616 69 LINE",
"667 49 LINE",
"646 69 OFFCURVE",
"607 112 OFFCURVE",
"591 132 CURVE",
"401 398 LINE",
"402 337 LINE",
"551 569 LINE",
"569 592 OFFCURVE",
"628 639 OFFCURVE",
"643 656 CURVE",
"595 640 LINE",
"700 651 LINE",
"696 710 LINE",
"696 710 OFFCURVE",
"592 705 OFFCURVE",
"542 705 CURVE SMOOTH",
"522 705 OFFCURVE",
"442 710 OFFCURVE",
"442 710 CURVE",
"437 656 LINE",
"549 634 LINE",
"523 662 LINE",
"511 638 OFFCURVE",
"492 598 OFFCURVE",
"480 578 CURVE SMOOTH",
"364 391 LINE",
"404 392 LINE",
"288 555 LINE",
"270 579 OFFCURVE",
"248 640 OFFCURVE",
"241 655 CURVE",
"211 636 LINE",
"326 651 LINE",
"322 710 LINE",
"322 710 OFFCURVE",
"233 705 OFFCURVE",
"173 705 CURVE SMOOTH",
"153 705 OFFCURVE",
"58 710 OFFCURVE",
"58 710 CURVE",
"53 656 LINE",
"155 633 LINE",
"110 653 LINE",
"121 639 OFFCURVE",
"164 583 OFFCURVE",
"181 558 CURVE SMOOTH",
"346 325 LINE",
"346 385 LINE",
"194 164 LINE SMOOTH",
"174 135 OFFCURVE",
"102 64 OFFCURVE",
"90 51 CURVE",
"135 70 LINE",
"37 44 LINE",
"41 -5 LINE"
);
}
);
};
layerId = UUID0;
paths = (
{
closed = 1;
nodes = (
"89 -3 OFFCURVE",
"158 0 OFFCURVE",
"186 0 CURVE SMOOTH",
"282 0 LINE",
"287 54 LINE",
"178 69 LINE",
"205 45 LINE",
"216 67 OFFCURVE",
"235 112 OFFCURVE",
"249 132 CURVE SMOOTH",
"383 331 LINE",
"342 331 LINE",
"476 142 LINE SMOOTH",
"494 117 OFFCURVE",
"519 69 OFFCURVE",
"529 43 CURVE",
"556 72 LINE",
"455 44 LINE",
"459 -5 LINE",
"510 -3 OFFCURVE",
"581 0 OFFCURVE",
"612 0 CURVE SMOOTH",
"723 0 LINE",
"728 54 LINE",
"616 69 LINE",
"667 49 LINE",
"646 69 OFFCURVE",
"603 115 OFFCURVE",
"591 132 CURVE SMOOTH",
"401 398 LINE",
"402 337 LINE",
"551 569 LINE SMOOTH",
"561 585 OFFCURVE",
"636 649 OFFCURVE",
"657 666 CURVE",
"595 640 LINE",
"700 651 LINE",
"696 710 LINE",
"645 708 OFFCURVE",
"583 705 OFFCURVE",
"542 705 CURVE SMOOTH",
"522 705 OFFCURVE",
"475 708 OFFCURVE",
"442 710 CURVE",
"437 656 LINE",
"549 634 LINE",
"523 662 LINE",
"511 638 OFFCURVE",
"492 598 OFFCURVE",
"480 578 CURVE SMOOTH",
"364 391 LINE",
"404 392 LINE",
"288 555 LINE SMOOTH",
"271 579 OFFCURVE",
"248 640 OFFCURVE",
"241 655 CURVE",
"211 636 LINE",
"326 651 LINE",
"322 710 LINE",
"272 708 OFFCURVE",
"213 705 OFFCURVE",
"173 705 CURVE SMOOTH",
"153 705 OFFCURVE",
"95 708 OFFCURVE",
"58 710 CURVE",
"53 656 LINE",
"155 633 LINE",
"110 653 LINE",
"121 639 OFFCURVE",
"164 583 OFFCURVE",
"181 558 CURVE SMOOTH",
"346 325 LINE",
"346 385 LINE",
"194 164 LINE SMOOTH",
"174 135 OFFCURVE",
"102 64 OFFCURVE",
"90 51 CURVE",
"135 70 LINE",
"37 44 LINE",
"41 -5 LINE"
);
}
);
width = 764;
},
{
anchors = (
{
name = bottom;
position = "{374, 0}";
},
{
name = top;
position = "{374, 705}";
}
);
background = {
paths = (
{
closed = 1;
nodes = (
"33 -5 OFFCURVE",
"145 0 OFFCURVE",
"174 0 CURVE",
"277 0 LINE",
"282 67 LINE",
"173 80 LINE",
"215 41 LINE",
"224 65 OFFCURVE",
"249 112 OFFCURVE",
"261 132 CURVE SMOOTH",
"382 312 LINE",
"319 312 LINE",
"438 142 LINE SMOOTH",
"455 118 OFFCURVE",
"483 60 OFFCURVE",
"492 41 CURVE",
"534 80 LINE",
"433 60 LINE",
"438 -5 LINE",
"438 -5 OFFCURVE",
"574 0 OFFCURVE",
"612 0 CURVE",
"716 0 LINE",
"721 67 LINE",
"609 84 LINE",
"692 45 LINE",
"657 78 OFFCURVE",
"631 108 OFFCURVE",
"613 132 CURVE SMOOTH",
"408 421 LINE",
"410 328 LINE",
"567 568 LINE SMOOTH",
"582 591 OFFCURVE",
"629 628 OFFCURVE",
"660 654 CURVE",
"575 623 LINE",
"697 635 LINE",
"692 710 LINE",
"692 710 OFFCURVE",
"608 705 OFFCURVE",
"544 705 CURVE SMOOTH",
"524 705 OFFCURVE",
"443 710 OFFCURVE",
"443 710 CURVE",
"438 640 LINE",
"541 619 LINE",
"505 673 LINE",
"488 634 OFFCURVE",
"470 599 OFFCURVE",
"458 578 CURVE SMOOTH",
"353 410 LINE",
"414 410 LINE",
"316 555 LINE SMOOTH",
"298 581 OFFCURVE",
"269 637 OFFCURVE",
"266 656 CURVE",
"219 623 LINE",
"328 635 LINE",
"323 710 LINE",
"323 710 OFFCURVE",
"233 705 OFFCURVE",
"159 705 CURVE SMOOTH",
"139 705 OFFCURVE",
"40 710 OFFCURVE",
"40 710 CURVE",
"35 640 LINE",
"148 619 LINE",
"67 655 LINE",
"86 632 OFFCURVE",
"128 584 OFFCURVE",
"146 558 CURVE SMOOTH",
"327 300 LINE",
"327 393 LINE",
"168 164 LINE SMOOTH",
"148 135 OFFCURVE",
"83 71 OFFCURVE",
"65 52 CURVE",
"139 81 LINE",
"28 60 LINE",
"33 -5 LINE"
);
}
);
};
layerId = "16643525-C5DD-48EC-8E99-463BF28F5E85";
paths = (
{
closed = 1;
nodes = (
"80 -3 OFFCURVE",
"147 0 OFFCURVE",
"174 0 CURVE SMOOTH",
"277 0 LINE",
"282 67 LINE",
"173 80 LINE",
"215 41 LINE",
"224 65 OFFCURVE",
"249 112 OFFCURVE",
"261 132 CURVE SMOOTH",
"382 312 LINE",
"319 312 LINE",
"438 142 LINE SMOOTH",
"455 118 OFFCURVE",
"483 60 OFFCURVE",
"492 41 CURVE",
"534 80 LINE",
"433 60 LINE",
"438 -5 LINE",
"496 -3 OFFCURVE",
"574 0 OFFCURVE",
"612 0 CURVE SMOOTH",
"716 0 LINE",
"721 67 LINE",
"609 84 LINE",
"692 45 LINE",
"657 78 OFFCURVE",
"631 108 OFFCURVE",
"613 132 CURVE SMOOTH",
"408 421 LINE",
"410 328 LINE",
"567 568 LINE SMOOTH",
"577 583 OFFCURVE",
"629 628 OFFCURVE",
"660 654 CURVE",
"575 623 LINE",
"697 635 LINE",
"692 710 LINE",
"643 708 OFFCURVE",
"583 705 OFFCURVE",
"544 705 CURVE SMOOTH",
"520 705 OFFCURVE",
"477 708 OFFCURVE",
"443 710 CURVE",
"438 640 LINE",
"541 619 LINE",
"505 673 LINE",
"488 634 OFFCURVE",
"470 599 OFFCURVE",
"458 578 CURVE SMOOTH",
"353 410 LINE",
"414 410 LINE",
"316 555 LINE SMOOTH",
"298 581 OFFCURVE",
"269 637 OFFCURVE",
"266 656 CURVE",
"219 623 LINE",
"328 635 LINE",
"323 710 LINE",
"268 708 OFFCURVE",
"204 705 OFFCURVE",
"159 705 CURVE SMOOTH",
"129 705 OFFCURVE",
"80 708 OFFCURVE",
"40 710 CURVE",
"35 640 LINE",
"148 619 LINE",
"67 655 LINE",
"86 632 OFFCURVE",
"128 584 OFFCURVE",
"146 558 CURVE SMOOTH",
"327 300 LINE",
"327 393 LINE",
"168 164 LINE SMOOTH",
"148 135 OFFCURVE",
"83 71 OFFCURVE",
"65 52 CURVE",
"139 81 LINE",
"28 60 LINE",
"33 -5 LINE"
);
}
);
width = 747;
}
);
leftKerningGroup = X;
rightKerningGroup = X;
unicode = 0058;
},
{
glyphname = Y;
layers = (
{
anchors = (
{
name = bottom;
position = "{348, 0}";
},
{
name = top;
position = "{357, 720}";
}
);
background = {
paths = (
{
closed = 1;
nodes = (
"380 236 LINE",
"539 545 LINE",
"572 608 OFFCURVE",
"608 653 OFFCURVE",
"621 667 CURVE",
"566 640 LINE",
"671 651 LINE",
"667 710 LINE",
"667 710 OFFCURVE",
"573 705 OFFCURVE",
"523 705 CURVE SMOOTH",
"503 705 OFFCURVE",
"433 710 OFFCURVE",
"433 710 CURVE",
"428 656 LINE",
"539 634 LINE",
"518 675 LINE",
"515 665 OFFCURVE",
"491 609 OFFCURVE",
"476 578 CURVE",
"345 311 LINE",
"378 312 LINE",
"260 533 LINE",
"221 604 OFFCURVE",
"211 653 OFFCURVE",
"211 667 CURVE",
"181 636 LINE",
"296 651 LINE",
"292 710 LINE",
"292 710 OFFCURVE",
"211 705 OFFCURVE",
"151 705 CURVE SMOOTH",
"131 705 OFFCURVE",
"36 710 OFFCURVE",
"36 710 CURVE",
"31 656 LINE",
"133 633 LINE",
"78 667 LINE",
"89 653 OFFCURVE",
"127 607 OFFCURVE",
"153 556 CURVE SMOOTH",
"319 236 LINE"
);
},
{
closed = 1;
nodes = (
"225 -5 OFFCURVE",
"335 0 OFFCURVE",
"360 0 CURVE",
"489 0 LINE",
"496 54 LINE",
"370 64 LINE",
"411 28 LINE",
"406 54 OFFCURVE",
"399 115 OFFCURVE",
"399 167 CURVE SMOOTH",
"399 320 LINE",
"308 320 LINE",
"308 137 LINE SMOOTH",
"308 115 OFFCURVE",
"297 46 OFFCURVE",
"294 28 CURVE",
"335 68 LINE",
"220 45 LINE",
"225 -5 LINE"
);
}
);
};
layerId = UUID0;
paths = (
{
closed = 1;
nodes = (
"380 236 LINE",
"539 545 LINE SMOOTH",
"572 608 OFFCURVE",
"608 653 OFFCURVE",
"621 667 CURVE",
"566 640 LINE",
"671 651 LINE",
"667 710 LINE",
"647 709 OFFCURVE",
"583 705 OFFCURVE",
"523 705 CURVE SMOOTH",
"503 705 OFFCURVE",
"464 708 OFFCURVE",
"433 710 CURVE",
"428 656 LINE",
"539 634 LINE",
"518 675 LINE",
"515 665 OFFCURVE",
"491 609 OFFCURVE",
"476 578 CURVE SMOOTH",
"345 311 LINE",
"378 312 LINE",
"260 533 LINE SMOOTH",
"221 604 OFFCURVE",
"211 653 OFFCURVE",
"211 667 CURVE",
"181 636 LINE",
"296 651 LINE",
"292 710 LINE",
"272 709 OFFCURVE",
"211 705 OFFCURVE",
"151 705 CURVE SMOOTH",
"131 705 OFFCURVE",
"73 708 OFFCURVE",
"36 710 CURVE",
"31 656 LINE",
"133 633 LINE",
"78 667 LINE",
"89 653 OFFCURVE",
"127 607 OFFCURVE",
"153 556 CURVE SMOOTH",
"319 236 LINE"
);
},
{
closed = 1;
nodes = (
"270 -3 OFFCURVE",
"345 0 OFFCURVE",
"360 0 CURVE SMOOTH",
"489 0 LINE",
"496 54 LINE",
"370 64 LINE",
"411 28 LINE",
"406 54 OFFCURVE",
"399 115 OFFCURVE",
"399 167 CURVE SMOOTH",
"399 320 LINE",
"308 320 LINE",
"308 137 LINE SMOOTH",
"308 115 OFFCURVE",
"297 46 OFFCURVE",
"294 28 CURVE",
"335 68 LINE",
"220 45 LINE",
"225 -5 LINE"
);
}
);
width = 702;
},
{
anchors = (
{
name = bottom;
position = "{358, 0}";
},
{
name = top;
position = "{365, 720}";
}
);
background = {
paths = (
{
closed = 0;
nodes = (
"139 617 LINE",
"67 652 LINE",
"83 631 OFFCURVE",
"107 603 OFFCURVE",
"124 572 CURVE SMOOTH",
"314 218 LINE",
"415 218 LINE",
"585 544 LINE SMOOTH",
"611 594 OFFCURVE",
"653 635 OFFCURVE",
"670 651 CURVE",
"591 622 LINE"
);
},
{
closed = 1;
nodes = (
"223 -5 OFFCURVE",
"340 0 OFFCURVE",
"369 0 CURVE",
"509 0 LINE",
"515 67 LINE",
"387 78 LINE",
"450 25 LINE",
"444 55 OFFCURVE",
"435 133 OFFCURVE",
"435 187 CURVE SMOOTH",
"435 308 LINE",
"296 308 LINE",
"296 157 LINE SMOOTH",
"296 129 OFFCURVE",
"285 58 OFFCURVE",
"280 25 CURVE",
"342 83 LINE",
"218 60 LINE",
"223 -5 LINE"
);
},
{
closed = 0;
nodes = (
"196 623 LINE",
"311 635 LINE",
"306 710 LINE",
"306 710 OFFCURVE",
"216 705 OFFCURVE",
"142 705 CURVE SMOOTH",
"122 705 OFFCURVE",
"23 710 OFFCURVE",
"23 710 CURVE",
"18 640 LINE",
"139 617 LINE"
);
},
{
closed = 0;
nodes = (
"559 621 LINE",
"512 671 LINE",
"508 642 OFFCURVE",
"500 608 OFFCURVE",
"490 587 CURVE SMOOTH",
"354 313 LINE",
"404 313 LINE",
"275 565 LINE SMOOTH",
"258 599 OFFCURVE",
"250 630 OFFCURVE",
"247 660 CURVE",
"196 623 LINE"
);
},
{
closed = 0;
nodes = (
"591 622 LINE",
"703 635 LINE",
"698 710 LINE",
"698 710 OFFCURVE",
"623 705 OFFCURVE",
"558 705 CURVE SMOOTH",
"531 705 OFFCURVE",
"453 710 OFFCURVE",
"453 710 CURVE",
"448 640 LINE",
"559 621 LINE"
);
}
);
};
layerId = "16643525-C5DD-48EC-8E99-463BF28F5E85";
paths = (
{
closed = 1;
nodes = (
"415 218 LINE",
"585 544 LINE SMOOTH",
"611 594 OFFCURVE",
"653 635 OFFCURVE",
"670 651 CURVE",
"585 623 LINE",
"703 635 LINE",
"698 710 LINE",
"650 708 OFFCURVE",
"592 705 OFFCURVE",
"554 705 CURVE SMOOTH",
"530 705 OFFCURVE",
"487 708 OFFCURVE",
"453 710 CURVE",
"448 640 LINE",
"551 619 LINE",
"512 671 LINE",
"508 642 OFFCURVE",
"500 608 OFFCURVE",
"490 587 CURVE SMOOTH",
"354 313 LINE",
"404 313 LINE",
"275 565 LINE SMOOTH",
"258 599 OFFCURVE",
"250 630 OFFCURVE",
"247 660 CURVE",
"202 623 LINE",
"311 635 LINE",
"306 710 LINE",
"251 708 OFFCURVE",
"187 705 OFFCURVE",
"142 705 CURVE SMOOTH",
"112 705 OFFCURVE",
"63 708 OFFCURVE",
"23 710 CURVE",
"18 640 LINE",
"131 619 LINE",
"67 652 LINE",
"83 631 OFFCURVE",
"107 603 OFFCURVE",
"124 572 CURVE SMOOTH",
"314 218 LINE"
);
},
{
closed = 1;
nodes = (
"223 -5 OFFCURVE",
"340 0 OFFCURVE",
"369 0 CURVE",
"509 0 LINE",
"515 67 LINE",
"387 78 LINE",
"450 25 LINE",
"444 55 OFFCURVE",
"435 133 OFFCURVE",
"435 187 CURVE SMOOTH",
"435 308 LINE",
"296 308 LINE",
"296 157 LINE SMOOTH",
"296 129 OFFCURVE",
"285 58 OFFCURVE",
"280 25 CURVE",
"342 83 LINE",
"218 60 LINE",
"223 -5 LINE"
);
}
);
width = 722;
}
);
leftKerningGroup = V;
rightKerningGroup = V;
unicode = 0059;
},
{
glyphname = Yacute;
layers = (
{
anchors = (
{
name = top;
position = "{377, 995}";
}
);
components = (
{
name = Y;
}
);
layerId = UUID0;
paths = (
{
closed = 1;
nodes = (
"513 845 LINE",
"483 908 LINE",
"260 794 LINE",
"278 753 LINE"
);
}
);
width = 702;
},
{
anchors = (
{
name = top;
position = "{375, 1015}";
}
);
components = (
{
name = Y;
}
);
layerId = "16643525-C5DD-48EC-8E99-463BF28F5E85";
paths = (
{
closed = 1;
nodes = (
"520 831 LINE",
"486 907 LINE",
"250 804 LINE",
"275 752 LINE"
);
}
);
width = 722;
}
);
leftKerningGroup = Y;
rightKerningGroup = Y;
unicode = 00DD;
},
{
glyphname = Z;
layers = (
{
anchors = (
{
name = bottom;
position = "{301, 0}";
},
{
name = center;
position = "{301, 353}";
},
{
name = top;
position = "{301, 720}";
}
);
background = {
paths = (
{
closed = 1;
nodes = (
"536 14 LINE",
"551 175 LINE",
"496 180 LINE",
"494 164 OFFCURVE",
"485 118 OFFCURVE",
"481 103 CURVE",
"479 92 OFFCURVE",
"451 50 OFFCURVE",
"433 29 CURVE",
"506 74 LINE",
"481 70 OFFCURVE",
"413 59 OFFCURVE",
"373 59 CURVE SMOOTH",
"134 59 LINE",
"152 27 LINE",
"182 82 OFFCURVE",
"213 136 OFFCURVE",
"243 191 CURVE",
"434 494 LINE",
"470 546 OFFCURVE",
"506 597 OFFCURVE",
"542 649 CURVE",
"535 705 LINE",
"204 705 LINE",
"166 707 OFFCURVE",
"128 711 OFFCURVE",
"90 715 CURVE",
"71 697 LINE",
"64 528 LINE",
"122 523 LINE",
"124 549 OFFCURVE",
"131 592 OFFCURVE",
"135 607 CURVE",
"167 674 LINE",
"126 640 LINE",
"143 641 OFFCURVE",
"200 646 OFFCURVE",
"237 646 CURVE SMOOTH",
"456 646 LINE",
"438 678 LINE",
"409 625 OFFCURVE",
"379 573 OFFCURVE",
"350 520 CURVE",
"160 219 LINE SMOOTH",
"130 171 OFFCURVE",
"48 57 OFFCURVE",
"48 57 CURVE",
"55 0 LINE",
"403 0 LINE",
"441 -1 OFFCURVE",
"479 -2 OFFCURVE",
"517 -4 CURVE"
);
}
);
};
layerId = UUID0;
paths = (
{
closed = 1;
nodes = (
"536 14 LINE",
"551 175 LINE",
"496 180 LINE",
"494 164 OFFCURVE",
"485 112 OFFCURVE",
"481 103 CURVE SMOOTH",
"476 92 OFFCURVE",
"451 50 OFFCURVE",
"433 29 CURVE",
"506 74 LINE",
"481 70 OFFCURVE",
"413 59 OFFCURVE",
"373 59 CURVE SMOOTH",
"134 59 LINE",
"152 27 LINE",
"182 82 OFFCURVE",
"227 165 OFFCURVE",
"243 191 CURVE SMOOTH",
"434 494 LINE SMOOTH",
"468 548 OFFCURVE",
"505 597 OFFCURVE",
"542 649 CURVE",
"535 705 LINE",
"204 705 LINE",
"166 707 OFFCURVE",
"128 711 OFFCURVE",
"90 715 CURVE",
"71 697 LINE",
"64 528 LINE",
"122 523 LINE",
"124 549 OFFCURVE",
"131 599 OFFCURVE",
"135 607 CURVE SMOOTH",
"167 674 LINE",
"126 640 LINE",
"143 641 OFFCURVE",
"200 646 OFFCURVE",
"237 646 CURVE SMOOTH",
"456 646 LINE",
"438 678 LINE",
"409 625 OFFCURVE",
"382 570 OFFCURVE",
"350 520 CURVE SMOOTH",
"160 219 LINE SMOOTH",
"130 171 OFFCURVE",
"48 57 OFFCURVE",
"48 57 CURVE",
"55 0 LINE",
"403 0 LINE SMOOTH",
"441 0 OFFCURVE",
"479 -2 OFFCURVE",
"517 -4 CURVE"
);
}
);
width = 601;
},
{
anchors = (
{
name = bottom;
position = "{308, 0}";
},
{
name = center;
position = "{308, 353}";
},
{
name = top;
position = "{308, 720}";
}
);
background = {
paths = (
{
closed = 1;
nodes = (
"376 616 LINE",
"326 516 LINE SMOOTH",
"151 237 LINE SMOOTH",
"127 196 OFFCURVE",
"40 80 OFFCURVE",
"40 80 CURVE",
"50 0 LINE",
"436 0 LINE SMOOTH",
"456 0 OFFCURVE",
"551 -4 OFFCURVE",
"551 -4 CURVE",
"571 14 LINE",
"586 198 LINE",
"518 203 LINE",
"516 187 OFFCURVE",
"509 159 OFFCURVE",
"505 144 CURVE",
"504 138 OFFCURVE",
"495 118 OFFCURVE",
"485 97 CURVE",
"464 93 OFFCURVE",
"430 89 OFFCURVE",
"401 89 CURVE SMOOTH",
"244 89 LINE",
"264 130 OFFCURVE",
"284 173 OFFCURVE",
"308 212 CURVE SMOOTH",
"464 464 LINE SMOOTH",
"571 625 LINE",
"561 705 LINE",
"182 705 LINE SMOOTH",
"162 705 OFFCURVE",
"67 715 OFFCURVE",
"67 715 CURVE",
"47 697 LINE",
"40 512 LINE",
"112 507 LINE",
"114 524 OFFCURVE",
"123 568 OFFCURVE",
"127 583 CURVE",
"140 611 LINE",
"160 613 OFFCURVE",
"192 616 OFFCURVE",
"223 616 CURVE SMOOTH"
);
}
);
};
layerId = "16643525-C5DD-48EC-8E99-463BF28F5E85";
paths = (
{
closed = 1;
nodes = (
"561 14 LINE",
"576 192 LINE",
"512 197 LINE",
"508 172 OFFCURVE",
"501 147 OFFCURVE",
"498 134 CURVE",
"496 123 OFFCURVE",
"469 72 OFFCURVE",
"454 45 CURVE",
"516 95 LINE",
"495 91 OFFCURVE",
"435 82 OFFCURVE",
"393 82 CURVE SMOOTH",
"168 82 LINE",
"205 45 LINE",
"232 98 OFFCURVE",
"260 157 OFFCURVE",
"291 206 CURVE SMOOTH",
"456 471 LINE SMOOTH",
"484 516 OFFCURVE",
"530 583 OFFCURVE",
"563 631 CURVE",
"554 705 LINE",
"187 705 LINE",
"133 708 OFFCURVE",
"115 711 OFFCURVE",
"72 715 CURVE",
"52 697 LINE",
"45 516 LINE",
"114 511 LINE",
"116 534 OFFCURVE",
"124 572 OFFCURVE",
"128 589 CURVE",
"166 670 LINE",
"106 617 LINE",
"115 617 OFFCURVE",
"181 624 OFFCURVE",
"226 624 CURVE SMOOTH",
"442 624 LINE",
"406 666 LINE",
"385 621 OFFCURVE",
"358 560 OFFCURVE",
"331 517 CURVE SMOOTH",
"153 232 LINE SMOOTH",
"127 190 OFFCURVE",
"41 74 OFFCURVE",
"41 74 CURVE",
"50 0 LINE",
"427 0 LINE",
"455 0 OFFCURVE",
"504 -2 OFFCURVE",
"542 -4 CURVE"
);
}
);
width = 614;
}
);
leftKerningGroup = Z;
rightKerningGroup = Z;
unicode = 005A;
},
{
glyphname = a;
layers = (
{
anchors = (
{
name = bottom;
position = "{243, 0}";
},
{
name = ogonek;
position = "{485, 0}";
},
{
name = top;
position = "{226, 494}";
}
);
background = {
paths = (
{
closed = 1;
nodes = (
"256 -10 OFFCURVE",
"333 38 OFFCURVE",
"350 99 CURVE",
"336 115 LINE",
"356 0 LINE",
"486 0 LINE",
"492 54 LINE",
"392 65 LINE",
"428 33 LINE",
"423 59 OFFCURVE",
"413 106 OFFCURVE",
"413 167 CURVE SMOOTH",
"413 291 LINE SMOOTH",
"413 444 OFFCURVE",
"367 503 OFFCURVE",
"248 503 CURVE SMOOTH",
"188 503 OFFCURVE",
"127 494 OFFCURVE",
"67 479 CURVE",
"78 343 LINE",
"137 346 LINE",
"136 387 LINE",
"149 465 LINE",
"117 419 LINE",
"139 434 OFFCURVE",
"197 449 OFFCURVE",
"238 449 CURVE SMOOTH",
"301 449 OFFCURVE",
"332 404 OFFCURVE",
"332 311 CURVE SMOOTH",
"332 167 LINE",
"322 102 OFFCURVE",
"266 54 OFFCURVE",
"199 54 CURVE SMOOTH",
"152 54 OFFCURVE",
"126 83 OFFCURVE",
"126 133 CURVE SMOOTH",
"126 168 OFFCURVE",
"149 193 OFFCURVE",
"189 200 CURVE SMOOTH",
"345 229 LINE",
"345 280 LINE",
"172 251 LINE SMOOTH",
"82 236 OFFCURVE",
"38 190 OFFCURVE",
"38 118 CURVE SMOOTH",
"38 40 OFFCURVE",
"94 -10 OFFCURVE",
"183 -10 CURVE SMOOTH"
);
}
);
};
layerId = UUID0;
paths = (
{
closed = 1;
nodes = (
"256 -10 OFFCURVE",
"333 38 OFFCURVE",
"350 99 CURVE",
"336 115 LINE",
"356 0 LINE",
"486 0 LINE",
"492 54 LINE",
"392 65 LINE",
"428 33 LINE",
"423 59 OFFCURVE",
"413 106 OFFCURVE",
"413 167 CURVE SMOOTH",
"413 291 LINE SMOOTH",
"413 444 OFFCURVE",
"367 503 OFFCURVE",
"248 503 CURVE SMOOTH",
"188 503 OFFCURVE",
"127 494 OFFCURVE",
"67 479 CURVE",
"78 343 LINE",
"137 346 LINE",
"136 387 LINE",
"149 465 LINE",
"117 419 LINE",
"139 434 OFFCURVE",
"197 449 OFFCURVE",
"238 449 CURVE SMOOTH",
"301 449 OFFCURVE",
"332 404 OFFCURVE",
"332 311 CURVE SMOOTH",
"332 167 LINE",
"322 102 OFFCURVE",
"266 54 OFFCURVE",
"199 54 CURVE SMOOTH",
"152 54 OFFCURVE",
"126 83 OFFCURVE",
"126 133 CURVE SMOOTH",
"126 168 OFFCURVE",
"149 193 OFFCURVE",
"189 200 CURVE",
"345 229 LINE",
"345 280 LINE",
"172 251 LINE SMOOTH",
"82 236 OFFCURVE",
"38 190 OFFCURVE",
"38 118 CURVE SMOOTH",
"38 40 OFFCURVE",
"94 -10 OFFCURVE",
"183 -10 CURVE SMOOTH"
);
}
);
width = 508;
},
{
anchors = (
{
name = bottom;
position = "{255, 0}";
},
{
name = ogonek;
position = "{510, 0}";
},
{
name = top;
position = "{237, 494}";
}
);
background = {
paths = (
{
closed = 1;
nodes = (
"259 -10 OFFCURVE",
"308 30 OFFCURVE",
"339 119 CURVE",
"311 135 LINE",
"326 0 LINE",
"510 0 LINE",
"516 71 LINE",
"393 83 LINE",
"462 38 LINE",
"457 69 OFFCURVE",
"447 125 OFFCURVE",
"447 193 CURVE SMOOTH",
"447 323 LINE SMOOTH",
"447 437 OFFCURVE",
"370 503 OFFCURVE",
"238 503 CURVE SMOOTH",
"194 503 OFFCURVE",
"115 491 OFFCURVE",
"55 476 CURVE",
"70 307 LINE",
"145 310 LINE",
"144 353 LINE",
"162 455 LINE",
"119 385 LINE",
"141 393 OFFCURVE",
"196 412 OFFCURVE",
"232 412 CURVE SMOOTH",
"286 412 OFFCURVE",
"307 387 OFFCURVE",
"307 322 CURVE SMOOTH",
"307 157 LINE",
"297 117 OFFCURVE",
"270 93 OFFCURVE",
"235 93 CURVE SMOOTH",
"198 93 OFFCURVE",
"181 113 OFFCURVE",
"181 154 CURVE SMOOTH",
"181 191 OFFCURVE",
"196 209 OFFCURVE",
"233 216 CURVE SMOOTH",
"323 231 LINE",
"323 296 LINE",
"165 270 LINE SMOOTH",
"77 256 OFFCURVE",
"33 210 OFFCURVE",
"33 132 CURVE SMOOTH",
"33 44 OFFCURVE",
"89 -10 OFFCURVE",
"180 -10 CURVE SMOOTH"
);
}
);
};
layerId = "16643525-C5DD-48EC-8E99-463BF28F5E85";
paths = (
{
closed = 1;
nodes = (
"259 -10 OFFCURVE",
"308 30 OFFCURVE",
"339 119 CURVE",
"311 135 LINE",
"326 0 LINE",
"510 0 LINE",
"516 71 LINE",
"393 83 LINE",
"462 38 LINE",
"457 69 OFFCURVE",
"447 125 OFFCURVE",
"447 193 CURVE SMOOTH",
"447 329 LINE SMOOTH",
"447 443 OFFCURVE",
"370 509 OFFCURVE",
"238 509 CURVE SMOOTH",
"194 509 OFFCURVE",
"115 497 OFFCURVE",
"55 482 CURVE",
"70 313 LINE",
"145 316 LINE",
"144 359 LINE",
"162 461 LINE",
"119 391 LINE",
"141 399 OFFCURVE",
"196 418 OFFCURVE",
"232 418 CURVE SMOOTH",
"286 418 OFFCURVE",
"307 393 OFFCURVE",
"307 328 CURVE SMOOTH",
"307 157 LINE",
"297 117 OFFCURVE",
"270 93 OFFCURVE",
"235 93 CURVE SMOOTH",
"198 93 OFFCURVE",
"181 113 OFFCURVE",
"181 154 CURVE SMOOTH",
"181 191 OFFCURVE",
"196 209 OFFCURVE",
"233 216 CURVE SMOOTH",
"323 231 LINE",
"323 296 LINE",
"165 270 LINE SMOOTH",
"77 256 OFFCURVE",
"33 210 OFFCURVE",
"33 132 CURVE SMOOTH",
"33 44 OFFCURVE",
"89 -10 OFFCURVE",
"180 -10 CURVE SMOOTH"
);
}
);
width = 526;
},
{
anchors = (
{
name = bottom;
position = "{234, 0}";
},
{
name = ogonek;
position = "{354, 0}";
},
{
name = top;
position = "{344, 494}";
}
);
associatedMasterId = UUID0;
layerId = "41328141-E9A8-4E00-A418-9E10FE0D6041";
name = "Regular Italic Jun 29 15, 13:28";
paths = (
{
closed = 1;
nodes = (
"468 65 LINE",
"379 70 LINE",
"406 228 OFFCURVE",
"451 351 OFFCURVE",
"504 488 CURVE",
"482 504 LINE",
"421 490 LINE",
"394 493 OFFCURVE",
"330 504 OFFCURVE",
"299 504 CURVE SMOOTH",
"203 504 OFFCURVE",
"48 294 OFFCURVE",
"27 139 CURVE SMOOTH",
"12 41 OFFCURVE",
"40 -11 OFFCURVE",
"105 -11 CURVE SMOOTH",
"178 -11 OFFCURVE",
"261 68 OFFCURVE",
"330 178 CURVE",
"301 68 OFFCURVE",
"276 0 OFFCURVE",
"276 0 CURVE",
"300 -15 LINE",
"459 29 LINE"
);
},
{
closed = 1;
nodes = (
"123 55 OFFCURVE",
"112 94 OFFCURVE",
"120 150 CURVE SMOOTH",
"137 272 OFFCURVE",
"228 446 OFFCURVE",
"277 446 CURVE SMOOTH",
"316 446 OFFCURVE",
"367 420 OFFCURVE",
"386 411 CURVE",
"347 257 OFFCURVE",
"209 55 OFFCURVE",
"150 55 CURVE SMOOTH"
);
}
);
width = 509;
},
{
anchors = (
{
name = bottom;
position = "{234, 0}";
},
{
name = ogonek;
position = "{354, 0}";
},
{
name = top;
position = "{344, 494}";
}
);
associatedMasterId = UUID0;
background = {
paths = (
{
closed = 1;
nodes = (
"468 65 LINE",
"379 70 LINE",
"401 228 OFFCURVE",
"441 351 OFFCURVE",
"490 488 CURVE",
"467 504 LINE",
"407 490 LINE",
"375 493 OFFCURVE",
"298 504 OFFCURVE",
"262 504 CURVE SMOOTH",
"173 504 OFFCURVE",
"39 294 OFFCURVE",
"25 139 CURVE SMOOTH",
"12 41 OFFCURVE",
"44 -11 OFFCURVE",
"113 -11 CURVE SMOOTH",
"184 -11 OFFCURVE",
"263 68 OFFCURVE",
"326 178 CURVE",
"301 68 OFFCURVE",
"279 0 OFFCURVE",
"279 0 CURVE",
"303 -15 LINE",
"461 29 LINE"
);
},
{
closed = 1;
nodes = (
"124 55 OFFCURVE",
"110 94 OFFCURVE",
"117 150 CURVE SMOOTH",
"128 272 OFFCURVE",
"201 446 OFFCURVE",
"244 446 CURVE SMOOTH",
"290 446 OFFCURVE",
"352 420 OFFCURVE",
"374 411 CURVE",
"342 257 OFFCURVE",
"214 55 OFFCURVE",
"156 55 CURVE SMOOTH"
);
}
);
};
layerId = "BD1E864A-6186-412D-9566-6071B2B8003F";
name = "Regular Italic Jun 29 15, 13:31";
paths = (
{
closed = 1;
nodes = (
"468 65 LINE",
"379 70 LINE",
"406 228 OFFCURVE",
"451 351 OFFCURVE",
"504 488 CURVE",
"482 504 LINE",
"421 490 LINE",
"390 493 OFFCURVE",
"313 504 OFFCURVE",
"277 504 CURVE SMOOTH",
"188 504 OFFCURVE",
"46 294 OFFCURVE",
"27 139 CURVE SMOOTH",
"11 41 OFFCURVE",
"41 -11 OFFCURVE",
"110 -11 CURVE SMOOTH",
"181 -11 OFFCURVE",
"263 68 OFFCURVE",
"330 178 CURVE",
"301 68 OFFCURVE",
"276 0 OFFCURVE",
"276 0 CURVE",
"300 -15 LINE",
"459 29 LINE"
);
},
{
closed = 1;
nodes = (
"123 55 OFFCURVE",
"111 94 OFFCURVE",
"120 150 CURVE SMOOTH",
"135 272 OFFCURVE",
"214 446 OFFCURVE",
"257 446 CURVE SMOOTH",
"303 446 OFFCURVE",
"364 420 OFFCURVE",
"386 411 CURVE",
"348 257 OFFCURVE",
"213 55 OFFCURVE",
"155 55 CURVE SMOOTH"
);
}
);
width = 509;
},
{
anchors = (
{
name = bottom;
position = "{234, 0}";
},
{
name = ogonek;
position = "{354, 0}";
},
{
name = top;
position = "{344, 494}";
}
);
associatedMasterId = UUID0;
layerId = "47A9C615-076A-412B-B511-2B93DE38ABD4";
name = "Regular Italic Jun 29 15, 13:28";
paths = (
{
closed = 1;
nodes = (
"468 65 LINE",
"379 70 LINE",
"406 228 OFFCURVE",
"451 351 OFFCURVE",
"504 488 CURVE",
"482 504 LINE",
"421 490 LINE",
"394 493 OFFCURVE",
"330 504 OFFCURVE",
"299 504 CURVE SMOOTH",
"203 504 OFFCURVE",
"48 294 OFFCURVE",
"27 139 CURVE SMOOTH",
"12 41 OFFCURVE",
"40 -11 OFFCURVE",
"105 -11 CURVE SMOOTH",
"178 -11 OFFCURVE",
"261 68 OFFCURVE",
"330 178 CURVE",
"301 68 OFFCURVE",
"276 0 OFFCURVE",
"276 0 CURVE",
"300 -15 LINE",
"459 29 LINE"
);
},
{
closed = 1;
nodes = (
"123 55 OFFCURVE",
"112 94 OFFCURVE",
"120 150 CURVE SMOOTH",
"137 272 OFFCURVE",
"228 446 OFFCURVE",
"277 446 CURVE SMOOTH",
"316 446 OFFCURVE",
"367 420 OFFCURVE",
"386 411 CURVE",
"347 257 OFFCURVE",
"209 55 OFFCURVE",
"150 55 CURVE SMOOTH"
);
}
);
width = 509;
},
{
anchors = (
{
name = bottom;
position = "{234, 0}";
},
{
name = ogonek;
position = "{354, 0}";
},
{
name = top;
position = "{344, 494}";
}
);
associatedMasterId = UUID0;
background = {
paths = (
{
closed = 1;
nodes = (
"468 65 LINE",
"379 70 LINE",
"401 228 OFFCURVE",
"441 351 OFFCURVE",
"490 488 CURVE",
"467 504 LINE",
"407 490 LINE",
"375 493 OFFCURVE",
"298 504 OFFCURVE",
"262 504 CURVE SMOOTH",
"173 504 OFFCURVE",
"39 294 OFFCURVE",
"25 139 CURVE SMOOTH",
"12 41 OFFCURVE",
"44 -11 OFFCURVE",
"113 -11 CURVE SMOOTH",
"184 -11 OFFCURVE",
"263 68 OFFCURVE",
"326 178 CURVE",
"301 68 OFFCURVE",
"279 0 OFFCURVE",
"279 0 CURVE",
"303 -15 LINE",
"461 29 LINE"
);
},
{
closed = 1;
nodes = (
"124 55 OFFCURVE",
"110 94 OFFCURVE",
"117 150 CURVE SMOOTH",
"128 272 OFFCURVE",
"201 446 OFFCURVE",
"244 446 CURVE SMOOTH",
"290 446 OFFCURVE",
"352 420 OFFCURVE",
"374 411 CURVE",
"342 257 OFFCURVE",
"214 55 OFFCURVE",
"156 55 CURVE SMOOTH"
);
}
);
};
layerId = "2374DB16-F09E-4C0D-8B71-C2C4AF4FE021";
name = "Regular Italic Jun 29 15, 13:31";
paths = (
{
closed = 1;
nodes = (
"468 65 LINE",
"379 70 LINE",
"406 228 OFFCURVE",
"451 351 OFFCURVE",
"504 488 CURVE",
"482 504 LINE",
"421 490 LINE",
"390 493 OFFCURVE",
"313 504 OFFCURVE",
"277 504 CURVE SMOOTH",
"188 504 OFFCURVE",
"46 294 OFFCURVE",
"27 139 CURVE SMOOTH",
"11 41 OFFCURVE",
"41 -11 OFFCURVE",
"110 -11 CURVE SMOOTH",
"181 -11 OFFCURVE",
"263 68 OFFCURVE",
"330 178 CURVE",
"301 68 OFFCURVE",
"276 0 OFFCURVE",
"276 0 CURVE",
"300 -15 LINE",
"459 29 LINE"
);
},
{
closed = 1;
nodes = (
"123 55 OFFCURVE",
"111 94 OFFCURVE",
"120 150 CURVE SMOOTH",
"135 272 OFFCURVE",
"214 446 OFFCURVE",
"257 446 CURVE SMOOTH",
"303 446 OFFCURVE",
"364 420 OFFCURVE",
"386 411 CURVE",
"348 257 OFFCURVE",
"213 55 OFFCURVE",
"155 55 CURVE SMOOTH"
);
}
);
width = 509;
}
);
leftKerningGroup = a;
rightKerningGroup = n;
unicode = 0061;
},
{
glyphname = aacute;
layers = (
{
anchors = (
{
name = top;
position = "{246, 660}";
}
);
components = (
{
name = a;
}
);
layerId = UUID0;
paths = (
{
closed = 1;
nodes = (
"363 694 LINE",
"308 742 LINE",
"149 576 LINE",
"188 543 LINE"
);
}
);
width = 508;
},
{
anchors = (
{
name = top;
position = "{263, 665}";
}
);
components = (
{
name = a;
}
);
layerId = "16643525-C5DD-48EC-8E99-463BF28F5E85";
paths = (
{
closed = 1;
nodes = (
"382 702 LINE",
"321 762 LINE",
"151 586 LINE",
"200 546 LINE"
);
}
);
width = 526;
}
);
leftKerningGroup = a;
rightKerningGroup = n;
unicode = 00E1;
},
{
glyphname = acircumflex;
layers = (
{
anchors = (
{
name = top;
position = "{226, 710}";
}
);
components = (
{
name = a;
}
);
layerId = UUID0;
paths = (
{
closed = 1;
nodes = (
"390 570 LINE",
"255 700 LINE",
"218 700 LINE",
"183 669 LINE",
"359 540 LINE"
);
},
{
closed = 1;
nodes = (
"269 669 LINE",
"234 700 LINE",
"197 700 LINE",
"62 570 LINE",
"93 540 LINE"
);
}
);
width = 508;
},
{
anchors = (
{
name = top;
position = "{237, 720}";
}
);
components = (
{
name = a;
}
);
layerId = "16643525-C5DD-48EC-8E99-463BF28F5E85";
paths = (
{
closed = 1;
nodes = (
"423 596 LINE",
"280 720 LINE",
"222 720 LINE",
"205 670 LINE",
"383 550 LINE"
);
},
{
closed = 1;
nodes = (
"269 670 LINE",
"252 720 LINE",
"194 720 LINE",
"51 596 LINE",
"91 550 LINE"
);
}
);
width = 526;
}
);
leftKerningGroup = a;
rightKerningGroup = n;
unicode = 00E2;
},
{
glyphname = ae;
layers = (
{
anchors = (
{
name = bottom;
position = "{381, 0}";
},
{
name = top;
position = "{381, 494}";
}
);
background = {
paths = (
{
closed = 1;
nodes = (
"78 344 LINE",
"136 347 LINE",
"136 383 LINE",
"145 430 LINE",
"169 442 OFFCURVE",
"203 449 OFFCURVE",
"238 449 CURVE SMOOTH",
"301 449 OFFCURVE",
"332 404 OFFCURVE",
"332 311 CURVE SMOOTH",
"332 277 LINE",
"153 247 LINE SMOOTH",
"78 235 OFFCURVE",
"38 191 OFFCURVE",
"38 123 CURVE SMOOTH",
"38 42 OFFCURVE",
"94 -10 OFFCURVE",
"183 -10 CURVE SMOOTH",
"257 -10 OFFCURVE",
"318 29 OFFCURVE",
"363 106 CURVE",
"396 31 OFFCURVE",
"461 -10 OFFCURVE",
"548 -10 CURVE SMOOTH",
"651 -10 OFFCURVE",
"725 50 OFFCURVE",
"725 50 CURVE",
"697 96 LINE",
"697 96 OFFCURVE",
"637 55 OFFCURVE",
"558 55 CURVE SMOOTH",
"475 55 OFFCURVE",
"416 129 OFFCURVE",
"412 238 CURVE",
"711 272 LINE",
"726 310 LINE",
"717 438 OFFCURVE",
"654 502 OFFCURVE",
"536 502 CURVE SMOOTH",
"476 502 OFFCURVE",
"425 480 OFFCURVE",
"386 438 CURVE",
"362 482 OFFCURVE",
"317 503 OFFCURVE",
"248 503 CURVE SMOOTH",
"188 503 OFFCURVE",
"127 495 OFFCURVE",
"67 479 CURVE"
);
},
{
closed = 1;
nodes = (
"332 226 LINE",
"332 215 LINE SMOOTH",
"332 124 OFFCURVE",
"274 54 OFFCURVE",
"199 54 CURVE SMOOTH",
"152 54 OFFCURVE",
"126 81 OFFCURVE",
"126 128 CURVE SMOOTH",
"126 171 OFFCURVE",
"144 191 OFFCURVE",
"189 200 CURVE SMOOTH"
);
},
{
closed = 1;
nodes = (
"598 450 OFFCURVE",
"636 403 OFFCURVE",
"636 322 CURVE SMOOTH",
"636 320 LINE",
"414 289 LINE",
"421 391 OFFCURVE",
"464 450 OFFCURVE",
"532 450 CURVE SMOOTH"
);
}
);
};
layerId = UUID0;
paths = (
{
closed = 1;
nodes = (
"265 -10 OFFCURVE",
"331 38 OFFCURVE",
"377 132 CURVE",
"354 131 LINE",
"383 40 OFFCURVE",
"452 -10 OFFCURVE",
"548 -10 CURVE SMOOTH",
"651 -10 OFFCURVE",
"725 50 OFFCURVE",
"725 50 CURVE",
"697 96 LINE",
"697 96 OFFCURVE",
"637 55 OFFCURVE",
"558 55 CURVE SMOOTH",
"471 55 OFFCURVE",
"410 136 OFFCURVE",
"412 254 CURVE",
"413 271 LINE SMOOTH",
"416 384 OFFCURVE",
"460 450 OFFCURVE",
"532 450 CURVE SMOOTH",
"598 450 OFFCURVE",
"636 403 OFFCURVE",
"636 322 CURVE SMOOTH",
"636 284 LINE",
"672 325 LINE",
"401 287 LINE",
"399 237 LINE",
"711 272 LINE",
"726 310 LINE",
"717 438 OFFCURVE",
"654 502 OFFCURVE",
"536 502 CURVE SMOOTH",
"467 502 OFFCURVE",
"410 473 OFFCURVE",
"370 419 CURVE",
"395 416 LINE",
"375 475 OFFCURVE",
"327 503 OFFCURVE",
"248 503 CURVE SMOOTH",
"188 503 OFFCURVE",
"127 495 OFFCURVE",
"67 479 CURVE",
"78 344 LINE",
"136 347 LINE",
"136 383 LINE",
"152 466 LINE",
"129 420 LINE",
"152 438 OFFCURVE",
"194 449 OFFCURVE",
"238 449 CURVE SMOOTH",
"301 449 OFFCURVE",
"332 404 OFFCURVE",
"332 311 CURVE SMOOTH",
"332 215 LINE SMOOTH",
"332 124 OFFCURVE",
"274 54 OFFCURVE",
"199 54 CURVE SMOOTH",
"152 54 OFFCURVE",
"126 81 OFFCURVE",
"126 128 CURVE SMOOTH",
"126 171 OFFCURVE",
"144 191 OFFCURVE",
"189 200 CURVE SMOOTH",
"345 228 LINE",
"345 279 LINE",
"153 247 LINE SMOOTH",
"78 235 OFFCURVE",
"38 191 OFFCURVE",
"38 123 CURVE SMOOTH",
"38 42 OFFCURVE",
"94 -10 OFFCURVE",
"183 -10 CURVE SMOOTH"
);
}
);
width = 762;
},
{
anchors = (
{
name = bottom;
position = "{383, 0}";
},
{
name = top;
position = "{383, 494}";
}
);
background = {
paths = (
{
closed = 1;
nodes = (
"70 309 LINE",
"145 312 LINE",
"145 361 LINE",
"148 400 LINE",
"176 413 OFFCURVE",
"210 422 OFFCURVE",
"232 422 CURVE SMOOTH",
"283 422 OFFCURVE",
"307 391 OFFCURVE",
"307 323 CURVE SMOOTH",
"307 284 LINE",
"165 270 LINE SMOOTH",
"79 262 OFFCURVE",
"33 214 OFFCURVE",
"33 132 CURVE SMOOTH",
"33 47 OFFCURVE",
"96 -10 OFFCURVE",
"190 -10 CURVE SMOOTH",
"265 -10 OFFCURVE",
"315 16 OFFCURVE",
"359 77 CURVE",
"399 15 OFFCURVE",
"456 -15 OFFCURVE",
"535 -15 CURVE SMOOTH",
"613 -15 OFFCURVE",
"679 9 OFFCURVE",
"731 56 CURVE",
"696 114 LINE",
"696 114 OFFCURVE",
"648 81 OFFCURVE",
"575 81 CURVE SMOOTH",
"490 81 OFFCURVE",
"455 121 OFFCURVE",
"449 224 CURVE",
"719 240 LINE",
"740 279 LINE",
"740 420 OFFCURVE",
"662 503 OFFCURVE",
"531 503 CURVE SMOOTH",
"473 503 OFFCURVE",
"424 489 OFFCURVE",
"386 461 CURVE",
"350 489 OFFCURVE",
"300 503 OFFCURVE",
"238 503 CURVE SMOOTH",
"192 503 OFFCURVE",
"122 493 OFFCURVE",
"55 476 CURVE"
);
},
{
closed = 1;
nodes = (
"307 214 LINE",
"307 182 LINE SMOOTH",
"307 124 OFFCURVE",
"282 93 OFFCURVE",
"235 93 CURVE SMOOTH",
"198 93 OFFCURVE",
"181 111 OFFCURVE",
"181 152 CURVE SMOOTH",
"181 188 OFFCURVE",
"194 202 OFFCURVE",
"233 207 CURVE SMOOTH"
);
},
{
closed = 1;
nodes = (
"563 424 OFFCURVE",
"583 388 OFFCURVE",
"583 311 CURVE SMOOTH",
"582 303 LINE",
"450 294 LINE",
"453 380 OFFCURVE",
"476 424 OFFCURVE",
"520 424 CURVE SMOOTH"
);
}
);
};
layerId = "16643525-C5DD-48EC-8E99-463BF28F5E85";
paths = (
{
closed = 1;
nodes = (
"281 -10 OFFCURVE",
"335 28 OFFCURVE",
"386 120 CURVE",
"337 118 LINE",
"377 28 OFFCURVE",
"440 -15 OFFCURVE",
"535 -15 CURVE SMOOTH",
"613 -15 OFFCURVE",
"679 9 OFFCURVE",
"731 56 CURVE",
"696 114 LINE",
"696 114 OFFCURVE",
"648 81 OFFCURVE",
"575 81 CURVE SMOOTH",
"484 81 OFFCURVE",
"450 127 OFFCURVE",
"448 248 CURVE",
"450 268 LINE",
"449 371 OFFCURVE",
"472 424 OFFCURVE",
"520 424 CURVE SMOOTH",
"563 424 OFFCURVE",
"583 388 OFFCURVE",
"583 311 CURVE SMOOTH",
"583 240 LINE",
"646 307 LINE",
"434 293 LINE",
"433 223 LINE",
"719 240 LINE",
"740 279 LINE",
"740 420 OFFCURVE",
"662 503 OFFCURVE",
"531 503 CURVE SMOOTH",
"457 503 OFFCURVE",
"398 480 OFFCURVE",
"357 435 CURVE",
"412 435 LINE",
"376 480 OFFCURVE",
"317 503 OFFCURVE",
"238 503 CURVE SMOOTH",
"192 503 OFFCURVE",
"122 493 OFFCURVE",
"55 476 CURVE",
"70 309 LINE",
"145 312 LINE",
"145 361 LINE",
"153 463 LINE",
"114 379 LINE",
"141 402 OFFCURVE",
"199 422 OFFCURVE",
"232 422 CURVE SMOOTH",
"283 422 OFFCURVE",
"307 391 OFFCURVE",
"307 323 CURVE SMOOTH",
"307 182 LINE SMOOTH",
"307 124 OFFCURVE",
"282 93 OFFCURVE",
"235 93 CURVE SMOOTH",
"198 93 OFFCURVE",
"181 111 OFFCURVE",
"181 152 CURVE SMOOTH",
"181 188 OFFCURVE",
"194 202 OFFCURVE",
"233 207 CURVE SMOOTH",
"323 216 LINE",
"323 286 LINE",
"165 270 LINE SMOOTH",
"79 262 OFFCURVE",
"33 214 OFFCURVE",
"33 132 CURVE SMOOTH",
"33 47 OFFCURVE",
"96 -10 OFFCURVE",
"190 -10 CURVE SMOOTH"
);
}
);
width = 765;
}
);
leftKerningGroup = a;
rightKerningGroup = e;
unicode = 00E6;
},
{
glyphname = atilde;
layers = (
{
anchors = (
{
name = top;
position = "{226, 630}";
}
);
components = (
{
name = a;
}
);
layerId = UUID0;
paths = (
{
closed = 1;
nodes = (
"91 560 OFFCURVE",
"117 612 OFFCURVE",
"144 612 CURVE SMOOTH",
"184 612 OFFCURVE",
"258 571 OFFCURVE",
"298 571 CURVE SMOOTH",
"336 571 OFFCURVE",
"376 659 OFFCURVE",
"381 670 CURVE",
"345 691 LINE",
"345 691 OFFCURVE",
"319 641 OFFCURVE",
"292 641 CURVE SMOOTH",
"252 641 OFFCURVE",
"177 682 OFFCURVE",
"137 682 CURVE SMOOTH",
"97 682 OFFCURVE",
"55 581 OFFCURVE",
"55 581 CURVE",
"91 560 LINE"
);
}
);
width = 508;
},
{
anchors = (
{
name = top;
position = "{226, 640}";
}
);
components = (
{
name = a;
}
);
layerId = "16643525-C5DD-48EC-8E99-463BF28F5E85";
paths = (
{
closed = 1;
nodes = (
"110 560 OFFCURVE",
"136 605 OFFCURVE",
"160 605 CURVE SMOOTH",
"203 605 OFFCURVE",
"280 566 OFFCURVE",
"323 566 CURVE SMOOTH",
"364 566 OFFCURVE",
"402 652 OFFCURVE",
"409 666 CURVE",
"363 693 LINE",
"363 693 OFFCURVE",
"340 652 OFFCURVE",
"316 652 CURVE SMOOTH",
"274 652 OFFCURVE",
"195 690 OFFCURVE",
"153 690 CURVE SMOOTH",
"111 690 OFFCURVE",
"66 586 OFFCURVE",
"66 586 CURVE",
"110 560 LINE"
);
}
);
width = 526;
}
);
leftKerningGroup = a;
rightKerningGroup = n;
unicode = 00E3;
},
{
glyphname = b;
layers = (
{
anchors = (
{
name = bottom;
position = "{266, 0}";
},
{
name = top;
position = "{266, 756}";
}
);
background = {
paths = (
{
closed = 1;
nodes = (
"405 -10 OFFCURVE",
"492 113 OFFCURVE",
"492 256 CURVE SMOOTH",
"492 394 OFFCURVE",
"427 503 OFFCURVE",
"294 503 CURVE SMOOTH",
"215 503 OFFCURVE",
"167 453 OFFCURVE",
"145 410 CURVE",
"155 391 LINE",
"155 585 LINE SMOOTH",
"155 635 OFFCURVE",
"162 738 OFFCURVE",
"162 738 CURVE",
"143 756 LINE",
"85 756 LINE SMOOTH",
"65 756 OFFCURVE",
"-7 760 OFFCURVE",
"-7 760 CURVE",
"-12 707 LINE",
"100 683 LINE",
"60 715 LINE",
"64 691 OFFCURVE",
"74 637 OFFCURVE",
"74 615 CURVE SMOOTH",
"74 137 LINE SMOOTH",
"74 117 OFFCURVE",
"66 26 OFFCURVE",
"66 26 CURVE",
"112 9 OFFCURVE",
"180 -10 OFFCURVE",
"262 -10 CURVE SMOOTH"
);
},
{
closed = 1;
nodes = (
"161 52 OFFCURVE",
"155 113 OFFCURVE",
"155 167 CURVE SMOOTH",
"155 274 LINE SMOOTH",
"155 357 OFFCURVE",
"195 442 OFFCURVE",
"279 442 CURVE SMOOTH",
"374 442 OFFCURVE",
"400 353 OFFCURVE",
"400 254 CURVE SMOOTH",
"400 144 OFFCURVE",
"364 46 OFFCURVE",
"256 46 CURVE SMOOTH",
"212 46 OFFCURVE",
"173 54 OFFCURVE",
"142 64 CURVE",
"167 32 LINE"
);
}
);
};
layerId = UUID0;
paths = (
{
closed = 1;
nodes = (
"405 -10 OFFCURVE",
"492 113 OFFCURVE",
"492 256 CURVE SMOOTH",
"492 394 OFFCURVE",
"427 503 OFFCURVE",
"294 503 CURVE SMOOTH",
"215 503 OFFCURVE",
"167 453 OFFCURVE",
"145 410 CURVE",
"155 391 LINE",
"155 585 LINE SMOOTH",
"155 635 OFFCURVE",
"162 738 OFFCURVE",
"162 738 CURVE",
"143 756 LINE",
"85 756 LINE SMOOTH",
"65 756 OFFCURVE",
"-7 760 OFFCURVE",
"-7 760 CURVE",
"-12 707 LINE",
"100 683 LINE",
"60 715 LINE",
"64 691 OFFCURVE",
"74 637 OFFCURVE",
"74 615 CURVE SMOOTH",
"74 137 LINE SMOOTH",
"74 117 OFFCURVE",
"66 26 OFFCURVE",
"66 26 CURVE",
"112 9 OFFCURVE",
"180 -10 OFFCURVE",
"262 -10 CURVE SMOOTH"
);
},
{
closed = 1;
nodes = (
"161 52 OFFCURVE",
"155 113 OFFCURVE",
"155 167 CURVE SMOOTH",
"155 274 LINE SMOOTH",
"155 357 OFFCURVE",
"195 442 OFFCURVE",
"279 442 CURVE SMOOTH",
"374 442 OFFCURVE",
"400 353 OFFCURVE",
"400 254 CURVE SMOOTH",
"400 144 OFFCURVE",
"364 46 OFFCURVE",
"256 46 CURVE SMOOTH",
"212 46 OFFCURVE",
"173 54 OFFCURVE",
"142 64 CURVE",
"167 32 LINE"
);
}
);
width = 532;
},
{
anchors = (
{
name = bottom;
position = "{284, 0}";
},
{
name = top;
position = "{284, 756}";
}
);
background = {
paths = (
{
closed = 1;
nodes = (
"-21 691 LINE",
"54 674 LINE",
"54 674 OFFCURVE",
"64 607 OFFCURVE",
"64 587 CURVE SMOOTH",
"64 163 LINE SMOOTH",
"64 143 OFFCURVE",
"54 26 OFFCURVE",
"54 26 CURVE",
"149 -2 OFFCURVE",
"221 -10 OFFCURVE",
"285 -10 CURVE SMOOTH",
"449 -10 OFFCURVE",
"536 90 OFFCURVE",
"536 254 CURVE SMOOTH",
"536 392 OFFCURVE",
"484 503 OFFCURVE",
"346 503 CURVE SMOOTH",
"280 503 OFFCURVE",
"238 476 OFFCURVE",
"204 433 CURVE",
"204 557 LINE SMOOTH",
"204 607 OFFCURVE",
"214 737 OFFCURVE",
"214 737 CURVE",
"193 756 LINE",
"105 756 LINE SMOOTH",
"63 756 OFFCURVE",
"-12 766 OFFCURVE",
"-12 766 CURVE"
);
},
{
closed = 1;
nodes = (
"366 390 OFFCURVE",
"377 315 OFFCURVE",
"377 241 CURVE SMOOTH",
"377 153 OFFCURVE",
"361 85 OFFCURVE",
"273 85 CURVE SMOOTH",
"252 85 OFFCURVE",
"229 91 OFFCURVE",
"207 98 CURVE",
"206 124 OFFCURVE",
"204 163 OFFCURVE",
"204 193 CURVE SMOOTH",
"204 260 LINE SMOOTH",
"208 331 OFFCURVE",
"230 390 OFFCURVE",
"292 390 CURVE SMOOTH"
);
}
);
};
layerId = "16643525-C5DD-48EC-8E99-463BF28F5E85";
paths = (
{
closed = 1;
nodes = (
"449 -10 OFFCURVE",
"536 91 OFFCURVE",
"536 257 CURVE SMOOTH",
"536 397 OFFCURVE",
"484 509 OFFCURVE",
"346 509 CURVE SMOOTH",
"263 509 OFFCURVE",
"218 466 OFFCURVE",
"179 403 CURVE",
"204 370 LINE",
"204 557 LINE SMOOTH",
"204 607 OFFCURVE",
"214 737 OFFCURVE",
"214 737 CURVE",
"193 756 LINE",
"105 756 LINE SMOOTH",
"63 756 OFFCURVE",
"-12 766 OFFCURVE",
"-12 766 CURVE",
"-21 691 LINE",
"115 660 LINE",
"49 705 LINE",
"56 664 OFFCURVE",
"64 607 OFFCURVE",
"64 587 CURVE SMOOTH",
"64 163 LINE SMOOTH",
"64 143 OFFCURVE",
"54 26 OFFCURVE",
"54 26 CURVE",
"149 -2 OFFCURVE",
"221 -10 OFFCURVE",
"285 -10 CURVE SMOOTH"
);
},
{
closed = 1;
nodes = (
"208 88 OFFCURVE",
"204 150 OFFCURVE",
"204 193 CURVE SMOOTH",
"204 266 LINE SMOOTH",
"208 337 OFFCURVE",
"230 396 OFFCURVE",
"292 396 CURVE SMOOTH",
"366 396 OFFCURVE",
"377 319 OFFCURVE",
"377 244 CURVE SMOOTH",
"377 154 OFFCURVE",
"361 85 OFFCURVE",
"273 85 CURVE SMOOTH",
"239 85 OFFCURVE",
"200 101 OFFCURVE",
"168 111 CURVE",
"207 73 LINE"
);
}
);
width = 568;
}
);
leftKerningGroup = h;
rightKerningGroup = o;
unicode = 0062;
},
{
glyphname = c;
layers = (
{
anchors = (
{
name = bottom;
position = "{252, 0}";
},
{
name = top;
position = "{274, 494}";
}
);
background = {
paths = (
{
closed = 1;
nodes = (
"374 -10 OFFCURVE",
"439 44 OFFCURVE",
"439 44 CURVE",
"411 91 LINE",
"411 91 OFFCURVE",
"349 55 OFFCURVE",
"271 55 CURVE SMOOTH",
"171 55 OFFCURVE",
"135 146 OFFCURVE",
"135 246 CURVE SMOOTH",
"135 346 OFFCURVE",
"172 446 OFFCURVE",
"271 446 CURVE SMOOTH",
"307 446 OFFCURVE",
"342 429 OFFCURVE",
"378 410 CURVE",
"344 445 LINE",
"351 423 OFFCURVE",
"360 394 OFFCURVE",
"360 382 CURVE SMOOTH",
"360 346 LINE",
"418 343 LINE",
"428 468 LINE",
"368 488 OFFCURVE",
"330 503 OFFCURVE",
"271 503 CURVE SMOOTH",
"118 503 OFFCURVE",
"41 399 OFFCURVE",
"41 246 CURVE SMOOTH",
"41 93 OFFCURVE",
"117 -10 OFFCURVE",
"270 -10 CURVE SMOOTH"
);
}
);
};
layerId = UUID0;
paths = (
{
closed = 1;
nodes = (
"329 -10 OFFCURVE",
"383 6 OFFCURVE",
"439 44 CURVE",
"411 91 LINE",
"364 68 OFFCURVE",
"320 55 OFFCURVE",
"271 55 CURVE SMOOTH",
"171 55 OFFCURVE",
"135 146 OFFCURVE",
"135 246 CURVE SMOOTH",
"135 346 OFFCURVE",
"172 446 OFFCURVE",
"271 446 CURVE SMOOTH",
"307 446 OFFCURVE",
"342 429 OFFCURVE",
"378 410 CURVE",
"344 445 LINE",
"351 423 OFFCURVE",
"360 394 OFFCURVE",
"360 382 CURVE SMOOTH",
"360 346 LINE",
"418 343 LINE",
"428 468 LINE",
"368 488 OFFCURVE",
"330 503 OFFCURVE",
"271 503 CURVE SMOOTH",
"118 503 OFFCURVE",
"41 399 OFFCURVE",
"41 246 CURVE SMOOTH",
"41 93 OFFCURVE",
"117 -10 OFFCURVE",
"270 -10 CURVE SMOOTH"
);
}
);
width = 472;
},
{
anchors = (
{
name = bottom;
position = "{278, 0}";
},
{
name = top;
position = "{273, 494}";
}
);
background = {
paths = (
{
closed = 1;
nodes = (
"344 -15 OFFCURVE",
"410 11 OFFCURVE",
"461 56 CURVE",
"426 114 LINE",
"426 114 OFFCURVE",
"378 82 OFFCURVE",
"309 82 CURVE SMOOTH",
"229 82 OFFCURVE",
"189 137 OFFCURVE",
"189 248 CURVE SMOOTH",
"189 373 OFFCURVE",
"219 430 OFFCURVE",
"284 430 CURVE SMOOTH",
"327 430 OFFCURVE",
"368 404 OFFCURVE",
"397 380 CURVE",
"338 446 LINE",
"349 419 OFFCURVE",
"351 392 OFFCURVE",
"353 365 CURVE SMOOTH",
"352 311 LINE",
"437 308 LINE",
"452 485 LINE",
"452 485 OFFCURVE",
"363 509 OFFCURVE",
"275 509 CURVE SMOOTH",
"123 509 OFFCURVE",
"30 410 OFFCURVE",
"30 248 CURVE SMOOTH",
"30 77 OFFCURVE",
"117 -15 OFFCURVE",
"280 -15 CURVE SMOOTH"
);
}
);
};
layerId = "16643525-C5DD-48EC-8E99-463BF28F5E85";
paths = (
{
closed = 1;
nodes = (
"344 -15 OFFCURVE",
"410 11 OFFCURVE",
"461 56 CURVE",
"426 114 LINE",
"387 92 OFFCURVE",
"350 82 OFFCURVE",
"309 82 CURVE SMOOTH",
"229 82 OFFCURVE",
"189 137 OFFCURVE",
"189 248 CURVE SMOOTH",
"189 373 OFFCURVE",
"219 430 OFFCURVE",
"284 430 CURVE SMOOTH",
"327 430 OFFCURVE",
"368 404 OFFCURVE",
"397 380 CURVE",
"338 446 LINE",
"349 419 OFFCURVE",
"351 392 OFFCURVE",
"353 365 CURVE SMOOTH",
"352 311 LINE",
"437 308 LINE",
"452 485 LINE",
"393 497 OFFCURVE",
"335 509 OFFCURVE",
"275 509 CURVE SMOOTH",
"123 509 OFFCURVE",
"30 410 OFFCURVE",
"30 248 CURVE SMOOTH",
"30 77 OFFCURVE",
"117 -15 OFFCURVE",
"280 -15 CURVE SMOOTH"
);
}
);
width = 488;
}
);
leftKerningGroup = o;
rightKerningGroup = c;
unicode = 0063;
},
{
glyphname = ccedilla;
layers = (
{
anchors = (
{
name = _bottom;
position = "{252, 0}";
},
{
name = bottom;
position = "{252, -247}";
}
);
components = (
{
name = c;
}
);
layerId = UUID0;
paths = (
{
closed = 1;
nodes = (
"229 -247 OFFCURVE",
"263 -238 OFFCURVE",
"287 -220 CURVE SMOOTH",
"315 -199 OFFCURVE",
"328 -169 OFFCURVE",
"328 -145 CURVE SMOOTH",
"328 -108 OFFCURVE",
"300 -69 OFFCURVE",
"221 -55 CURVE",
"236 -97 LINE",
"273 17 LINE",
"230 17 LINE",
"203 -111 LINE",
"212 -118 LINE",
"251 -119 OFFCURVE",
"272 -132 OFFCURVE",
"273 -151 CURVE SMOOTH",
"275 -182 OFFCURVE",
"230 -209 OFFCURVE",
"176 -211 CURVE",
"183 -247 LINE"
);
}
);
width = 472;
},
{
anchors = (
{
name = _bottom;
position = "{278.5, 0}";
},
{
name = bottom;
position = "{278.5, -247}";
}
);
components = (
{
name = c;
}
);
layerId = "16643525-C5DD-48EC-8E99-463BF28F5E85";
paths = (
{
closed = 1;
nodes = (
"246 -247 OFFCURVE",
"284 -240 OFFCURVE",
"312 -221 CURVE SMOOTH",
"342 -201 OFFCURVE",
"359 -168 OFFCURVE",
"359 -139 CURVE SMOOTH",
"359 -88 OFFCURVE",
"314 -57 OFFCURVE",
"244 -48 CURVE",
"265 -97 LINE",
"303 17 LINE",
"248 17 LINE",
"221 -104 LINE",
"234 -118 LINE",
"265 -119 OFFCURVE",
"287 -128 OFFCURVE",
"286 -153 CURVE SMOOTH",
"284 -187 OFFCURVE",
"245 -205 OFFCURVE",
"198 -206 CURVE",
"207 -247 LINE"
);
}
);
width = 488;
}
);
leftKerningGroup = o;
rightKerningGroup = c;
unicode = 00E7;
},
